SplineFontDB: 3.2
FontName: RusimesiSerifRegular
FullName: Rusimesi Serif Regular
FamilyName: Rusimesi Serif
Weight: Regular
Copyright: Copyright (c) 2024, 
UComments: "2024-2-26: Created with FontForge (http://fontforge.org)"
Version: 001.000
ItalicAngle: 0
UnderlinePosition: -100
UnderlineWidth: 50
Ascent: 800
Descent: 200
InvalidEm: 0
LayerCount: 2
Layer: 0 0 "Back" 1
Layer: 1 0 "Fore" 0
XUID: [1021 386 1071978211 10483204]
OS2Version: 0
OS2_WeightWidthSlopeOnly: 0
OS2_UseTypoMetrics: 1
CreationTime: 1708945225
ModificationTime: 1708946329
OS2TypoAscent: 0
OS2TypoAOffset: 1
OS2TypoDescent: 0
OS2TypoDOffset: 1
OS2TypoLinegap: 0
OS2WinAscent: 0
OS2WinAOffset: 1
OS2WinDescent: 0
OS2WinDOffset: 1
HheadAscent: 0
HheadAOffset: 1
HheadDescent: 0
HheadDOffset: 1
OS2Vendor: 'PfEd'
MarkAttachClasses: 1
DEI: 91125
Encoding: ISO8859-1
UnicodeInterp: none
NameList: AGL For New Fonts
DisplaySize: -48
AntiAlias: 1
FitToEm: 0
WidthSeparation: 150
WinInfo: 272 16 10
BeginPrivate: 0
EndPrivate
BeginChars: 545 289

StartChar: glyph0
Encoding: 256 57600 0
Width: 863
VWidth: 0
Flags: HW
LayerCount: 2
Fore
SplineSet
226.556640625 823.67578125 m 0
 294.818359375 796.337890625 273.517578125 715.375 253.73046875 662.900390625 c 0
 229.66796875 579.900390625 208.393554688 494.38671875 189.943359375 409.961914062 c 0
 181.67578125 370.32421875 173.280273438 330.514648438 165.305664062 290.575195312 c 1
 180.962890625 306.536132812 198.607421875 320.823242188 218.393554688 333 c 0
 309.081054688 390.5625 423.65625 407.788085938 527.494140625 382.25 c 0
 639.318359375 355.825195312 733.255859375 262.075195312 722.34375 140.724609375 c 0
 721.962890625 132.258789062 720.916015625 123.64453125 719.23828125 115.022460938 c 1
 753.529296875 87.6865234375 781.458007812 52.4814453125 798.89453125 11.1875 c 0
 815.518554688 -28.8623046875 755.79296875 -52.5 740.681640625 -11.6123046875 c 0
 732.21875 15.7373046875 717.91015625 39.6669921875 699.524414062 59.806640625 c 1
 679.366210938 22.1806640625 646.836914062 -8.791015625 605.493164062 -18.42578125 c 0
 531.581054688 -39.125 410.630859375 -30.4375 357.130859375 31.6005859375 c 0
 338.89453125 52.6875 342.305664062 89.875 358.744140625 111.375 c 0
 401.09375 167.48828125 473.744140625 179.599609375 538.868164062 178.912109375 c 0
 581.762695312 178.725585938 624.411132812 168.594726562 663.005859375 150.161132812 c 1
 664.095703125 217.112304688 621.798828125 274.978515625 561.043945312 303.163085938 c 0
 450.493164062 355.487304688 297.118164062 336.6875 208.055664062 251.049804688 c 0
 172.696289062 216.955078125 149.79296875 174.381835938 136.629882812 127.96875 c 1
 130.454101562 85.376953125 125.583007812 42.7001953125 122.66796875 -0.01171875 c 0
 122.662109375 -0.259765625 122.653320312 -0.5068359375 122.641601562 -0.7529296875 c 0
 122.127929688 -42.6640625 60.056640625 -42.7080078125 60.14453125 0 c 0
 60.14453125 0.193359375 60.1552734375 0.38671875 60.1552734375 0.580078125 c 0
 59.3212890625 37.80859375 61.9501953125 73.876953125 65.568359375 109.525390625 c 0
 76.505859375 215.69921875 98.0185546875 322.037109375 123.168945312 425.462890625 c 0
 145.23046875 512.149414062 167.818359375 599.012695312 202.880859375 681.712890625 c 0
 219.493164062 720.575195312 257.430664062 771.01171875 216.280273438 805.94921875 c 0
 206.755859375 812.950195312 215.743164062 828.487304688 226.556640625 823.67578125 c 0
653.9140625 97.4091796875 m 1
 588.825195312 137.715820312 501.999023438 146.51953125 431.680664062 115.825195312 c 0
 410.40625 105.674804688 390.619140625 91.7373046875 386.85546875 69.849609375 c 0
 387.380859375 50.412109375 410.994140625 40.412109375 430.643554688 32.1875 c 0
 480.09375 14.9501953125 539.818359375 13.2373046875 589.767578125 30.099609375 c 0
 623.493164062 40.8662109375 643.48046875 66.576171875 653.9140625 97.4091796875 c 1
EndSplineSet
EndChar

StartChar: glyph1
Encoding: 257 57601 1
Width: 812
VWidth: 0
Flags: HW
LayerCount: 2
Fore
SplineSet
226.556640625 823.67578125 m 0
 294.818359375 796.337890625 273.517578125 715.375 253.73046875 662.900390625 c 0
 229.66796875 579.900390625 208.393554688 494.38671875 189.943359375 409.961914062 c 0
 182.494140625 374.248046875 174.94140625 338.39453125 167.685546875 302.431640625 c 1
 179.744140625 314.28125 193.04296875 325.1640625 207.693359375 334.887695312 c 0
 366.40625 442.8125 625.880859375 406.6875 711.71875 222.599609375 c 0
 760.28125 116.025390625 733.231445312 -1.01171875 603.04296875 -18.6875 c 0
 513.53125 -30.125 404.731445312 -2.962890625 343.380859375 66.099609375 c 0
 333.467773438 78.5 351.493164062 94.13671875 362.35546875 82.662109375 c 0
 399.994140625 44.6630859375 460.356445312 27.900390625 513.09375 22.48828125 c 0
 564.255859375 18.1630859375 618.58203125 26.8994140625 655.893554688 63.13671875 c 0
 684.643554688 96.80078125 675.45703125 156.80078125 655.731445312 196.23828125 c 0
 609.744140625 292.612304688 495.068359375 339.862304688 391.54296875 333.037109375 c 0
 281.39453125 329.950195312 182.869140625 268.974609375 145.643554688 163.075195312 c 0
 143.096679688 156.065429688 140.77734375 148.954101562 138.674804688 141.756835938 c 0
 131.528320312 94.5888671875 125.897460938 47.310546875 122.66796875 -0.01171875 c 0
 122.66796875 -0.0673828125 122.6640625 -0.123046875 122.6640625 -0.177734375 c 0
 122.6640625 -0.21875 122.66796875 -0.259765625 122.66796875 -0.30078125 c 0
 122.831054688 -43.1748046875 59.7060546875 -43.13671875 60.15625 0 c 0
 60.15625 0.076171875 60.1630859375 0.15234375 60.1630859375 0.228515625 c 0
 59.3046875 37.5810546875 61.9384765625 73.7646484375 65.568359375 109.525390625 c 0
 76.505859375 215.69921875 98.0185546875 322.037109375 123.168945312 425.462890625 c 0
 145.23046875 512.149414062 167.818359375 599.012695312 202.880859375 681.712890625 c 0
 219.493164062 720.575195312 257.430664062 771.01171875 216.280273438 805.94921875 c 0
 206.755859375 812.950195312 215.743164062 828.487304688 226.556640625 823.67578125 c 0
EndSplineSet
EndChar

StartChar: glyph2
Encoding: 258 57602 2
Width: 936
VWidth: 0
Flags: HW
LayerCount: 2
Fore
SplineSet
375.462890625 823.67578125 m 0
 443.724609375 796.337890625 422.423828125 715.375 402.63671875 662.900390625 c 0
 378.57421875 579.900390625 357.299804688 494.38671875 338.849609375 409.961914062 c 0
 333.778320312 385.6484375 328.659179688 361.270507812 323.618164062 336.837890625 c 0
 323.756835938 336.141601562 323.892578125 335.4375 324.024414062 334.725585938 c 0
 342.712890625 250.112304688 342.51171875 114.875 418.237304688 63.44921875 c 1
 442.700195312 55.5751953125 470.69921875 54.900390625 497.224609375 52.8505859375 c 0
 575.861328125 49.599609375 656.450195312 51.0498046875 733.986328125 63.5625 c 0
 751.818359375 66.55078125 771.709960938 72.0205078125 783.044921875 78.265625 c 1
 791.956054688 94.775390625 794.4453125 112.4765625 796.899414062 132.587890625 c 0
 802.8125 192.9375 797.962890625 258.637695312 794.099609375 323.100585938 c 0
 793.673828125 330.25 799.125 336.387695312 806.26171875 336.8125 c 0
 812.137695312 337.163085938 817.337890625 333.525390625 819.237304688 328.25 c 0
 830.674804688 296.412109375 838.76171875 264.1875 844.912109375 231.025390625 c 0
 854.298828125 171.913085938 863.099609375 104.9375 835.25 47.73828125 c 0
 796.26171875 -25.775390625 475.336914062 -23.6376953125 400.200195312 0.61328125 c 1
 336.524414062 28.546875 307.469726562 93.7314453125 290.9765625 163.473632812 c 1
 282.653320312 111.791015625 275.987304688 59.962890625 272.150390625 8.0771484375 c 1
 279.909179688 -17.1591796875 249.990234375 -46.7509765625 222.125 -25.412109375 c 0
 157.899414062 33.19921875 19.2490234375 101.075195312 65.525390625 207.48828125 c 0
 85.3037109375 252.243164062 192.448242188 376.9375 263.458007812 389.26171875 c 1
 266.274414062 401.365234375 269.150390625 413.43359375 272.075195312 425.462890625 c 0
 294.13671875 512.149414062 316.724609375 599.012695312 351.787109375 681.712890625 c 0
 368.399414062 720.575195312 406.336914062 771.01171875 365.186523438 805.94921875 c 0
 355.662109375 812.950195312 364.649414062 828.487304688 375.462890625 823.67578125 c 0
210.13671875 56.328125 m 1
 211.143554688 74.22265625 212.688476562 91.9248046875 214.474609375 109.525390625 c 0
 221.692382812 179.583984375 233.513671875 249.71484375 247.946289062 319.032226562 c 1
 225.41796875 306.606445312 204.02734375 288.78125 183.51171875 271.662109375 c 0
 160.287109375 251.075195312 137.586914062 228.637695312 120.775390625 204.424804688 c 0
 78.1875 153.0625 133.974609375 110.262695312 177.3125 78.98828125 c 0
 187.965820312 71.263671875 198.9453125 63.7373046875 210.13671875 56.328125 c 1
782.940429688 78.072265625 m 1
 782.725585938 77.7626953125 782.536132812 77.337890625 782.537109375 77.337890625 c 0
 782.672851562 77.58203125 782.807617188 77.8271484375 782.940429688 78.072265625 c 1
EndSplineSet
EndChar

StartChar: glyph3
Encoding: 259 57603 3
Width: 612
VWidth: 0
Flags: HW
LayerCount: 2
Fore
SplineSet
226.486328125 823.67578125 m 0
 294.748046875 796.337890625 273.448242188 715.375 253.661132812 662.900390625 c 0
 229.598632812 579.900390625 208.32421875 494.38671875 189.874023438 409.961914062 c 0
 163.921875 285.541992188 136.7109375 159.428710938 125.220703125 32.888671875 c 1
 134.830078125 33.150390625 144.35546875 33.2490234375 153.817382812 33.216796875 c 0
 153.881835938 34.0283203125 153.946289062 34.8388671875 154.01171875 35.6494140625 c 0
 162.623046875 125.92578125 176.19921875 215.724609375 203.135742188 303.012695312 c 0
 232.94921875 403.05078125 283.361328125 448.1875 370.5859375 364.663085938 c 0
 436.098632812 297.225585938 479.44921875 215.987304688 519.662109375 132.3125 c 0
 535.5859375 94.212890625 566.2109375 33.1630859375 523.6484375 2.037109375 c 0
 501.01171875 -14.212890625 473.999023438 -17.8125 448.986328125 -21.025390625 c 0
 386.723632812 -26.88671875 327.310546875 -24.67578125 267.973632812 -23.8125 c 0
 242.893554688 -23.5107421875 217.205078125 -23.0419921875 191.600585938 -23.4091796875 c 1
 190.088867188 -34.544921875 188.678710938 -45.681640625 187.374023438 -56.8125 c 0
 185.086914062 -84.0625 180.8359375 -113.950195312 186.1484375 -140.375 c 0
 190.411132812 -157.149414062 165.923828125 -165.412109375 159.26171875 -149.287109375 c 0
 155.349609375 -139.775390625 153.999023438 -131.825195312 152.69921875 -123.82421875 c 0
 148.640625 -90.955078125 148.493164062 -57.888671875 149.973632812 -24.9140625 c 1
 131.440429688 -26.06640625 113.154296875 -27.9599609375 95.38671875 -30.9873046875 c 0
 67.9111328125 -35.1796875 54.48046875 -10.3525390625 59.953125 9.193359375 c 1
 59.6640625 43.3818359375 62.16015625 76.6328125 65.4990234375 109.525390625 c 0
 76.4365234375 215.69921875 97.94921875 322.037109375 123.099609375 425.462890625 c 0
 145.161132812 512.149414062 167.749023438 599.012695312 202.811523438 681.712890625 c 0
 219.423828125 720.575195312 257.361328125 771.01171875 216.2109375 805.94921875 c 0
 206.685546875 812.950195312 215.673828125 828.487304688 226.486328125 823.67578125 c 0
291.53515625 346.5390625 m 1
 291.583984375 346.569335938 291.611328125 346.586914062 291.611328125 346.586914062 c 1
 291.587890625 346.573242188 291.5625 346.557617188 291.53515625 346.5390625 c 1
290.143554688 345.2734375 m 0
 288.635742188 343.719726562 286.346679688 340.989257812 284.349609375 337.836914062 c 0
 259.936523438 296.48828125 248.286132812 248.125 235.298828125 201.387695312 c 0
 221.356445312 145.81640625 209.412109375 89.1240234375 199.977539062 32.142578125 c 1
 252.653320312 30.013671875 304.25 25.37109375 358.19921875 24.0380859375 c 0
 404.19921875 24.1875 455.499023438 18.3125 496.51171875 38.3994140625 c 0
 501.362304688 42.58984375 500.181640625 41.724609375 500.123046875 47.6376953125 c 0
 485.311523438 126.674804688 435.111328125 196.512695312 386.236328125 258.974609375 c 0
 358.331054688 290.739257812 326.814453125 330.703125 290.143554688 345.2734375 c 0
EndSplineSet
EndChar

StartChar: glyph4
Encoding: 260 57604 4
Width: 878
VWidth: 0
Flags: HW
LayerCount: 2
Fore
SplineSet
226.556640625 823.67578125 m 0
 294.818359375 796.337890625 273.517578125 715.375 253.73046875 662.900390625 c 0
 229.66796875 579.900390625 208.393554688 494.38671875 189.943359375 409.961914062 c 0
 163.650390625 283.907226562 136.065429688 156.114257812 124.845703125 27.900390625 c 1
 216.400390625 18.7578125 311.336914062 15.5673828125 391.630859375 59.212890625 c 0
 463.793945312 98.9375 489.081054688 188 456.70703125 263.75 c 0
 448.331054688 290.262695312 431.568359375 313.5625 430.106445312 343.25 c 0
 430.418945312 348.774414062 432.35546875 356.26171875 436.70703125 361.625 c 0
 438.89453125 364.038085938 439.142578125 365.6875 446.943359375 370.450195312 c 0
 454.930664062 374.275390625 457.181640625 373.8125 461.10546875 374.212890625 c 0
 466.568359375 374.174804688 467.930664062 373.76171875 471.443359375 372.850585938 c 0
 478.155273438 370.63671875 479.193359375 369.537109375 481.40625 368.42578125 c 0
 507.118164062 351.6875 526.993164062 331.474609375 548.706054688 311.162109375 c 0
 584.442382812 274.944335938 632.250976562 225.408203125 670.510742188 171.118164062 c 1
 715.813476562 188.744140625 763.579101562 200.725585938 806.255859375 210.737304688 c 0
 818.806640625 213.487304688 824.130859375 194.474609375 811.606445312 190.575195312 c 0
 781.384765625 180.454101562 734.736328125 164.495117188 689.07421875 143.084960938 c 1
 719.34765625 94.09375 739.377929688 42.5478515625 734.418945312 -5.712890625 c 0
 719.943359375 -88.1875 604.868164062 -123.837890625 540.71875 -71.8994140625 c 0
 502.33203125 -44.9501953125 492.15625 14.30078125 515.193359375 53.3994140625 c 0
 537.895507812 92.69921875 572.77734375 121.931640625 613.038085938 144.403320312 c 1
 600.959960938 160.151367188 588.48828125 175.310546875 576.642578125 189.737304688 c 0
 554.954101562 214.421875 532.559570312 239.481445312 508.909179688 263.051757812 c 1
 511.16796875 248.822265625 513.022460938 234.419921875 514.443359375 219.92578125 c 0
 549.53125 -33.900390625 273.505859375 -65.0498046875 87.005859375 -30.9130859375 c 0
 75.42578125 -28.78515625 67.9013671875 -22.30859375 64.0498046875 -14.2958984375 c 0
 61.69140625 -10.0166015625 60.3046875 -5.1474609375 60.16796875 -0.01171875 c 0
 59.29296875 37.42578125 61.931640625 73.6875 65.568359375 109.525390625 c 0
 76.505859375 215.69921875 98.0185546875 322.037109375 123.168945312 425.462890625 c 0
 145.23046875 512.149414062 167.818359375 599.012695312 202.880859375 681.712890625 c 0
 219.493164062 720.575195312 257.430664062 771.01171875 216.280273438 805.94921875 c 0
 206.755859375 812.950195312 215.743164062 828.487304688 226.556640625 823.67578125 c 0
634.955078125 114.2421875 m 1
 583.40234375 82.568359375 544.040039062 42.9072265625 549.142578125 -4.0244140625 c 1
 558.943359375 -44.150390625 611.78125 -56.8369140625 646.619140625 -38.275390625 c 0
 670.180664062 -26.57421875 686.493164062 -8.8125 679.505859375 20.8251953125 c 0
 672.109375 53.0400390625 655.23046875 84.462890625 634.955078125 114.2421875 c 1
EndSplineSet
EndChar

StartChar: glyph5
Encoding: 261 57605 5
Width: 785
VWidth: 0
Flags: HW
LayerCount: 2
Fore
SplineSet
227.580078125 823.67578125 m 0
 295.841796875 796.337890625 274.541992188 715.375 254.754882812 662.900390625 c 0
 230.692382812 579.900390625 209.41796875 494.38671875 190.967773438 409.961914062 c 0
 164.654296875 283.80859375 137.045898438 155.913085938 125.842773438 27.59765625 c 1
 153.137695312 25.611328125 181.6484375 26.3388671875 208.98828125 26.85546875 c 1
 197.6796875 33.0166015625 186.791015625 40.7060546875 176.48046875 50.86328125 c 0
 144.442382812 88.4873046875 161.317382812 142.17578125 181.35546875 180.038085938 c 0
 218.305664062 245.55078125 281.192382812 298.51171875 360.35546875 303.275390625 c 0
 468.2421875 305.01171875 552.055664062 191.94921875 581.85546875 98.9248046875 c 0
 585.04296875 89.587890625 586.443359375 78.7001953125 583.091796875 69.13671875 c 0
 581.80859375 64.654296875 579.5078125 60.3623046875 576.29296875 56.2529296875 c 1
 587.432617188 61.505859375 590.21875 65.42578125 597.2421875 80.712890625 c 0
 610.592773438 115.594726562 620.22265625 156.159179688 624.43359375 195.73828125 c 0
 623.216796875 203.22265625 622.033203125 210.729492188 620.879882812 218.262695312 c 0
 617.979492188 242.475585938 612.205078125 266.899414062 615.904296875 291.80078125 c 0
 619.379882812 313.76171875 645.23046875 327.57421875 665.3046875 315.424804688 c 0
 696.536132812 295.924804688 696.134765625 228.45703125 685.813476562 165.368164062 c 1
 693.171875 99.01171875 703.401367188 32.603515625 709.530273438 -34.25 c 0
 710.642578125 -44.162109375 703.467773438 -53.11328125 693.54296875 -54.1748046875 c 0
 684.517578125 -55.150390625 676.330078125 -49.2626953125 674.155273438 -40.69921875 c 0
 666.616210938 -11.0654296875 659.61328125 18.611328125 653.071289062 48.4013671875 c 1
 613.734375 -33.626953125 491.498046875 -24.8359375 415.892578125 -21.7373046875 c 0
 394.732421875 -20.1044921875 373.7109375 -17.732421875 352.778320312 -14.458984375 c 1
 258.216796875 -27.0498046875 162.213867188 -31.5751953125 124.3671875 -32.5 c 0
 112.5546875 -32.4755859375 101.5546875 -32.6748046875 86.9052734375 -30.75 c 0
 64.546875 -27.1103515625 56.97265625 -7.927734375 61.0556640625 8.1953125 c 0
 60.708984375 42.7353515625 63.2216796875 76.3125 66.5927734375 109.525390625 c 0
 77.5302734375 215.69921875 99.04296875 322.037109375 124.193359375 425.462890625 c 0
 146.254882812 512.149414062 168.842773438 599.012695312 203.905273438 681.712890625 c 0
 220.517578125 720.575195312 258.455078125 771.01171875 217.3046875 805.94921875 c 0
 207.779296875 812.950195312 216.767578125 828.487304688 227.580078125 823.67578125 c 0
538.466796875 81.1181640625 m 1
 538.471679688 81.0322265625 538.4765625 80.951171875 538.48046875 80.875 c 2
 538.580078125 80.69921875 l 1
 538.54296875 80.8388671875 538.504882812 80.978515625 538.466796875 81.1181640625 c 1
538.811523438 84.142578125 m 1
 538.852539062 84.2021484375 538.83984375 84.142578125 538.811523438 84.142578125 c 1
537.881835938 83.234375 m 1
 516.6328125 158.529296875 446.184570312 252.552734375 364.35546875 249.413085938 c 0
 298.155273438 243.299804688 220.6171875 162.42578125 223.455078125 95.2626953125 c 0
 224.842773438 91.3125 232.955078125 87.125 241.466796875 82.7001953125 c 0
 292.576171875 59.8076171875 351.829101562 50.0322265625 408.609375 44.01171875 c 1
 431.8359375 47.77734375 454.813476562 52.3662109375 477.368164062 58.0126953125 c 0
 499.803710938 64.4970703125 522.885742188 70.130859375 537.881835938 83.234375 c 1
EndSplineSet
EndChar

StartChar: glyph6
Encoding: 262 57606 6
Width: 775
VWidth: 0
Flags: HW
LayerCount: 2
Fore
SplineSet
226.556640625 823.67578125 m 0
 294.818359375 796.337890625 273.517578125 715.375 253.73046875 662.900390625 c 0
 229.66796875 579.900390625 208.393554688 494.38671875 189.943359375 409.961914062 c 0
 163.622070312 283.767578125 136.00390625 155.831054688 124.807617188 27.4736328125 c 1
 247.288085938 12.0556640625 467.8046875 -20.830078125 534.994140625 74.98828125 c 1
 591.16796875 144.912109375 576.443359375 211.63671875 556.943359375 292.26171875 c 0
 556.16796875 298.650390625 555.23046875 304.162109375 556.630859375 311.913085938 c 0
 559.15625 330.575195312 581.21875 344.174804688 599.168945312 336.712890625 c 0
 613.29296875 331.836914062 622.193359375 315.94921875 628.568359375 305.787109375 c 0
 679.693359375 217.88671875 747.40625 19.44921875 638.53125 -47.724609375 c 0
 629.142578125 -52.8623046875 618.630859375 -41.400390625 624.255859375 -32.51171875 c 0
 653.135742188 24.80078125 643.806640625 100.131835938 620.333984375 170.20703125 c 1
 610.853515625 40.359375 552.666992188 -43.0751953125 373.643554688 -52.962890625 c 0
 275.430664062 -58.7255859375 179.60546875 -45.9755859375 87.01953125 -30.9375 c 0
 75.6474609375 -29.1884765625 66.65625 -21.5048828125 62.69921875 -11.5341796875 c 0
 61.166015625 -7.966796875 60.2763671875 -4.072265625 60.16796875 -0.01171875 c 0
 59.29296875 37.42578125 61.931640625 73.6875 65.568359375 109.525390625 c 0
 76.505859375 215.69921875 98.0185546875 322.037109375 123.168945312 425.462890625 c 0
 145.23046875 512.149414062 167.818359375 599.012695312 202.880859375 681.712890625 c 0
 219.493164062 720.575195312 257.430664062 771.01171875 216.280273438 805.94921875 c 0
 206.755859375 812.950195312 215.743164062 828.487304688 226.556640625 823.67578125 c 0
EndSplineSet
EndChar

StartChar: glyph7
Encoding: 263 57607 7
Width: 798
VWidth: 0
Flags: HW
LayerCount: 2
Fore
SplineSet
226.556640625 823.67578125 m 0
 294.818359375 796.337890625 273.517578125 715.375 253.73046875 662.900390625 c 0
 229.66796875 579.900390625 208.393554688 494.38671875 189.943359375 409.961914062 c 0
 163.366210938 282.544921875 135.46875 153.3515625 124.487304688 23.7421875 c 1
 185.572265625 9.6259765625 253.3828125 4.4287109375 316.005859375 1.0498046875 c 0
 389.331054688 -1.625 463.71875 -1.0498046875 533.73046875 11.662109375 c 0
 540.450195312 12.9697265625 547.176757812 14.36328125 553.854492188 15.916015625 c 1
 536.438476562 25.265625 519.0078125 35.6689453125 501.981445312 48.0751953125 c 0
 440.54296875 90.3369140625 410.255859375 163.299804688 445.681640625 232.400390625 c 0
 477.606445312 302.875 562.606445312 382.075195312 643.443359375 332.337890625 c 0
 709.643554688 286.225585938 710.118164062 194.912109375 707.368164062 123.711914062 c 0
 704.504882812 87.6025390625 697.352539062 48.7705078125 676.462890625 17.876953125 c 1
 688.659179688 10.337890625 699.75 2.4228515625 709.018554688 -6.1875 c 0
 771.668945312 -59.587890625 712.65625 -128.73828125 655.581054688 -154.38671875 c 0
 584.20703125 -190.575195312 460.14453125 -183.0625 443.29296875 -88.0126953125 c 0
 440.967773438 -75.6748046875 458.84375 -70.787109375 463.26953125 -82.287109375 c 0
 469.092773438 -97.9248046875 478.943359375 -111.17578125 492.73046875 -120.07421875 c 0
 535.15625 -145.525390625 592.34375 -134.625 634.03125 -112.037109375 c 0
 654.193359375 -100.6875 672.831054688 -85.07421875 682.318359375 -65.2001953125 c 0
 683.91796875 -60.537109375 683.494140625 -60.0625 682.73046875 -58.1875 c 0
 670.661132812 -41.8037109375 650.551757812 -31.498046875 630.421875 -21.9560546875 c 1
 603.724609375 -35.498046875 574.290039062 -42.8515625 545.693359375 -49.1123046875 c 0
 467.543945312 -64.5625 390.193359375 -66.474609375 313.255859375 -63.42578125 c 0
 233.96875 -59.150390625 159.405273438 -53.525390625 81.505859375 -29.6376953125 c 0
 67.4912109375 -25.0302734375 58.935546875 -11.455078125 60.1123046875 2.6298828125 c 0
 59.41796875 39.1328125 62.0166015625 74.53125 65.568359375 109.525390625 c 0
 76.505859375 215.69921875 98.0185546875 322.037109375 123.168945312 425.462890625 c 0
 145.23046875 512.149414062 167.818359375 599.012695312 202.880859375 681.712890625 c 0
 219.493164062 720.575195312 257.430664062 771.01171875 216.280273438 805.94921875 c 0
 206.755859375 812.950195312 215.743164062 828.487304688 226.556640625 823.67578125 c 0
624.124023438 46.4658203125 m 1
 644.470703125 67.41015625 655.364257812 99.873046875 660.568359375 129.07421875 c 0
 666.017578125 163.037109375 662.993164062 199.725585938 649.65625 230.112304688 c 0
 628.60546875 274.537109375 602.193359375 300.849609375 562.59375 276.913085938 c 0
 527.95703125 255.5625 493.780273438 207.48828125 492.880859375 166.987304688 c 1
 501.458007812 108.703125 564.315429688 77.126953125 624.124023438 46.4658203125 c 1
EndSplineSet
EndChar

StartChar: glyph8
Encoding: 264 57608 8
Width: 857
VWidth: 0
Flags: HW
LayerCount: 2
Fore
SplineSet
226.556640625 823.67578125 m 0
 294.818359375 796.337890625 273.517578125 715.375 253.73046875 662.900390625 c 0
 229.66796875 579.900390625 208.393554688 494.38671875 189.943359375 409.961914062 c 0
 182.494140625 374.248046875 174.94140625 338.39453125 167.685546875 302.431640625 c 1
 179.744140625 314.28125 193.04296875 325.1640625 207.693359375 334.887695312 c 0
 366.40625 442.8125 625.880859375 406.6875 711.71875 222.599609375 c 0
 760.28125 116.025390625 733.231445312 -1.01171875 603.04296875 -18.7001953125 c 0
 513.53125 -30.1376953125 404.731445312 -2.974609375 343.380859375 66.087890625 c 0
 333.467773438 78.4873046875 351.493164062 94.125 362.35546875 82.650390625 c 0
 399.994140625 44.6494140625 460.356445312 27.875 513.09375 22.4755859375 c 0
 564.255859375 18.1494140625 618.58203125 26.875 655.893554688 63.125 c 0
 684.643554688 96.787109375 675.45703125 156.787109375 655.731445312 196.225585938 c 0
 609.744140625 292.599609375 495.068359375 339.849609375 391.54296875 333.025390625 c 0
 281.39453125 329.9375 182.869140625 268.962890625 145.643554688 163.0625 c 0
 143.095703125 156.047851562 140.774414062 148.932617188 138.670898438 141.73046875 c 0
 131.526367188 94.5712890625 125.896484375 47.3017578125 122.66796875 -0.01171875 c 0
 122.66796875 -0.0693359375 122.6640625 -0.126953125 122.6640625 -0.1845703125 c 0
 122.6640625 -0.2275390625 122.66796875 -0.26953125 122.66796875 -0.3125 c 0
 122.831054688 -43.1875 59.7060546875 -43.1494140625 60.15625 -0.01171875 c 0
 60.15625 0.0654296875 60.1630859375 0.1435546875 60.1630859375 0.22265625 c 0
 59.3046875 37.5771484375 61.9384765625 73.7626953125 65.568359375 109.525390625 c 0
 76.505859375 215.69921875 98.0185546875 322.037109375 123.168945312 425.462890625 c 0
 145.23046875 512.149414062 167.818359375 599.012695312 202.880859375 681.712890625 c 0
 219.493164062 720.575195312 257.430664062 771.01171875 216.280273438 805.94921875 c 0
 206.755859375 812.950195312 215.743164062 828.487304688 226.556640625 823.67578125 c 0
715.018554688 424.799804688 m 0
 719.15625 425.450195312 725.705078125 423.950195312 726.306640625 423.487304688 c 0
 741.10546875 417.700195312 752.33203125 407.475585938 764.130859375 397.836914062 c 0
 780.518554688 382.362304688 818.58203125 355.049804688 791.630859375 331.0625 c 0
 779.85546875 321.32421875 761.592773438 324.737304688 754.081054688 338.025390625 c 0
 744.51953125 354.024414062 729.28125 372.26171875 714.880859375 385.336914062 c 2
 712.79296875 387.125 l 2
 712.747070312 387.163085938 712.709960938 387.193359375 712.681640625 387.21875 c 0
 694.133789062 391.465820312 692.688476562 421.638671875 715.018554688 424.799804688 c 0
639.956054688 408.82421875 m 0
 644.092773438 409.462890625 650.643554688 407.974609375 651.244140625 407.51171875 c 0
 666.043945312 401.724609375 677.267578125 391.5 689.068359375 381.850585938 c 0
 705.45703125 366.375 743.517578125 339.0625 716.568359375 315.087890625 c 0
 704.793945312 305.350585938 686.53125 308.76171875 679.018554688 322.049804688 c 0
 669.455078125 338.05078125 654.21875 356.288085938 639.818359375 369.36328125 c 2
 637.73046875 371.150390625 l 2
 637.684570312 371.1875 637.647460938 371.217773438 637.620117188 371.243164062 c 0
 619.0703125 375.490234375 617.625976562 405.6640625 639.956054688 408.82421875 c 0
714 386.965820312 m 1
 715.26953125 386.662109375 717.895507812 386.184570312 719.755859375 386.86328125 c 1
 717.697265625 386.640625 715.77734375 386.688476562 714 386.965820312 c 1
638.938476562 370.990234375 m 1
 640.20703125 370.686523438 642.833007812 370.208984375 644.693359375 370.887695312 c 1
 642.635742188 370.665039062 640.71484375 370.712890625 638.938476562 370.990234375 c 1
EndSplineSet
EndChar

StartChar: glyph9
Encoding: 265 57609 9
Width: 810
VWidth: 0
Flags: HW
LayerCount: 2
Fore
SplineSet
227.1484375 823.67578125 m 0
 295.41015625 796.337890625 274.110351562 715.375 254.322265625 662.900390625 c 0
 230.259765625 579.900390625 208.985351562 494.38671875 190.536132812 409.961914062 c 0
 164.802734375 286.58984375 137.831054688 161.552734375 126.17578125 36.0849609375 c 1
 149.953125 39.66015625 178.671875 44.5947265625 209.427734375 50.798828125 c 1
 186.915039062 151.579101562 221.610351562 337.047851562 268.348632812 404.575195312 c 0
 293.84765625 442.862304688 342.123046875 435.899414062 374.385742188 413.1875 c 0
 441.498046875 365.86328125 488.685546875 296.987304688 520.259765625 222.3125 c 0
 534.209960938 187.674804688 541.185546875 145.837890625 512.34765625 117.538085938 c 0
 464.171875 69.6669921875 397.989257812 48.5673828125 335.587890625 27.6611328125 c 1
 396.916015625 15.666015625 462.47265625 14.529296875 524.1484375 13.8623046875 c 0
 571.9609375 16.1376953125 621.6484375 14.4248046875 663.923828125 34.30078125 c 0
 677.123046875 44.599609375 682.498046875 61.7626953125 686.922851562 80.787109375 c 0
 694.073242188 114.086914062 692.098632812 152.237304688 687.5234375 187.875 c 0
 686.060546875 195.899414062 691.635742188 203.612304688 699.735351562 204.625 c 0
 706.736328125 205.525390625 713.2109375 201.17578125 715.185546875 194.625 c 0
 721.134765625 175.01171875 725.0859375 155.975585938 727.53515625 135.9375 c 0
 736.03515625 66.32421875 727.03515625 -9.76171875 644.623046875 -26.162109375 c 0
 565.635742188 -45.38671875 488.310546875 -45.412109375 408.611328125 -41.9248046875 c 0
 363.24609375 -37.04296875 275.178710938 -36.591796875 235.21484375 -1.3525390625 c 1
 189.4765625 -12.9814453125 143.294921875 -22.7744140625 96.2978515625 -30.94921875 c 0
 70.2080078125 -34.7109375 56.8359375 -12.1181640625 60.6376953125 6.9111328125 c 0
 60.21484375 41.9033203125 62.748046875 75.9013671875 66.1611328125 109.525390625 c 0
 77.0986328125 215.69921875 98.611328125 322.037109375 123.760742188 425.462890625 c 0
 145.822265625 512.149414062 168.41015625 599.012695312 203.47265625 681.712890625 c 0
 220.0859375 720.575195312 258.022460938 771.01171875 216.873046875 805.94921875 c 0
 207.34765625 812.950195312 216.3359375 828.487304688 227.1484375 823.67578125 c 0
268.756835938 63.8935546875 m 0
 364.412109375 86.95703125 462.015625 120.755859375 485.135742188 162.9375 c 1
 485.772460938 194.887695312 468.623046875 225.94921875 453.7734375 254.25 c 0
 435.97265625 285.775390625 414.236328125 315.775390625 389.522460938 341.6875 c 0
 371.310546875 360.5 338.41015625 390.8125 314.522460938 386.825195312 c 0
 312.310546875 386.288085938 312.2109375 385.775390625 310.360351562 384.44921875 c 0
 258.384765625 321.650390625 251.03515625 142.637695312 268.634765625 64.36328125 c 0
 268.67578125 64.2060546875 268.715820312 64.0498046875 268.756835938 63.8935546875 c 0
EndSplineSet
EndChar

StartChar: glyph10
Encoding: 266 57610 10
Width: 808
VWidth: 0
Flags: HW
LayerCount: 2
Fore
SplineSet
227.1484375 823.67578125 m 0
 295.41015625 796.337890625 274.110351562 715.375 254.322265625 662.900390625 c 0
 230.259765625 579.900390625 208.985351562 494.38671875 190.536132812 409.961914062 c 0
 164.802734375 286.58984375 137.831054688 161.552734375 126.17578125 36.0849609375 c 1
 149.953125 39.66015625 178.671875 44.5947265625 209.427734375 50.798828125 c 1
 186.915039062 151.579101562 221.610351562 337.047851562 268.348632812 404.575195312 c 0
 293.84765625 442.862304688 342.123046875 435.899414062 374.385742188 413.1875 c 0
 441.498046875 365.86328125 488.685546875 296.987304688 520.259765625 222.3125 c 0
 534.209960938 187.674804688 541.185546875 145.837890625 512.34765625 117.538085938 c 0
 464.171875 69.6669921875 397.989257812 48.5673828125 335.587890625 27.6611328125 c 1
 396.916015625 15.666015625 462.47265625 14.529296875 524.1484375 13.8623046875 c 0
 571.9609375 16.1376953125 621.6484375 14.4248046875 663.923828125 34.30078125 c 0
 677.123046875 44.599609375 682.498046875 61.7626953125 686.922851562 80.787109375 c 0
 694.073242188 114.086914062 692.098632812 152.237304688 687.5234375 187.875 c 0
 686.060546875 195.899414062 691.635742188 203.612304688 699.735351562 204.625 c 0
 706.736328125 205.525390625 713.2109375 201.17578125 715.185546875 194.625 c 0
 721.134765625 175.01171875 725.0859375 155.975585938 727.53515625 135.9375 c 0
 736.03515625 66.32421875 727.03515625 -9.76171875 644.623046875 -26.162109375 c 0
 565.635742188 -45.38671875 488.310546875 -45.412109375 408.611328125 -41.9248046875 c 0
 363.24609375 -37.04296875 275.178710938 -36.591796875 235.21484375 -1.3525390625 c 1
 189.4765625 -12.9814453125 143.294921875 -22.7744140625 96.2978515625 -30.94921875 c 0
 70.2080078125 -34.7109375 56.8359375 -12.1181640625 60.6376953125 6.9111328125 c 0
 60.21484375 41.9033203125 62.748046875 75.9013671875 66.1611328125 109.525390625 c 0
 77.0986328125 215.69921875 98.611328125 322.037109375 123.760742188 425.462890625 c 0
 145.822265625 512.149414062 168.41015625 599.012695312 203.47265625 681.712890625 c 0
 220.0859375 720.575195312 258.022460938 771.01171875 216.873046875 805.94921875 c 0
 207.34765625 812.950195312 216.3359375 828.487304688 227.1484375 823.67578125 c 0
611.073242188 424.799804688 m 0
 615.209960938 425.450195312 621.759765625 423.950195312 622.361328125 423.487304688 c 0
 637.16015625 417.700195312 648.384765625 407.475585938 660.185546875 397.836914062 c 0
 676.573242188 382.362304688 714.634765625 355.049804688 687.685546875 331.0625 c 0
 675.91015625 321.32421875 657.647460938 324.737304688 650.135742188 338.025390625 c 0
 640.572265625 354.024414062 625.3359375 372.26171875 610.935546875 385.336914062 c 2
 608.84765625 387.125 l 2
 608.801757812 387.163085938 608.764648438 387.193359375 608.736328125 387.21875 c 0
 590.1875 391.465820312 588.743164062 421.638671875 611.073242188 424.799804688 c 0
536.010742188 408.82421875 m 0
 540.147460938 409.462890625 546.698242188 407.974609375 547.298828125 407.51171875 c 0
 562.098632812 401.724609375 573.322265625 391.5 585.123046875 381.850585938 c 0
 601.509765625 366.375 639.572265625 339.0625 612.623046875 315.087890625 c 0
 600.848632812 305.350585938 582.5859375 308.76171875 575.073242188 322.049804688 c 0
 565.509765625 338.05078125 550.2734375 356.288085938 535.873046875 369.36328125 c 2
 533.78515625 371.150390625 l 2
 533.739257812 371.1875 533.702148438 371.217773438 533.674804688 371.243164062 c 0
 515.125 375.490234375 513.680664062 405.6640625 536.010742188 408.82421875 c 0
268.756835938 63.8935546875 m 0
 364.412109375 86.95703125 462.015625 120.755859375 485.135742188 162.9375 c 1
 485.772460938 194.887695312 468.623046875 225.94921875 453.7734375 254.25 c 0
 435.97265625 285.775390625 414.236328125 315.775390625 389.522460938 341.6875 c 0
 371.310546875 360.5 338.41015625 390.8125 314.522460938 386.825195312 c 0
 312.310546875 386.288085938 312.2109375 385.775390625 310.360351562 384.44921875 c 0
 258.384765625 321.650390625 251.03515625 142.637695312 268.634765625 64.36328125 c 0
 268.67578125 64.2060546875 268.715820312 64.0498046875 268.756835938 63.8935546875 c 0
610.055664062 386.96484375 m 1
 611.325195312 386.662109375 613.950195312 386.184570312 615.810546875 386.86328125 c 1
 613.752929688 386.640625 611.83203125 386.688476562 610.055664062 386.96484375 c 1
534.993164062 370.990234375 m 1
 536.26171875 370.686523438 538.887695312 370.208984375 540.748046875 370.887695312 c 1
 538.690429688 370.665039062 536.76953125 370.712890625 534.993164062 370.990234375 c 1
EndSplineSet
EndChar

StartChar: glyph11
Encoding: 267 57611 11
Width: 920
VWidth: 0
Flags: HW
LayerCount: 2
Fore
SplineSet
324.510742188 823.67578125 m 0
 392.772460938 796.337890625 371.47265625 715.375 351.684570312 662.900390625 c 0
 327.622070312 579.900390625 306.34765625 494.38671875 287.8984375 409.961914062 c 0
 283.741210938 390.03515625 279.552734375 370.064453125 275.401367188 350.055664062 c 1
 356.624023438 369.983398438 442.942382812 378.459960938 494.022460938 376.462890625 c 0
 502.09765625 374.8125 508.296875 372.924804688 514.510742188 365.649414062 c 0
 527.697265625 350.024414062 518.647460938 327.4375 502.03515625 321.23828125 c 0
 375.822265625 260.038085938 384.59765625 86.4501953125 515.384765625 38.3251953125 c 0
 524.43359375 35.61328125 534.166015625 33.5986328125 544.366210938 32.275390625 c 1
 519.233398438 148.2421875 540.953125 286.685546875 645.22265625 357.875 c 1
 751.3359375 423.287109375 867.22265625 211.474609375 837.259765625 123.788085938 c 0
 811.295898438 33.9775390625 709.219726562 -21.9638671875 608.970703125 -31.37109375 c 1
 618.048828125 -60.0888671875 630.330078125 -86.3984375 645.547851562 -108.275390625 c 0
 654.759765625 -120.049804688 638.497070312 -135.899414062 627.010742188 -126 c 0
 597.606445312 -100.717773438 578.24609375 -67.6337890625 564.204101562 -32.41796875 c 1
 524.733398438 -30.462890625 487.4609375 -20.6416015625 457.485351562 -2.125 c 0
 335.09375 69.482421875 320.651367188 227.669921875 408.282226562 320.504882812 c 1
 363.694335938 316.422851562 312.057617188 308.860351562 264.403320312 296.287109375 c 1
 245.171875 200.459960938 228.21484375 103.8671875 221.124023438 7.0751953125 c 1
 227.4921875 -17.7265625 198.490234375 -45.7705078125 171.172851562 -25.4248046875 c 0
 78.5732421875 43.73828125 18.935546875 142.987304688 86.5224609375 253.73828125 c 0
 106.875976562 283.744140625 148.4921875 307.974609375 198.610351562 326.739257812 c 1
 205.606445312 359.873046875 213.18359375 392.813476562 221.123046875 425.462890625 c 0
 243.184570312 512.149414062 265.772460938 599.012695312 300.834960938 681.712890625 c 0
 317.447265625 720.575195312 355.384765625 771.01171875 314.234375 805.94921875 c 0
 304.708984375 812.950195312 313.697265625 828.487304688 324.510742188 823.67578125 c 0
159.530273438 62.13671875 m 1
 160.528320312 78.056640625 161.9296875 93.8310546875 163.5234375 109.525390625 c 0
 169 162.688476562 177.127929688 215.892578125 187.036132812 268.751953125 c 1
 162.396484375 256.8359375 141.879882812 242.586914062 128.22265625 225.625 c 0
 90.7412109375 162.198242188 113.634765625 105.848632812 159.530273438 62.13671875 c 1
484.64453125 323.641601562 m 1
 484.848632812 323.595703125 485.045898438 323.560546875 485.235351562 323.537109375 c 1
 485.068359375 323.573242188 484.870117188 323.607421875 484.64453125 323.641601562 c 1
479.4453125 370.131835938 m 1
 479.91015625 370.350585938 l 1
 479.91015625 370.350585938 479.830078125 370.131835938 479.4453125 370.131835938 c 1
594.799804688 31.123046875 m 1
 670.576171875 36.7451171875 752.627929688 73.9765625 773.935546875 141.17578125 c 0
 785.459960938 193.287109375 743.623046875 263.51171875 707.47265625 295.55078125 c 0
 698.672851562 302.4375 691.884765625 306.899414062 683.998046875 306.987304688 c 0
 665.372070312 298.100585938 649.959960938 281.0625 637.084960938 264.4375 c 0
 595.03125 205.6796875 582.657226562 114.76171875 594.799804688 31.123046875 c 1
EndSplineSet
EndChar

StartChar: glyph12
Encoding: 268 57612 12
Width: 865
VWidth: 0
Flags: HW
LayerCount: 2
Fore
SplineSet
226.556640625 823.67578125 m 0
 294.818359375 796.337890625 273.517578125 715.375 253.73046875 662.900390625 c 0
 229.66796875 579.900390625 208.393554688 494.38671875 189.943359375 409.961914062 c 0
 181.67578125 370.32421875 173.280273438 330.515625 165.305664062 290.575195312 c 1
 180.962890625 306.536132812 198.607421875 320.823242188 218.393554688 333 c 0
 309.081054688 390.5625 423.65625 407.788085938 527.494140625 382.25 c 0
 639.318359375 355.825195312 733.255859375 262.075195312 722.34375 140.724609375 c 0
 721.962890625 132.258789062 720.916015625 123.64453125 719.23828125 115.022460938 c 1
 753.529296875 87.6865234375 781.458007812 52.4814453125 798.89453125 11.1875 c 0
 815.518554688 -28.8623046875 755.79296875 -52.5 740.681640625 -11.6123046875 c 0
 732.21875 15.7373046875 717.91015625 39.6669921875 699.524414062 59.806640625 c 1
 679.366210938 22.1806640625 646.836914062 -8.791015625 605.493164062 -18.42578125 c 0
 531.581054688 -39.125 410.630859375 -30.4375 357.130859375 31.6005859375 c 0
 338.89453125 52.6875 342.305664062 89.875 358.744140625 111.375 c 0
 401.09375 167.48828125 473.744140625 179.599609375 538.868164062 178.912109375 c 0
 581.762695312 178.725585938 624.41015625 168.594726562 663.005859375 150.161132812 c 1
 664.100585938 217.1171875 621.802734375 274.989257812 561.043945312 303.174804688 c 0
 450.493164062 355.5 297.118164062 336.700195312 208.055664062 251.0625 c 0
 172.69921875 216.970703125 149.797851562 174.401367188 136.633789062 127.993164062 c 1
 130.456054688 85.3935546875 125.583007812 42.708984375 122.66796875 -0.01171875 c 0
 122.662109375 -0.26171875 122.653320312 -0.509765625 122.641601562 -0.7568359375 c 0
 122.111328125 -42.65234375 60.056640625 -42.6904296875 60.14453125 0.01171875 c 0
 60.14453125 0.203125 60.154296875 0.39453125 60.154296875 0.5859375 c 0
 59.3212890625 37.8115234375 61.9501953125 73.87890625 65.568359375 109.525390625 c 0
 76.505859375 215.69921875 98.0185546875 322.037109375 123.168945312 425.462890625 c 0
 145.23046875 512.149414062 167.818359375 599.012695312 202.880859375 681.712890625 c 0
 219.493164062 720.575195312 257.430664062 771.01171875 216.280273438 805.94921875 c 0
 206.755859375 812.950195312 215.743164062 828.487304688 226.556640625 823.67578125 c 0
709.10546875 380.219726562 m 1
 710.196289062 371.811523438 708.774414062 365.1640625 702.217773438 364.462890625 c 0
 699.268554688 364.350585938 696.668945312 365.975585938 695.369140625 368.413085938 c 0
 691.345703125 376.928710938 685.969726562 384.484375 679.63671875 390.817382812 c 0
 654.421875 397.723632812 625.3671875 399.244140625 597.267578125 399.587890625 c 0
 589.994140625 400.663085938 590.380859375 399.150390625 579.793945312 404.61328125 c 0
 571.893554688 409.5 566.53125 419.711914062 568.130859375 429.825195312 c 0
 574.788085938 461.661132812 621.813476562 459.797851562 648.731445312 451.602539062 c 0
 666.673828125 451.05859375 684.872070312 448.606445312 703.143554688 442.8125 c 0
 733.494140625 433.587890625 760.118164062 416.987304688 782.01953125 397.461914062 c 0
 792.35546875 388.237304688 793.26953125 372.375 784.04296875 362.037109375 c 0
 775.818359375 352.8125 762.293945312 351.112304688 752.15625 357.362304688 c 0
 737.607421875 365.86328125 723.434570312 373.83203125 709.10546875 380.219726562 c 1
653.913085938 97.41015625 m 1
 588.82421875 137.715820312 501.998046875 146.51953125 431.680664062 115.825195312 c 0
 410.40625 105.674804688 390.619140625 91.7373046875 386.85546875 69.849609375 c 0
 387.380859375 50.412109375 410.994140625 40.412109375 430.643554688 32.1875 c 0
 480.09375 14.9501953125 539.818359375 13.2373046875 589.767578125 30.099609375 c 0
 623.4921875 40.865234375 643.479492188 66.57421875 653.913085938 97.41015625 c 1
EndSplineSet
EndChar

StartChar: glyph13
Encoding: 269 57613 13
Width: 888
VWidth: 0
Flags: HW
LayerCount: 2
Fore
SplineSet
226.556640625 823.67578125 m 0
 294.818359375 796.337890625 273.517578125 715.375 253.73046875 662.900390625 c 0
 229.66796875 579.900390625 208.393554688 494.38671875 189.943359375 409.961914062 c 0
 182.494140625 374.248046875 174.94140625 338.39453125 167.685546875 302.431640625 c 1
 179.744140625 314.28125 193.04296875 325.1640625 207.693359375 334.887695312 c 0
 366.40625 442.8125 625.880859375 406.6875 711.71875 222.599609375 c 0
 760.28125 116.025390625 733.231445312 -1.01171875 603.04296875 -18.7001953125 c 0
 513.53125 -30.1376953125 404.731445312 -2.974609375 343.380859375 66.087890625 c 0
 333.467773438 78.4873046875 351.493164062 94.125 362.35546875 82.650390625 c 0
 399.994140625 44.6494140625 460.356445312 27.875 513.09375 22.4755859375 c 0
 564.255859375 18.1494140625 618.58203125 26.875 655.893554688 63.125 c 0
 684.643554688 96.787109375 675.45703125 156.787109375 655.731445312 196.225585938 c 0
 609.744140625 292.599609375 495.068359375 339.849609375 391.54296875 333.025390625 c 0
 281.39453125 329.9375 182.869140625 268.962890625 145.643554688 163.0625 c 0
 143.095703125 156.047851562 140.774414062 148.932617188 138.670898438 141.73046875 c 0
 131.526367188 94.5712890625 125.896484375 47.3017578125 122.66796875 -0.01171875 c 0
 122.66796875 -0.0693359375 122.6640625 -0.126953125 122.6640625 -0.1845703125 c 0
 122.6640625 -0.2275390625 122.66796875 -0.26953125 122.66796875 -0.3125 c 0
 122.831054688 -43.1875 59.7060546875 -43.1494140625 60.15625 -0.01171875 c 0
 60.15625 0.0654296875 60.1630859375 0.1435546875 60.1630859375 0.22265625 c 0
 59.3046875 37.5771484375 61.9384765625 73.7626953125 65.568359375 109.525390625 c 0
 76.505859375 215.69921875 98.0185546875 322.037109375 123.168945312 425.462890625 c 0
 145.23046875 512.149414062 167.818359375 599.012695312 202.880859375 681.712890625 c 0
 219.493164062 720.575195312 257.430664062 771.01171875 216.280273438 805.94921875 c 0
 206.755859375 812.950195312 215.743164062 828.487304688 226.556640625 823.67578125 c 0
749.880859375 380.219726562 m 1
 750.971679688 371.811523438 749.549804688 365.1640625 742.993164062 364.462890625 c 0
 740.043945312 364.350585938 737.443359375 365.975585938 736.143554688 368.413085938 c 0
 732.120117188 376.928710938 726.744140625 384.484375 720.411132812 390.817382812 c 0
 695.196289062 397.723632812 666.142578125 399.244140625 638.04296875 399.587890625 c 0
 630.76953125 400.663085938 631.15625 399.150390625 620.568359375 404.61328125 c 0
 612.66796875 409.5 607.305664062 419.711914062 608.90625 429.825195312 c 0
 615.563476562 461.661132812 662.587890625 459.797851562 689.506835938 451.602539062 c 0
 707.44921875 451.05859375 725.646484375 448.60546875 743.91796875 442.8125 c 0
 774.268554688 433.587890625 800.893554688 416.987304688 822.79296875 397.461914062 c 0
 833.130859375 388.237304688 834.04296875 372.375 824.818359375 362.037109375 c 0
 816.592773438 352.8125 803.068359375 351.112304688 792.930664062 357.362304688 c 0
 778.381835938 365.864257812 764.209960938 373.83203125 749.880859375 380.219726562 c 1
EndSplineSet
EndChar

StartChar: glyph14
Encoding: 270 57614 14
Width: 1021
VWidth: 0
Flags: HW
LayerCount: 2
Fore
SplineSet
375.462890625 823.67578125 m 0
 443.724609375 796.337890625 422.423828125 715.375 402.63671875 662.900390625 c 0
 378.57421875 579.900390625 357.299804688 494.38671875 338.849609375 409.961914062 c 0
 333.778320312 385.6484375 328.659179688 361.270507812 323.618164062 336.837890625 c 0
 323.756835938 336.141601562 323.892578125 335.4375 324.024414062 334.725585938 c 0
 342.712890625 250.112304688 342.51171875 114.875 418.237304688 63.44921875 c 1
 442.700195312 55.5751953125 470.69921875 54.900390625 497.224609375 52.8505859375 c 0
 575.861328125 49.599609375 656.450195312 51.0498046875 733.986328125 63.5625 c 0
 751.818359375 66.55078125 771.709960938 72.0205078125 783.044921875 78.265625 c 1
 791.956054688 94.775390625 794.4453125 112.4765625 796.899414062 132.587890625 c 0
 802.8125 192.9375 797.962890625 258.637695312 794.099609375 323.100585938 c 0
 793.673828125 330.25 799.125 336.387695312 806.26171875 336.8125 c 0
 812.137695312 337.163085938 817.337890625 333.525390625 819.237304688 328.25 c 0
 830.674804688 296.412109375 838.76171875 264.1875 844.912109375 231.025390625 c 0
 854.298828125 171.913085938 863.099609375 104.9375 835.25 47.73828125 c 0
 796.26171875 -25.775390625 475.336914062 -23.6376953125 400.200195312 0.61328125 c 1
 336.524414062 28.546875 307.469726562 93.7314453125 290.9765625 163.473632812 c 1
 282.65234375 111.788085938 275.987304688 59.9560546875 272.149414062 8.06640625 c 1
 279.911132812 -17.169921875 249.991210938 -46.7646484375 222.125 -25.4248046875 c 0
 157.899414062 33.19921875 19.2490234375 101.075195312 65.525390625 207.48828125 c 0
 85.3037109375 252.243164062 192.448242188 376.9375 263.458007812 389.26171875 c 1
 266.274414062 401.365234375 269.150390625 413.43359375 272.075195312 425.462890625 c 0
 294.13671875 512.149414062 316.724609375 599.012695312 351.787109375 681.712890625 c 0
 368.399414062 720.575195312 406.336914062 771.01171875 365.186523438 805.94921875 c 0
 355.662109375 812.950195312 364.649414062 828.487304688 375.462890625 823.67578125 c 0
882.787109375 380.219726562 m 1
 883.877929688 371.811523438 882.456054688 365.1640625 875.899414062 364.462890625 c 0
 872.94921875 364.350585938 870.349609375 365.975585938 869.05078125 368.413085938 c 0
 865.02734375 376.928710938 859.651367188 384.484375 853.318359375 390.817382812 c 0
 828.103515625 397.723632812 799.047851562 399.244140625 770.94921875 399.587890625 c 0
 763.673828125 400.663085938 764.0625 399.150390625 753.474609375 404.61328125 c 0
 745.575195312 409.5 740.212890625 419.711914062 741.8125 429.825195312 c 0
 748.469726562 461.661132812 795.494140625 459.797851562 822.413085938 451.602539062 c 0
 840.35546875 451.05859375 858.553710938 448.606445312 876.825195312 442.8125 c 0
 907.17578125 433.587890625 933.799804688 416.987304688 955.69921875 397.461914062 c 0
 966.037109375 388.237304688 966.94921875 372.375 957.724609375 362.037109375 c 0
 949.5 352.8125 935.974609375 351.112304688 925.837890625 357.362304688 c 0
 911.288085938 365.86328125 897.116210938 373.83203125 882.787109375 380.219726562 c 1
210.135742188 56.31640625 m 1
 211.142578125 74.2138671875 212.688476562 91.9208984375 214.474609375 109.525390625 c 0
 221.692382812 179.583984375 233.513671875 249.71484375 247.946289062 319.032226562 c 1
 225.41796875 306.606445312 204.02734375 288.78125 183.51171875 271.662109375 c 0
 160.287109375 251.075195312 137.586914062 228.637695312 120.775390625 204.424804688 c 0
 78.1875 153.0625 133.974609375 110.262695312 177.3125 78.974609375 c 0
 187.965820312 71.2509765625 198.944335938 63.724609375 210.135742188 56.31640625 c 1
782.940429688 78.072265625 m 1
 782.725585938 77.7626953125 782.536132812 77.337890625 782.537109375 77.337890625 c 0
 782.672851562 77.58203125 782.807617188 77.8271484375 782.940429688 78.072265625 c 1
EndSplineSet
EndChar

StartChar: glyph15
Encoding: 271 57615 15
Width: 705
VWidth: 0
Flags: HW
LayerCount: 2
Fore
SplineSet
226.4921875 823.67578125 m 0
 294.75390625 796.337890625 273.453125 715.375 253.666015625 662.900390625 c 0
 229.603515625 579.900390625 208.329101562 494.38671875 189.87890625 409.961914062 c 0
 163.926757812 285.541992188 136.715820312 159.428710938 125.225585938 32.888671875 c 1
 134.834960938 33.150390625 144.360351562 33.2490234375 153.822265625 33.216796875 c 0
 153.88671875 34.0283203125 153.951171875 34.8388671875 154.015625 35.6494140625 c 0
 162.627929688 125.913085938 176.203125 215.724609375 203.140625 303.012695312 c 0
 232.954101562 403.05078125 283.3671875 448.1875 370.590820312 364.663085938 c 0
 436.103515625 297.225585938 479.454101562 215.975585938 519.666992188 132.3125 c 0
 535.590820312 94.212890625 566.215820312 33.1630859375 523.653320312 2.037109375 c 0
 501.016601562 -14.212890625 474.00390625 -17.80078125 448.9921875 -21.025390625 c 0
 386.728515625 -26.88671875 327.315429688 -24.67578125 267.978515625 -23.8125 c 0
 242.8984375 -23.5107421875 217.209960938 -23.0419921875 191.60546875 -23.4091796875 c 1
 190.09375 -34.544921875 188.68359375 -45.681640625 187.37890625 -56.8125 c 0
 185.091796875 -84.0625 180.840820312 -113.950195312 186.153320312 -140.375 c 0
 190.416015625 -157.163085938 165.94140625 -165.412109375 159.266601562 -149.287109375 c 0
 155.353515625 -139.775390625 154.00390625 -131.825195312 152.704101562 -123.82421875 c 0
 148.645507812 -90.95703125 148.498046875 -57.8876953125 149.977539062 -24.9140625 c 1
 131.4453125 -26.06640625 113.159179688 -27.9599609375 95.3916015625 -30.9873046875 c 0
 67.90234375 -35.1806640625 54.4736328125 -10.3427734375 59.9580078125 9.205078125 c 1
 59.6689453125 43.3896484375 62.166015625 76.63671875 65.50390625 109.525390625 c 0
 76.44140625 215.69921875 97.9541015625 322.037109375 123.104492188 425.462890625 c 0
 145.166015625 512.149414062 167.75390625 599.012695312 202.81640625 681.712890625 c 0
 219.428710938 720.575195312 257.365234375 771.01171875 216.215820312 805.94921875 c 0
 206.690429688 812.950195312 215.678710938 828.487304688 226.4921875 823.67578125 c 0
566.428710938 380.219726562 m 1
 567.51953125 371.811523438 566.09765625 365.1640625 559.541015625 364.462890625 c 0
 556.591796875 364.350585938 553.9921875 365.975585938 552.69140625 368.413085938 c 0
 548.66796875 376.928710938 543.291992188 384.484375 536.958984375 390.817382812 c 0
 511.744140625 397.723632812 482.690429688 399.244140625 454.590820312 399.587890625 c 0
 447.315429688 400.663085938 447.704101562 399.150390625 437.1171875 404.61328125 c 0
 429.216796875 409.5 423.853515625 419.711914062 425.454101562 429.825195312 c 0
 432.111328125 461.661132812 479.134765625 459.797851562 506.0546875 451.602539062 c 0
 523.997070312 451.05859375 542.194335938 448.606445312 560.466796875 442.8125 c 0
 590.81640625 433.587890625 617.44140625 416.987304688 639.340820312 397.461914062 c 0
 649.678710938 388.237304688 650.590820312 372.375 641.366210938 362.037109375 c 0
 633.140625 352.8125 619.6171875 351.112304688 609.478515625 357.362304688 c 0
 594.928710938 365.864257812 580.756835938 373.83203125 566.428710938 380.219726562 c 1
291.540039062 346.5390625 m 1
 291.588867188 346.569335938 291.616210938 346.586914062 291.616210938 346.586914062 c 1
 291.592773438 346.573242188 291.567382812 346.557617188 291.540039062 346.5390625 c 1
290.1484375 345.2734375 m 0
 288.640625 343.719726562 286.3515625 340.989257812 284.354492188 337.836914062 c 0
 259.94140625 296.48828125 248.291015625 248.125 235.303710938 201.400390625 c 0
 221.361328125 145.825195312 209.416015625 89.130859375 199.98046875 32.142578125 c 1
 252.657226562 30.013671875 304.254882812 25.37109375 358.204101562 24.0380859375 c 0
 404.204101562 24.1875 455.50390625 18.3125 496.515625 38.3994140625 c 0
 501.3671875 42.58984375 500.186523438 41.724609375 500.127929688 47.6376953125 c 0
 485.31640625 126.6875 435.116210938 196.512695312 386.241210938 258.974609375 c 0
 358.3359375 290.739257812 326.819335938 330.703125 290.1484375 345.2734375 c 0
EndSplineSet
EndChar

StartChar: glyph16
Encoding: 272 57616 16
Width: 837
VWidth: 0
Flags: HW
LayerCount: 2
Fore
SplineSet
226.556640625 823.67578125 m 0
 294.818359375 796.337890625 273.517578125 715.375 253.73046875 662.900390625 c 0
 229.66796875 579.900390625 208.393554688 494.38671875 189.943359375 409.961914062 c 0
 163.62109375 283.764648438 136.002929688 155.825195312 124.807617188 27.46484375 c 1
 247.29296875 12.0556640625 467.79296875 -20.8310546875 534.994140625 74.98828125 c 1
 591.16796875 144.92578125 576.443359375 211.63671875 556.943359375 292.26171875 c 0
 556.16796875 298.650390625 555.243164062 304.162109375 556.630859375 311.913085938 c 0
 559.15625 330.575195312 581.21875 344.174804688 599.168945312 336.712890625 c 0
 613.29296875 331.836914062 622.193359375 315.94921875 628.568359375 305.775390625 c 0
 679.693359375 217.875 747.40625 19.4375 638.53125 -47.73828125 c 0
 629.142578125 -52.875 618.630859375 -41.4248046875 624.255859375 -32.5244140625 c 0
 653.137695312 24.7919921875 643.8046875 100.12890625 620.330078125 170.20703125 c 1
 610.850585938 40.3466796875 552.67578125 -43.087890625 373.643554688 -52.974609375 c 0
 275.430664062 -58.73828125 179.60546875 -45.9873046875 87.01953125 -30.94921875 c 0
 75.560546875 -29.1884765625 66.5185546875 -21.40625 62.6103515625 -11.3232421875 c 0
 61.130859375 -7.8134765625 60.2734375 -3.9931640625 60.16796875 -0.01171875 c 0
 59.29296875 37.42578125 61.931640625 73.6875 65.568359375 109.525390625 c 0
 76.505859375 215.69921875 98.0185546875 322.037109375 123.168945312 425.462890625 c 0
 145.23046875 512.149414062 167.818359375 599.012695312 202.880859375 681.712890625 c 0
 219.493164062 720.575195312 257.430664062 771.01171875 216.280273438 805.94921875 c 0
 206.755859375 812.950195312 215.743164062 828.487304688 226.556640625 823.67578125 c 0
698.393554688 380.2109375 m 1
 699.485351562 371.80078125 698.063476562 365.151367188 691.505859375 364.44921875 c 0
 688.555664062 364.336914062 685.956054688 365.961914062 684.65625 368.399414062 c 0
 680.630859375 376.922851562 675.252929688 384.483398438 668.916015625 390.819335938 c 0
 643.703125 397.723632812 614.651367188 399.244140625 586.556640625 399.587890625 c 0
 579.28125 400.663085938 579.66796875 399.150390625 569.081054688 404.61328125 c 0
 561.180664062 409.5 555.818359375 419.711914062 557.41796875 429.8125 c 0
 564.072265625 461.633789062 611.046875 459.787109375 637.979492188 451.6015625 c 0
 655.9453125 451.0546875 674.138671875 448.58984375 692.430664062 442.8125 c 0
 722.78125 433.587890625 749.405273438 416.987304688 771.306640625 397.461914062 c 0
 781.642578125 388.237304688 782.556640625 372.375 773.331054688 362.025390625 c 0
 765.106445312 352.80078125 751.581054688 351.099609375 741.443359375 357.349609375 c 0
 726.89453125 365.8515625 712.721679688 373.819335938 698.393554688 380.2109375 c 1
EndSplineSet
EndChar

StartChar: glyph17
Encoding: 273 57617 17
Width: 862
VWidth: 0
Flags: HW
LayerCount: 2
Fore
SplineSet
630.318359375 646.899414062 m 0
 590.29296875 618.086914062 547.005859375 605.30078125 502.255859375 588.650390625 c 0
 493.376953125 585.59765625 484.323242188 582.583984375 475.140625 579.608398438 c 1
 509.8046875 577.38671875 544.442382812 573.986328125 579.15625 569.375 c 0
 625.392578125 561.662109375 674.568359375 558.587890625 716.680664062 534.38671875 c 0
 737.231445312 522.400390625 745.943359375 490.162109375 719.481445312 475.262695312 c 0
 705.692382812 467.961914062 688.91015625 472.0234375 679.8515625 484.141601562 c 1
 646.600585938 501.1484375 607.250976562 506.873046875 570.318359375 515.07421875 c 0
 526.043945312 523.575195312 481.043945312 530.462890625 435.981445312 537.25 c 0
 412.490234375 540.641601562 388.944335938 543.94921875 365.3515625 546.859375 c 1
 343.938476562 540.862304688 322.76171875 535.080078125 302.34375 529.525390625 c 0
 271.973632812 521.653320312 243.201171875 514.208984375 213.04296875 509.952148438 c 1
 204.907226562 476.599609375 197.20703125 443.196289062 189.943359375 409.961914062 c 0
 181.67578125 370.32421875 173.280273438 330.514648438 165.305664062 290.575195312 c 1
 180.962890625 306.536132812 198.607421875 320.823242188 218.393554688 333 c 0
 309.081054688 390.5625 423.65625 407.788085938 527.494140625 382.25 c 0
 639.318359375 355.825195312 733.255859375 262.075195312 722.34375 140.724609375 c 0
 721.962890625 132.258789062 720.916015625 123.64453125 719.23828125 115.022460938 c 1
 753.529296875 87.6865234375 781.458007812 52.4814453125 798.89453125 11.1875 c 0
 815.518554688 -28.8623046875 755.79296875 -52.5 740.681640625 -11.6123046875 c 0
 732.21875 15.7373046875 717.91015625 39.6669921875 699.524414062 59.806640625 c 1
 679.366210938 22.1806640625 646.836914062 -8.791015625 605.493164062 -18.42578125 c 0
 531.581054688 -39.125 410.630859375 -30.4375 357.130859375 31.6005859375 c 0
 338.89453125 52.6875 342.305664062 89.875 358.744140625 111.375 c 0
 401.09375 167.48828125 473.744140625 179.599609375 538.868164062 178.912109375 c 0
 581.762695312 178.725585938 624.411132812 168.594726562 663.005859375 150.161132812 c 1
 664.095703125 217.112304688 621.798828125 274.978515625 561.043945312 303.163085938 c 0
 450.493164062 355.487304688 297.118164062 336.6875 208.055664062 251.049804688 c 0
 172.696289062 216.955078125 149.79296875 174.381835938 136.629882812 127.96875 c 1
 130.454101562 85.376953125 125.583007812 42.7001953125 122.66796875 -0.01171875 c 0
 122.662109375 -0.259765625 122.653320312 -0.5068359375 122.641601562 -0.7529296875 c 0
 122.127929688 -42.6640625 60.056640625 -42.7080078125 60.14453125 0 c 0
 60.14453125 0.193359375 60.1552734375 0.38671875 60.1552734375 0.580078125 c 0
 59.3212890625 37.80859375 61.9501953125 73.876953125 65.568359375 109.525390625 c 0
 76.505859375 215.69921875 98.0185546875 322.037109375 123.168945312 425.462890625 c 0
 130.12890625 452.810546875 137.141601562 480.17578125 144.581054688 507.421875 c 1
 138.731445312 508.177734375 132.609375 509.435546875 126.943359375 511.586914062 c 0
 116.831054688 514.024414062 111.518554688 534.799804688 116.15625 544.512695312 c 0
 118.41796875 549.837890625 119.643554688 551.850585938 121.306640625 556.724609375 c 0
 124.91796875 563.587890625 129.35546875 565.762695312 132.78125 567.80078125 c 0
 143.083007812 572.104492188 153.809570312 574.823242188 164.7265625 576.614257812 c 1
 175.858398438 612.159179688 188.2890625 647.296875 202.880859375 681.712890625 c 0
 219.493164062 720.575195312 257.430664062 771.01171875 216.280273438 805.94921875 c 0
 206.755859375 812.950195312 215.743164062 828.487304688 226.556640625 823.67578125 c 0
 294.818359375 796.337890625 273.517578125 715.375 253.73046875 662.900390625 c 0
 246.407226562 637.639648438 239.341796875 612.145507812 232.536132812 586.520507812 c 1
 317.306640625 601.4765625 402.362304688 623.073242188 486.244140625 643.711914062 c 0
 531.10546875 653.662109375 576.48046875 666.3125 622.16796875 669.100585938 c 0
 634.081054688 670.262695312 640.080078125 653.637695312 630.318359375 646.899414062 c 0
680.37109375 483.875 m 1
 680.912109375 483.362304688 681.043945312 483.525390625 681.043945312 483.525390625 c 0
 680.819335938 483.642578125 680.595703125 483.758789062 680.37109375 483.875 c 1
653.9140625 97.4091796875 m 1
 588.825195312 137.715820312 501.999023438 146.51953125 431.680664062 115.825195312 c 0
 410.40625 105.674804688 390.619140625 91.7373046875 386.85546875 69.849609375 c 0
 387.380859375 50.412109375 410.994140625 40.412109375 430.643554688 32.1875 c 0
 480.09375 14.9501953125 539.818359375 13.2373046875 589.767578125 30.099609375 c 0
 623.493164062 40.8662109375 643.48046875 66.576171875 653.9140625 97.4091796875 c 1
EndSplineSet
EndChar

StartChar: glyph18
Encoding: 274 57618 18
Width: 820
VWidth: 0
Flags: HW
LayerCount: 2
Fore
SplineSet
630.318359375 646.899414062 m 0
 590.29296875 618.086914062 547.005859375 605.30078125 502.255859375 588.650390625 c 0
 493.376953125 585.59765625 484.323242188 582.583984375 475.140625 579.608398438 c 1
 509.8046875 577.38671875 544.442382812 573.986328125 579.15625 569.375 c 0
 625.392578125 561.662109375 674.568359375 558.587890625 716.680664062 534.38671875 c 0
 737.231445312 522.400390625 745.943359375 490.162109375 719.481445312 475.262695312 c 0
 705.692382812 467.961914062 688.91015625 472.0234375 679.8515625 484.141601562 c 1
 646.600585938 501.1484375 607.250976562 506.873046875 570.318359375 515.07421875 c 0
 526.043945312 523.575195312 481.043945312 530.462890625 435.981445312 537.25 c 0
 412.490234375 540.641601562 388.944335938 543.94921875 365.3515625 546.859375 c 1
 343.938476562 540.862304688 322.76171875 535.080078125 302.34375 529.525390625 c 0
 271.973632812 521.653320312 243.201171875 514.208984375 213.04296875 509.952148438 c 1
 204.907226562 476.599609375 197.20703125 443.196289062 189.943359375 409.961914062 c 0
 182.494140625 374.248046875 174.94140625 338.39453125 167.685546875 302.431640625 c 1
 179.744140625 314.28125 193.04296875 325.1640625 207.693359375 334.887695312 c 0
 366.40625 442.8125 625.880859375 406.6875 711.71875 222.599609375 c 0
 760.28125 116.025390625 733.231445312 -1.01171875 603.04296875 -18.6875 c 0
 513.53125 -30.125 404.731445312 -2.962890625 343.380859375 66.099609375 c 0
 333.467773438 78.5 351.493164062 94.13671875 362.35546875 82.662109375 c 0
 399.994140625 44.6630859375 460.356445312 27.900390625 513.09375 22.48828125 c 0
 564.255859375 18.1630859375 618.58203125 26.8994140625 655.893554688 63.13671875 c 0
 684.643554688 96.80078125 675.45703125 156.80078125 655.731445312 196.23828125 c 0
 609.744140625 292.612304688 495.068359375 339.862304688 391.54296875 333.037109375 c 0
 281.39453125 329.950195312 182.869140625 268.974609375 145.643554688 163.075195312 c 0
 143.096679688 156.065429688 140.77734375 148.954101562 138.674804688 141.756835938 c 0
 131.528320312 94.5888671875 125.897460938 47.310546875 122.66796875 -0.01171875 c 0
 122.66796875 -0.0673828125 122.6640625 -0.123046875 122.6640625 -0.177734375 c 0
 122.6640625 -0.21875 122.66796875 -0.259765625 122.66796875 -0.30078125 c 0
 122.831054688 -43.1748046875 59.7060546875 -43.13671875 60.15625 0 c 0
 60.15625 0.076171875 60.1630859375 0.15234375 60.1630859375 0.228515625 c 0
 59.3046875 37.5810546875 61.9384765625 73.7646484375 65.568359375 109.525390625 c 0
 76.505859375 215.69921875 98.0185546875 322.037109375 123.168945312 425.462890625 c 0
 130.12890625 452.810546875 137.141601562 480.17578125 144.581054688 507.421875 c 1
 138.731445312 508.177734375 132.609375 509.435546875 126.943359375 511.586914062 c 0
 116.831054688 514.024414062 111.518554688 534.799804688 116.15625 544.512695312 c 0
 118.41796875 549.837890625 119.643554688 551.850585938 121.306640625 556.724609375 c 0
 124.91796875 563.587890625 129.35546875 565.762695312 132.78125 567.80078125 c 0
 143.083007812 572.104492188 153.809570312 574.823242188 164.7265625 576.614257812 c 1
 175.858398438 612.159179688 188.2890625 647.296875 202.880859375 681.712890625 c 0
 219.493164062 720.575195312 257.430664062 771.01171875 216.280273438 805.94921875 c 0
 206.755859375 812.950195312 215.743164062 828.487304688 226.556640625 823.67578125 c 0
 294.818359375 796.337890625 273.517578125 715.375 253.73046875 662.900390625 c 0
 246.407226562 637.639648438 239.341796875 612.145507812 232.536132812 586.520507812 c 1
 317.306640625 601.4765625 402.362304688 623.073242188 486.244140625 643.711914062 c 0
 531.10546875 653.662109375 576.48046875 666.3125 622.16796875 669.100585938 c 0
 634.081054688 670.262695312 640.080078125 653.637695312 630.318359375 646.899414062 c 0
680.37109375 483.875 m 1
 680.912109375 483.362304688 681.043945312 483.525390625 681.043945312 483.525390625 c 0
 680.819335938 483.642578125 680.595703125 483.758789062 680.37109375 483.875 c 1
EndSplineSet
EndChar

StartChar: glyph19
Encoding: 275 57619 19
Width: 953
VWidth: 0
Flags: HW
LayerCount: 2
Fore
SplineSet
779.224609375 646.899414062 m 0
 739.19921875 618.086914062 695.912109375 605.30078125 651.162109375 588.650390625 c 0
 642.283203125 585.59765625 633.229492188 582.583984375 624.046875 579.608398438 c 1
 658.7109375 577.38671875 693.348632812 573.986328125 728.0625 569.375 c 0
 774.298828125 561.662109375 823.474609375 558.587890625 865.586914062 534.38671875 c 0
 886.137695312 522.400390625 894.849609375 490.162109375 868.387695312 475.262695312 c 0
 854.598632812 467.961914062 837.81640625 472.0234375 828.7578125 484.141601562 c 1
 795.506835938 501.1484375 756.157226562 506.873046875 719.224609375 515.07421875 c 0
 674.950195312 523.575195312 629.950195312 530.462890625 584.887695312 537.25 c 0
 561.396484375 540.641601562 537.850585938 543.94921875 514.2578125 546.859375 c 1
 492.844726562 540.862304688 471.66796875 535.080078125 451.25 529.525390625 c 0
 420.879882812 521.653320312 392.107421875 514.208984375 361.94921875 509.952148438 c 1
 353.813476562 476.599609375 346.11328125 443.196289062 338.849609375 409.961914062 c 0
 333.778320312 385.6484375 328.659179688 361.270507812 323.618164062 336.837890625 c 0
 323.756835938 336.141601562 323.892578125 335.4375 324.024414062 334.725585938 c 0
 342.712890625 250.112304688 342.51171875 114.875 418.237304688 63.44921875 c 1
 442.700195312 55.5751953125 470.69921875 54.900390625 497.224609375 52.8505859375 c 0
 575.861328125 49.599609375 656.450195312 51.0498046875 733.986328125 63.5625 c 0
 751.818359375 66.55078125 771.709960938 72.0205078125 783.044921875 78.265625 c 1
 791.956054688 94.775390625 794.4453125 112.4765625 796.899414062 132.587890625 c 0
 802.8125 192.9375 797.962890625 258.637695312 794.099609375 323.100585938 c 0
 793.673828125 330.25 799.125 336.387695312 806.26171875 336.8125 c 0
 812.137695312 337.163085938 817.337890625 333.525390625 819.237304688 328.25 c 0
 830.674804688 296.412109375 838.76171875 264.1875 844.912109375 231.025390625 c 0
 854.298828125 171.913085938 863.099609375 104.9375 835.25 47.73828125 c 0
 796.26171875 -25.775390625 475.336914062 -23.6376953125 400.200195312 0.61328125 c 1
 336.524414062 28.546875 307.469726562 93.7314453125 290.9765625 163.473632812 c 1
 282.653320312 111.791015625 275.987304688 59.962890625 272.150390625 8.0771484375 c 1
 279.909179688 -17.1591796875 249.990234375 -46.7509765625 222.125 -25.412109375 c 0
 157.899414062 33.19921875 19.2490234375 101.075195312 65.525390625 207.48828125 c 0
 85.3037109375 252.243164062 192.448242188 376.9375 263.458007812 389.26171875 c 1
 266.274414062 401.365234375 269.150390625 413.43359375 272.075195312 425.462890625 c 0
 279.03515625 452.810546875 286.047851562 480.17578125 293.487304688 507.421875 c 1
 287.637695312 508.177734375 281.515625 509.435546875 275.849609375 511.586914062 c 0
 265.737304688 514.024414062 260.424804688 534.799804688 265.0625 544.512695312 c 0
 267.32421875 549.837890625 268.549804688 551.850585938 270.212890625 556.724609375 c 0
 273.82421875 563.587890625 278.26171875 565.762695312 281.6875 567.80078125 c 0
 291.989257812 572.104492188 302.715820312 574.823242188 313.6328125 576.614257812 c 1
 324.764648438 612.159179688 337.1953125 647.296875 351.787109375 681.712890625 c 0
 368.399414062 720.575195312 406.336914062 771.01171875 365.186523438 805.94921875 c 0
 355.662109375 812.950195312 364.649414062 828.487304688 375.462890625 823.67578125 c 0
 443.724609375 796.337890625 422.423828125 715.375 402.63671875 662.900390625 c 0
 395.313476562 637.639648438 388.248046875 612.145507812 381.442382812 586.520507812 c 1
 466.212890625 601.4765625 551.268554688 623.073242188 635.150390625 643.711914062 c 0
 680.01171875 653.662109375 725.38671875 666.3125 771.07421875 669.100585938 c 0
 782.987304688 670.262695312 788.986328125 653.637695312 779.224609375 646.899414062 c 0
829.27734375 483.875 m 1
 829.818359375 483.362304688 829.950195312 483.525390625 829.950195312 483.525390625 c 0
 829.725585938 483.642578125 829.501953125 483.758789062 829.27734375 483.875 c 1
210.13671875 56.328125 m 1
 211.143554688 74.22265625 212.688476562 91.9248046875 214.474609375 109.525390625 c 0
 221.692382812 179.583984375 233.513671875 249.71484375 247.946289062 319.032226562 c 1
 225.41796875 306.606445312 204.02734375 288.78125 183.51171875 271.662109375 c 0
 160.287109375 251.075195312 137.586914062 228.637695312 120.775390625 204.424804688 c 0
 78.1875 153.0625 133.974609375 110.262695312 177.3125 78.98828125 c 0
 187.965820312 71.263671875 198.9453125 63.7373046875 210.13671875 56.328125 c 1
782.940429688 78.072265625 m 1
 782.725585938 77.7626953125 782.536132812 77.337890625 782.537109375 77.337890625 c 0
 782.672851562 77.58203125 782.807617188 77.8271484375 782.940429688 78.072265625 c 1
EndSplineSet
EndChar

StartChar: glyph20
Encoding: 276 57620 20
Width: 800
VWidth: 0
Flags: HW
LayerCount: 2
Fore
SplineSet
630.249023438 646.899414062 m 0
 590.223632812 618.086914062 546.935546875 605.30078125 502.186523438 588.650390625 c 0
 493.307617188 585.59765625 484.25390625 582.583984375 475.071289062 579.608398438 c 1
 509.735351562 577.38671875 544.373046875 573.986328125 579.086914062 569.375 c 0
 625.323242188 561.662109375 674.498046875 558.587890625 716.611328125 534.38671875 c 0
 737.162109375 522.400390625 745.874023438 490.162109375 719.412109375 475.262695312 c 0
 705.623046875 467.961914062 688.840820312 472.0234375 679.782226562 484.141601562 c 1
 646.53125 501.1484375 607.180664062 506.873046875 570.249023438 515.07421875 c 0
 525.974609375 523.575195312 480.974609375 530.462890625 435.912109375 537.25 c 0
 412.420898438 540.641601562 388.875 543.94921875 365.282226562 546.859375 c 1
 343.869140625 540.862304688 322.692382812 535.080078125 302.274414062 529.525390625 c 0
 271.904296875 521.653320312 243.131835938 514.208984375 212.973632812 509.952148438 c 1
 204.837890625 476.599609375 197.13671875 443.196289062 189.874023438 409.961914062 c 0
 163.921875 285.541992188 136.7109375 159.428710938 125.220703125 32.888671875 c 1
 134.830078125 33.150390625 144.35546875 33.2490234375 153.817382812 33.216796875 c 0
 153.881835938 34.0283203125 153.946289062 34.8388671875 154.01171875 35.6494140625 c 0
 162.623046875 125.92578125 176.19921875 215.724609375 203.135742188 303.012695312 c 0
 232.94921875 403.05078125 283.361328125 448.1875 370.5859375 364.663085938 c 0
 436.098632812 297.225585938 479.44921875 215.987304688 519.662109375 132.3125 c 0
 535.5859375 94.212890625 566.2109375 33.1630859375 523.6484375 2.037109375 c 0
 501.01171875 -14.212890625 473.999023438 -17.8125 448.986328125 -21.025390625 c 0
 386.723632812 -26.88671875 327.310546875 -24.67578125 267.973632812 -23.8125 c 0
 242.893554688 -23.5107421875 217.205078125 -23.0419921875 191.600585938 -23.4091796875 c 1
 190.088867188 -34.544921875 188.678710938 -45.681640625 187.374023438 -56.8125 c 0
 185.086914062 -84.0625 180.8359375 -113.950195312 186.1484375 -140.375 c 0
 190.411132812 -157.149414062 165.923828125 -165.412109375 159.26171875 -149.287109375 c 0
 155.349609375 -139.775390625 153.999023438 -131.825195312 152.69921875 -123.82421875 c 0
 148.640625 -90.955078125 148.493164062 -57.888671875 149.973632812 -24.9140625 c 1
 131.440429688 -26.06640625 113.154296875 -27.9599609375 95.38671875 -30.9873046875 c 0
 67.9111328125 -35.1796875 54.48046875 -10.3525390625 59.953125 9.193359375 c 1
 59.6640625 43.3818359375 62.16015625 76.6328125 65.4990234375 109.525390625 c 0
 76.4365234375 215.69921875 97.94921875 322.037109375 123.099609375 425.462890625 c 0
 130.059570312 452.810546875 137.071289062 480.17578125 144.51171875 507.421875 c 1
 138.662109375 508.177734375 132.540039062 509.435546875 126.874023438 511.586914062 c 0
 116.76171875 514.024414062 111.44921875 534.799804688 116.0859375 544.512695312 c 0
 118.348632812 549.837890625 119.57421875 551.850585938 121.236328125 556.724609375 c 0
 124.848632812 563.587890625 129.286132812 565.762695312 132.7109375 567.80078125 c 0
 143.012695312 572.104492188 153.740234375 574.823242188 164.657226562 576.614257812 c 1
 175.7890625 612.159179688 188.219726562 647.296875 202.811523438 681.712890625 c 0
 219.423828125 720.575195312 257.361328125 771.01171875 216.2109375 805.94921875 c 0
 206.685546875 812.950195312 215.673828125 828.487304688 226.486328125 823.67578125 c 0
 294.748046875 796.337890625 273.448242188 715.375 253.661132812 662.900390625 c 0
 246.337890625 637.639648438 239.272460938 612.145507812 232.466796875 586.520507812 c 1
 317.237304688 601.4765625 402.29296875 623.073242188 486.173828125 643.711914062 c 0
 531.036132812 653.662109375 576.411132812 666.3125 622.098632812 669.100585938 c 0
 634.01171875 670.262695312 640.010742188 653.637695312 630.249023438 646.899414062 c 0
680.30078125 483.875 m 1
 680.842773438 483.362304688 680.974609375 483.525390625 680.974609375 483.525390625 c 0
 680.75 483.642578125 680.525390625 483.758789062 680.30078125 483.875 c 1
291.53515625 346.5390625 m 1
 291.583984375 346.569335938 291.611328125 346.586914062 291.611328125 346.586914062 c 1
 291.587890625 346.573242188 291.5625 346.557617188 291.53515625 346.5390625 c 1
290.143554688 345.2734375 m 0
 288.635742188 343.719726562 286.346679688 340.989257812 284.349609375 337.836914062 c 0
 259.936523438 296.48828125 248.286132812 248.125 235.298828125 201.387695312 c 0
 221.356445312 145.81640625 209.412109375 89.1240234375 199.977539062 32.142578125 c 1
 252.653320312 30.013671875 304.25 25.37109375 358.19921875 24.0380859375 c 0
 404.19921875 24.1875 455.499023438 18.3125 496.51171875 38.3994140625 c 0
 501.362304688 42.58984375 500.181640625 41.724609375 500.123046875 47.6376953125 c 0
 485.311523438 126.674804688 435.111328125 196.512695312 386.236328125 258.974609375 c 0
 358.331054688 290.739257812 326.814453125 330.703125 290.143554688 345.2734375 c 0
EndSplineSet
EndChar

StartChar: glyph21
Encoding: 277 57621 21
Width: 877
VWidth: 0
Flags: HW
LayerCount: 2
Fore
SplineSet
630.318359375 646.899414062 m 0
 590.29296875 618.086914062 547.005859375 605.30078125 502.255859375 588.650390625 c 0
 493.376953125 585.59765625 484.323242188 582.583984375 475.140625 579.608398438 c 1
 509.8046875 577.38671875 544.442382812 573.986328125 579.15625 569.375 c 0
 625.392578125 561.662109375 674.568359375 558.587890625 716.680664062 534.38671875 c 0
 737.231445312 522.400390625 745.943359375 490.162109375 719.481445312 475.262695312 c 0
 705.692382812 467.961914062 688.91015625 472.0234375 679.8515625 484.141601562 c 1
 646.600585938 501.1484375 607.250976562 506.873046875 570.318359375 515.07421875 c 0
 526.043945312 523.575195312 481.043945312 530.462890625 435.981445312 537.25 c 0
 412.490234375 540.641601562 388.944335938 543.94921875 365.3515625 546.859375 c 1
 343.938476562 540.862304688 322.76171875 535.080078125 302.34375 529.525390625 c 0
 271.973632812 521.653320312 243.201171875 514.208984375 213.04296875 509.952148438 c 1
 204.907226562 476.599609375 197.20703125 443.196289062 189.943359375 409.961914062 c 0
 163.650390625 283.907226562 136.065429688 156.114257812 124.845703125 27.900390625 c 1
 216.400390625 18.7578125 311.336914062 15.5673828125 391.630859375 59.212890625 c 0
 463.793945312 98.9375 489.081054688 188 456.70703125 263.75 c 0
 448.331054688 290.262695312 431.568359375 313.5625 430.106445312 343.25 c 0
 430.418945312 348.774414062 432.35546875 356.26171875 436.70703125 361.625 c 0
 438.89453125 364.038085938 439.142578125 365.6875 446.943359375 370.450195312 c 0
 454.930664062 374.275390625 457.181640625 373.8125 461.10546875 374.212890625 c 0
 466.568359375 374.174804688 467.930664062 373.76171875 471.443359375 372.850585938 c 0
 478.155273438 370.63671875 479.193359375 369.537109375 481.40625 368.42578125 c 0
 507.118164062 351.6875 526.993164062 331.474609375 548.706054688 311.162109375 c 0
 584.442382812 274.944335938 632.250976562 225.408203125 670.510742188 171.118164062 c 1
 715.813476562 188.744140625 763.579101562 200.725585938 806.255859375 210.737304688 c 0
 818.806640625 213.487304688 824.130859375 194.474609375 811.606445312 190.575195312 c 0
 781.384765625 180.454101562 734.736328125 164.495117188 689.07421875 143.084960938 c 1
 719.34765625 94.09375 739.377929688 42.5478515625 734.418945312 -5.712890625 c 0
 719.943359375 -88.1875 604.868164062 -123.837890625 540.71875 -71.8994140625 c 0
 502.33203125 -44.9501953125 492.15625 14.30078125 515.193359375 53.3994140625 c 0
 537.895507812 92.69921875 572.77734375 121.931640625 613.038085938 144.403320312 c 1
 600.959960938 160.151367188 588.48828125 175.310546875 576.642578125 189.737304688 c 0
 554.954101562 214.421875 532.559570312 239.481445312 508.909179688 263.051757812 c 1
 511.16796875 248.822265625 513.022460938 234.419921875 514.443359375 219.92578125 c 0
 549.53125 -33.900390625 273.505859375 -65.0498046875 87.005859375 -30.9130859375 c 0
 75.42578125 -28.78515625 67.9013671875 -22.30859375 64.0498046875 -14.2958984375 c 0
 61.69140625 -10.0166015625 60.3046875 -5.1474609375 60.16796875 -0.01171875 c 0
 59.29296875 37.42578125 61.931640625 73.6875 65.568359375 109.525390625 c 0
 76.505859375 215.69921875 98.0185546875 322.037109375 123.168945312 425.462890625 c 0
 130.12890625 452.810546875 137.141601562 480.17578125 144.581054688 507.421875 c 1
 138.731445312 508.177734375 132.609375 509.435546875 126.943359375 511.586914062 c 0
 116.831054688 514.024414062 111.518554688 534.799804688 116.15625 544.512695312 c 0
 118.41796875 549.837890625 119.643554688 551.850585938 121.306640625 556.724609375 c 0
 124.91796875 563.587890625 129.35546875 565.762695312 132.78125 567.80078125 c 0
 143.083007812 572.104492188 153.809570312 574.823242188 164.7265625 576.614257812 c 1
 175.858398438 612.159179688 188.2890625 647.296875 202.880859375 681.712890625 c 0
 219.493164062 720.575195312 257.430664062 771.01171875 216.280273438 805.94921875 c 0
 206.755859375 812.950195312 215.743164062 828.487304688 226.556640625 823.67578125 c 0
 294.818359375 796.337890625 273.517578125 715.375 253.73046875 662.900390625 c 0
 246.407226562 637.639648438 239.341796875 612.145507812 232.536132812 586.520507812 c 1
 317.306640625 601.4765625 402.362304688 623.073242188 486.244140625 643.711914062 c 0
 531.10546875 653.662109375 576.48046875 666.3125 622.16796875 669.100585938 c 0
 634.081054688 670.262695312 640.080078125 653.637695312 630.318359375 646.899414062 c 0
680.37109375 483.875 m 1
 680.912109375 483.362304688 681.043945312 483.525390625 681.043945312 483.525390625 c 0
 680.819335938 483.642578125 680.595703125 483.758789062 680.37109375 483.875 c 1
634.955078125 114.2421875 m 1
 583.40234375 82.568359375 544.040039062 42.9072265625 549.142578125 -4.0244140625 c 1
 558.943359375 -44.150390625 611.78125 -56.8369140625 646.619140625 -38.275390625 c 0
 670.180664062 -26.57421875 686.493164062 -8.8125 679.505859375 20.8251953125 c 0
 672.109375 53.0400390625 655.23046875 84.462890625 634.955078125 114.2421875 c 1
EndSplineSet
EndChar

StartChar: glyph22
Encoding: 278 57622 22
Width: 805
VWidth: 0
Flags: HW
LayerCount: 2
Fore
SplineSet
631.342773438 646.899414062 m 0
 591.317382812 618.086914062 548.029296875 605.30078125 503.280273438 588.650390625 c 0
 494.401367188 585.59765625 485.34765625 582.583984375 476.165039062 579.608398438 c 1
 510.829101562 577.38671875 545.466796875 573.986328125 580.180664062 569.375 c 0
 626.416992188 561.662109375 675.591796875 558.587890625 717.705078125 534.38671875 c 0
 738.255859375 522.400390625 746.967773438 490.162109375 720.505859375 475.262695312 c 0
 706.716796875 467.961914062 689.934570312 472.0234375 680.875976562 484.141601562 c 1
 647.625 501.1484375 608.274414062 506.873046875 571.342773438 515.07421875 c 0
 527.068359375 523.575195312 482.068359375 530.462890625 437.005859375 537.25 c 0
 413.514648438 540.641601562 389.96875 543.94921875 366.375976562 546.859375 c 1
 344.962890625 540.862304688 323.786132812 535.080078125 303.368164062 529.525390625 c 0
 272.998046875 521.653320312 244.225585938 514.208984375 214.067382812 509.952148438 c 1
 205.931640625 476.599609375 198.23046875 443.196289062 190.967773438 409.961914062 c 0
 164.654296875 283.80859375 137.045898438 155.913085938 125.842773438 27.59765625 c 1
 153.137695312 25.611328125 181.6484375 26.3388671875 208.98828125 26.85546875 c 1
 197.6796875 33.0166015625 186.791015625 40.7060546875 176.48046875 50.86328125 c 0
 144.442382812 88.4873046875 161.317382812 142.17578125 181.35546875 180.038085938 c 0
 218.305664062 245.55078125 281.192382812 298.51171875 360.35546875 303.275390625 c 0
 468.2421875 305.01171875 552.055664062 191.94921875 581.85546875 98.9248046875 c 0
 585.04296875 89.587890625 586.443359375 78.7001953125 583.091796875 69.13671875 c 0
 581.80859375 64.654296875 579.5078125 60.3623046875 576.29296875 56.2529296875 c 1
 587.432617188 61.505859375 590.21875 65.42578125 597.2421875 80.712890625 c 0
 610.592773438 115.594726562 620.22265625 156.159179688 624.43359375 195.73828125 c 0
 623.216796875 203.22265625 622.033203125 210.729492188 620.879882812 218.262695312 c 0
 617.979492188 242.475585938 612.205078125 266.899414062 615.904296875 291.80078125 c 0
 619.379882812 313.76171875 645.23046875 327.57421875 665.3046875 315.424804688 c 0
 696.536132812 295.924804688 696.134765625 228.45703125 685.813476562 165.368164062 c 1
 693.171875 99.01171875 703.401367188 32.603515625 709.530273438 -34.25 c 0
 710.642578125 -44.162109375 703.467773438 -53.11328125 693.54296875 -54.1748046875 c 0
 684.517578125 -55.150390625 676.330078125 -49.2626953125 674.155273438 -40.69921875 c 0
 666.616210938 -11.0654296875 659.61328125 18.611328125 653.071289062 48.4013671875 c 1
 613.734375 -33.626953125 491.498046875 -24.8359375 415.892578125 -21.7373046875 c 0
 394.732421875 -20.1044921875 373.7109375 -17.732421875 352.778320312 -14.458984375 c 1
 258.216796875 -27.0498046875 162.213867188 -31.5751953125 124.3671875 -32.5 c 0
 112.5546875 -32.4755859375 101.5546875 -32.6748046875 86.9052734375 -30.75 c 0
 64.546875 -27.1103515625 56.97265625 -7.927734375 61.0556640625 8.1953125 c 0
 60.708984375 42.7353515625 63.2216796875 76.3125 66.5927734375 109.525390625 c 0
 77.5302734375 215.69921875 99.04296875 322.037109375 124.193359375 425.462890625 c 0
 131.153320312 452.810546875 138.165039062 480.17578125 145.60546875 507.421875 c 1
 139.755859375 508.177734375 133.633789062 509.435546875 127.967773438 511.586914062 c 0
 117.85546875 514.024414062 112.54296875 534.799804688 117.1796875 544.512695312 c 0
 119.442382812 549.837890625 120.66796875 551.850585938 122.330078125 556.724609375 c 0
 125.942382812 563.587890625 130.379882812 565.762695312 133.8046875 567.80078125 c 0
 144.106445312 572.104492188 154.833984375 574.823242188 165.750976562 576.614257812 c 1
 176.8828125 612.159179688 189.313476562 647.296875 203.905273438 681.712890625 c 0
 220.517578125 720.575195312 258.455078125 771.01171875 217.3046875 805.94921875 c 0
 207.779296875 812.950195312 216.767578125 828.487304688 227.580078125 823.67578125 c 0
 295.841796875 796.337890625 274.541992188 715.375 254.754882812 662.900390625 c 0
 247.431640625 637.639648438 240.366210938 612.145507812 233.560546875 586.520507812 c 1
 318.331054688 601.4765625 403.38671875 623.073242188 487.267578125 643.711914062 c 0
 532.129882812 653.662109375 577.504882812 666.3125 623.192382812 669.100585938 c 0
 635.10546875 670.262695312 641.104492188 653.637695312 631.342773438 646.899414062 c 0
681.39453125 483.875 m 1
 681.936523438 483.362304688 682.068359375 483.525390625 682.068359375 483.525390625 c 0
 681.84375 483.642578125 681.619140625 483.758789062 681.39453125 483.875 c 1
538.466796875 81.1181640625 m 1
 538.471679688 81.0322265625 538.4765625 80.951171875 538.48046875 80.875 c 2
 538.580078125 80.69921875 l 1
 538.54296875 80.8388671875 538.504882812 80.978515625 538.466796875 81.1181640625 c 1
538.811523438 84.142578125 m 1
 538.852539062 84.2021484375 538.83984375 84.142578125 538.811523438 84.142578125 c 1
537.881835938 83.234375 m 1
 516.6328125 158.529296875 446.184570312 252.552734375 364.35546875 249.413085938 c 0
 298.155273438 243.299804688 220.6171875 162.42578125 223.455078125 95.2626953125 c 0
 224.842773438 91.3125 232.955078125 87.125 241.466796875 82.7001953125 c 0
 292.576171875 59.8076171875 351.829101562 50.0322265625 408.609375 44.01171875 c 1
 431.8359375 47.77734375 454.813476562 52.3662109375 477.368164062 58.0126953125 c 0
 499.803710938 64.4970703125 522.885742188 70.130859375 537.881835938 83.234375 c 1
EndSplineSet
EndChar

StartChar: glyph23
Encoding: 279 57623 23
Width: 801
VWidth: 0
Flags: HW
LayerCount: 2
Fore
SplineSet
630.318359375 646.899414062 m 0
 590.29296875 618.086914062 547.005859375 605.30078125 502.255859375 588.650390625 c 0
 493.376953125 585.59765625 484.323242188 582.583984375 475.140625 579.608398438 c 1
 509.8046875 577.38671875 544.442382812 573.986328125 579.15625 569.375 c 0
 625.392578125 561.662109375 674.568359375 558.587890625 716.680664062 534.38671875 c 0
 737.231445312 522.400390625 745.943359375 490.162109375 719.481445312 475.262695312 c 0
 705.692382812 467.961914062 688.91015625 472.0234375 679.8515625 484.141601562 c 1
 646.600585938 501.1484375 607.250976562 506.873046875 570.318359375 515.07421875 c 0
 526.043945312 523.575195312 481.043945312 530.462890625 435.981445312 537.25 c 0
 412.490234375 540.641601562 388.944335938 543.94921875 365.3515625 546.859375 c 1
 343.938476562 540.862304688 322.76171875 535.080078125 302.34375 529.525390625 c 0
 271.973632812 521.653320312 243.201171875 514.208984375 213.04296875 509.952148438 c 1
 204.907226562 476.599609375 197.20703125 443.196289062 189.943359375 409.961914062 c 0
 163.622070312 283.767578125 136.00390625 155.831054688 124.807617188 27.4736328125 c 1
 247.288085938 12.0556640625 467.8046875 -20.830078125 534.994140625 74.98828125 c 1
 591.16796875 144.912109375 576.443359375 211.63671875 556.943359375 292.26171875 c 0
 556.16796875 298.650390625 555.23046875 304.162109375 556.630859375 311.913085938 c 0
 559.15625 330.575195312 581.21875 344.174804688 599.168945312 336.712890625 c 0
 613.29296875 331.836914062 622.193359375 315.94921875 628.568359375 305.787109375 c 0
 679.693359375 217.88671875 747.40625 19.44921875 638.53125 -47.724609375 c 0
 629.142578125 -52.8623046875 618.630859375 -41.400390625 624.255859375 -32.51171875 c 0
 653.135742188 24.80078125 643.806640625 100.131835938 620.333984375 170.20703125 c 1
 610.853515625 40.359375 552.666992188 -43.0751953125 373.643554688 -52.962890625 c 0
 275.430664062 -58.7255859375 179.60546875 -45.9755859375 87.01953125 -30.9375 c 0
 75.6474609375 -29.1884765625 66.65625 -21.5048828125 62.69921875 -11.5341796875 c 0
 61.166015625 -7.966796875 60.2763671875 -4.072265625 60.16796875 -0.01171875 c 0
 59.29296875 37.42578125 61.931640625 73.6875 65.568359375 109.525390625 c 0
 76.505859375 215.69921875 98.0185546875 322.037109375 123.168945312 425.462890625 c 0
 130.12890625 452.810546875 137.141601562 480.17578125 144.581054688 507.421875 c 1
 138.731445312 508.177734375 132.609375 509.435546875 126.943359375 511.586914062 c 0
 116.831054688 514.024414062 111.518554688 534.799804688 116.15625 544.512695312 c 0
 118.41796875 549.837890625 119.643554688 551.850585938 121.306640625 556.724609375 c 0
 124.91796875 563.587890625 129.35546875 565.762695312 132.78125 567.80078125 c 0
 143.083007812 572.104492188 153.809570312 574.823242188 164.7265625 576.614257812 c 1
 175.858398438 612.159179688 188.2890625 647.296875 202.880859375 681.712890625 c 0
 219.493164062 720.575195312 257.430664062 771.01171875 216.280273438 805.94921875 c 0
 206.755859375 812.950195312 215.743164062 828.487304688 226.556640625 823.67578125 c 0
 294.818359375 796.337890625 273.517578125 715.375 253.73046875 662.900390625 c 0
 246.407226562 637.639648438 239.341796875 612.145507812 232.536132812 586.520507812 c 1
 317.306640625 601.4765625 402.362304688 623.073242188 486.244140625 643.711914062 c 0
 531.10546875 653.662109375 576.48046875 666.3125 622.16796875 669.100585938 c 0
 634.081054688 670.262695312 640.080078125 653.637695312 630.318359375 646.899414062 c 0
680.37109375 483.875 m 1
 680.912109375 483.362304688 681.043945312 483.525390625 681.043945312 483.525390625 c 0
 680.819335938 483.642578125 680.595703125 483.758789062 680.37109375 483.875 c 1
EndSplineSet
EndChar

StartChar: glyph24
Encoding: 280 57624 24
Width: 807
VWidth: 0
Flags: HW
LayerCount: 2
Fore
SplineSet
630.318359375 646.899414062 m 0
 590.29296875 618.086914062 547.005859375 605.30078125 502.255859375 588.650390625 c 0
 493.376953125 585.59765625 484.323242188 582.583984375 475.140625 579.608398438 c 1
 509.8046875 577.38671875 544.442382812 573.986328125 579.15625 569.375 c 0
 625.392578125 561.662109375 674.568359375 558.587890625 716.680664062 534.38671875 c 0
 737.231445312 522.400390625 745.943359375 490.162109375 719.481445312 475.262695312 c 0
 705.692382812 467.961914062 688.91015625 472.0234375 679.8515625 484.141601562 c 1
 646.600585938 501.1484375 607.250976562 506.873046875 570.318359375 515.07421875 c 0
 526.043945312 523.575195312 481.043945312 530.462890625 435.981445312 537.25 c 0
 412.490234375 540.641601562 388.944335938 543.94921875 365.3515625 546.859375 c 1
 343.938476562 540.862304688 322.76171875 535.080078125 302.34375 529.525390625 c 0
 271.973632812 521.653320312 243.201171875 514.208984375 213.04296875 509.952148438 c 1
 204.907226562 476.599609375 197.20703125 443.196289062 189.943359375 409.961914062 c 0
 163.366210938 282.544921875 135.46875 153.3515625 124.487304688 23.7421875 c 1
 185.572265625 9.6259765625 253.3828125 4.4287109375 316.005859375 1.0498046875 c 0
 389.331054688 -1.625 463.71875 -1.0498046875 533.73046875 11.662109375 c 0
 540.450195312 12.9697265625 547.176757812 14.36328125 553.854492188 15.916015625 c 1
 536.438476562 25.265625 519.0078125 35.6689453125 501.981445312 48.0751953125 c 0
 440.54296875 90.3369140625 410.255859375 163.299804688 445.681640625 232.400390625 c 0
 477.606445312 302.875 562.606445312 382.075195312 643.443359375 332.337890625 c 0
 709.643554688 286.225585938 710.118164062 194.912109375 707.368164062 123.711914062 c 0
 704.504882812 87.6025390625 697.352539062 48.7705078125 676.462890625 17.876953125 c 1
 688.659179688 10.337890625 699.75 2.4228515625 709.018554688 -6.1875 c 0
 771.668945312 -59.587890625 712.65625 -128.73828125 655.581054688 -154.38671875 c 0
 584.20703125 -190.575195312 460.14453125 -183.0625 443.29296875 -88.0126953125 c 0
 440.967773438 -75.6748046875 458.84375 -70.787109375 463.26953125 -82.287109375 c 0
 469.092773438 -97.9248046875 478.943359375 -111.17578125 492.73046875 -120.07421875 c 0
 535.15625 -145.525390625 592.34375 -134.625 634.03125 -112.037109375 c 0
 654.193359375 -100.6875 672.831054688 -85.07421875 682.318359375 -65.2001953125 c 0
 683.91796875 -60.537109375 683.494140625 -60.0625 682.73046875 -58.1875 c 0
 670.661132812 -41.8037109375 650.551757812 -31.498046875 630.421875 -21.9560546875 c 1
 603.724609375 -35.498046875 574.290039062 -42.8515625 545.693359375 -49.1123046875 c 0
 467.543945312 -64.5625 390.193359375 -66.474609375 313.255859375 -63.42578125 c 0
 233.96875 -59.150390625 159.405273438 -53.525390625 81.505859375 -29.6376953125 c 0
 67.4912109375 -25.0302734375 58.935546875 -11.455078125 60.1123046875 2.6298828125 c 0
 59.41796875 39.1328125 62.0166015625 74.53125 65.568359375 109.525390625 c 0
 76.505859375 215.69921875 98.0185546875 322.037109375 123.168945312 425.462890625 c 0
 130.12890625 452.810546875 137.141601562 480.17578125 144.581054688 507.421875 c 1
 138.731445312 508.177734375 132.609375 509.435546875 126.943359375 511.586914062 c 0
 116.831054688 514.024414062 111.518554688 534.799804688 116.15625 544.512695312 c 0
 118.41796875 549.837890625 119.643554688 551.850585938 121.306640625 556.724609375 c 0
 124.91796875 563.587890625 129.35546875 565.762695312 132.78125 567.80078125 c 0
 143.083007812 572.104492188 153.809570312 574.823242188 164.7265625 576.614257812 c 1
 175.858398438 612.159179688 188.2890625 647.296875 202.880859375 681.712890625 c 0
 219.493164062 720.575195312 257.430664062 771.01171875 216.280273438 805.94921875 c 0
 206.755859375 812.950195312 215.743164062 828.487304688 226.556640625 823.67578125 c 0
 294.818359375 796.337890625 273.517578125 715.375 253.73046875 662.900390625 c 0
 246.407226562 637.639648438 239.341796875 612.145507812 232.536132812 586.520507812 c 1
 317.306640625 601.4765625 402.362304688 623.073242188 486.244140625 643.711914062 c 0
 531.10546875 653.662109375 576.48046875 666.3125 622.16796875 669.100585938 c 0
 634.081054688 670.262695312 640.080078125 653.637695312 630.318359375 646.899414062 c 0
680.37109375 483.875 m 1
 680.912109375 483.362304688 681.043945312 483.525390625 681.043945312 483.525390625 c 0
 680.819335938 483.642578125 680.595703125 483.758789062 680.37109375 483.875 c 1
624.124023438 46.4658203125 m 1
 644.470703125 67.41015625 655.364257812 99.873046875 660.568359375 129.07421875 c 0
 666.017578125 163.037109375 662.993164062 199.725585938 649.65625 230.112304688 c 0
 628.60546875 274.537109375 602.193359375 300.849609375 562.59375 276.913085938 c 0
 527.95703125 255.5625 493.780273438 207.48828125 492.880859375 166.987304688 c 1
 501.458007812 108.703125 564.315429688 77.126953125 624.124023438 46.4658203125 c 1
EndSplineSet
EndChar

StartChar: glyph25
Encoding: 281 57625 25
Width: 857
VWidth: 0
Flags: HW
LayerCount: 2
Fore
SplineSet
630.318359375 646.899414062 m 0
 590.29296875 618.086914062 547.005859375 605.30078125 502.255859375 588.650390625 c 0
 493.376953125 585.59765625 484.323242188 582.583984375 475.140625 579.608398438 c 1
 509.8046875 577.38671875 544.442382812 573.986328125 579.15625 569.375 c 0
 625.392578125 561.662109375 674.568359375 558.587890625 716.680664062 534.38671875 c 0
 737.231445312 522.400390625 745.943359375 490.162109375 719.481445312 475.262695312 c 0
 705.692382812 467.961914062 688.91015625 472.0234375 679.8515625 484.141601562 c 1
 646.600585938 501.1484375 607.250976562 506.873046875 570.318359375 515.07421875 c 0
 526.043945312 523.575195312 481.043945312 530.462890625 435.981445312 537.25 c 0
 412.490234375 540.641601562 388.944335938 543.94921875 365.3515625 546.859375 c 1
 343.938476562 540.862304688 322.76171875 535.080078125 302.34375 529.525390625 c 0
 271.973632812 521.653320312 243.201171875 514.208984375 213.04296875 509.952148438 c 1
 204.907226562 476.599609375 197.20703125 443.196289062 189.943359375 409.961914062 c 0
 182.494140625 374.248046875 174.94140625 338.39453125 167.685546875 302.431640625 c 1
 179.744140625 314.28125 193.04296875 325.1640625 207.693359375 334.887695312 c 0
 366.40625 442.8125 625.880859375 406.6875 711.71875 222.599609375 c 0
 760.28125 116.025390625 733.231445312 -1.01171875 603.04296875 -18.7001953125 c 0
 513.53125 -30.1376953125 404.731445312 -2.974609375 343.380859375 66.087890625 c 0
 333.467773438 78.4873046875 351.493164062 94.125 362.35546875 82.650390625 c 0
 399.994140625 44.6494140625 460.356445312 27.875 513.09375 22.4755859375 c 0
 564.255859375 18.1494140625 618.58203125 26.875 655.893554688 63.125 c 0
 684.643554688 96.787109375 675.45703125 156.787109375 655.731445312 196.225585938 c 0
 609.744140625 292.599609375 495.068359375 339.849609375 391.54296875 333.025390625 c 0
 281.39453125 329.9375 182.869140625 268.962890625 145.643554688 163.0625 c 0
 143.095703125 156.047851562 140.774414062 148.932617188 138.670898438 141.73046875 c 0
 131.526367188 94.5712890625 125.896484375 47.3017578125 122.66796875 -0.01171875 c 0
 122.66796875 -0.0693359375 122.6640625 -0.126953125 122.6640625 -0.1845703125 c 0
 122.6640625 -0.2275390625 122.66796875 -0.26953125 122.66796875 -0.3125 c 0
 122.831054688 -43.1875 59.7060546875 -43.1494140625 60.15625 -0.01171875 c 0
 60.15625 0.0654296875 60.1630859375 0.1435546875 60.1630859375 0.22265625 c 0
 59.3046875 37.5771484375 61.9384765625 73.7626953125 65.568359375 109.525390625 c 0
 76.505859375 215.69921875 98.0185546875 322.037109375 123.168945312 425.462890625 c 0
 130.12890625 452.810546875 137.141601562 480.17578125 144.581054688 507.421875 c 1
 138.731445312 508.177734375 132.609375 509.435546875 126.943359375 511.586914062 c 0
 116.831054688 514.024414062 111.518554688 534.799804688 116.15625 544.512695312 c 0
 118.41796875 549.837890625 119.643554688 551.850585938 121.306640625 556.724609375 c 0
 124.91796875 563.587890625 129.35546875 565.762695312 132.78125 567.80078125 c 0
 143.083007812 572.104492188 153.809570312 574.823242188 164.7265625 576.614257812 c 1
 175.858398438 612.159179688 188.2890625 647.296875 202.880859375 681.712890625 c 0
 219.493164062 720.575195312 257.430664062 771.01171875 216.280273438 805.94921875 c 0
 206.755859375 812.950195312 215.743164062 828.487304688 226.556640625 823.67578125 c 0
 294.818359375 796.337890625 273.517578125 715.375 253.73046875 662.900390625 c 0
 246.407226562 637.639648438 239.341796875 612.145507812 232.536132812 586.520507812 c 1
 317.306640625 601.4765625 402.362304688 623.073242188 486.244140625 643.711914062 c 0
 531.10546875 653.662109375 576.48046875 666.3125 622.16796875 669.100585938 c 0
 634.081054688 670.262695312 640.080078125 653.637695312 630.318359375 646.899414062 c 0
715.018554688 424.799804688 m 0
 719.15625 425.450195312 725.705078125 423.950195312 726.306640625 423.487304688 c 0
 741.10546875 417.700195312 752.33203125 407.475585938 764.130859375 397.836914062 c 0
 780.518554688 382.362304688 818.58203125 355.049804688 791.630859375 331.0625 c 0
 779.85546875 321.32421875 761.592773438 324.737304688 754.081054688 338.025390625 c 0
 744.51953125 354.024414062 729.28125 372.26171875 714.880859375 385.336914062 c 2
 712.79296875 387.125 l 2
 712.747070312 387.163085938 712.709960938 387.193359375 712.681640625 387.21875 c 0
 694.133789062 391.465820312 692.688476562 421.638671875 715.018554688 424.799804688 c 0
639.956054688 408.82421875 m 0
 644.092773438 409.462890625 650.643554688 407.974609375 651.244140625 407.51171875 c 0
 666.043945312 401.724609375 677.267578125 391.5 689.068359375 381.850585938 c 0
 705.45703125 366.375 743.517578125 339.0625 716.568359375 315.087890625 c 0
 704.793945312 305.350585938 686.53125 308.76171875 679.018554688 322.049804688 c 0
 669.455078125 338.05078125 654.21875 356.288085938 639.818359375 369.36328125 c 2
 637.73046875 371.150390625 l 2
 637.684570312 371.1875 637.647460938 371.217773438 637.620117188 371.243164062 c 0
 619.0703125 375.490234375 617.625976562 405.6640625 639.956054688 408.82421875 c 0
680.37109375 483.875 m 1
 680.912109375 483.362304688 681.043945312 483.525390625 681.043945312 483.525390625 c 0
 680.819335938 483.642578125 680.595703125 483.758789062 680.37109375 483.875 c 1
714 386.965820312 m 1
 715.26953125 386.662109375 717.895507812 386.184570312 719.755859375 386.86328125 c 1
 717.697265625 386.640625 715.77734375 386.688476562 714 386.965820312 c 1
638.938476562 370.990234375 m 1
 640.20703125 370.686523438 642.833007812 370.208984375 644.693359375 370.887695312 c 1
 642.635742188 370.665039062 640.71484375 370.712890625 638.938476562 370.990234375 c 1
EndSplineSet
EndChar

StartChar: glyph26
Encoding: 282 57626 26
Width: 817
VWidth: 0
Flags: HW
LayerCount: 2
Fore
SplineSet
630.91015625 646.899414062 m 0
 590.884765625 618.086914062 547.59765625 605.30078125 502.84765625 588.650390625 c 0
 493.969726562 585.59765625 484.916015625 582.583984375 475.732421875 579.608398438 c 1
 510.397460938 577.38671875 545.034179688 573.986328125 579.748046875 569.375 c 0
 625.985351562 561.662109375 675.16015625 558.587890625 717.2734375 534.38671875 c 0
 737.823242188 522.400390625 746.53515625 490.162109375 720.073242188 475.262695312 c 0
 706.28515625 467.961914062 689.502929688 472.0234375 680.443359375 484.141601562 c 1
 647.193359375 501.1484375 607.842773438 506.873046875 570.91015625 515.07421875 c 0
 526.635742188 523.575195312 481.635742188 530.462890625 436.573242188 537.25 c 0
 413.08203125 540.641601562 389.536132812 543.94921875 365.943359375 546.859375 c 1
 344.530273438 540.862304688 323.354492188 535.080078125 302.935546875 529.525390625 c 0
 272.565429688 521.653320312 243.79296875 514.208984375 213.635742188 509.952148438 c 1
 205.499023438 476.599609375 197.798828125 443.196289062 190.536132812 409.961914062 c 0
 164.802734375 286.58984375 137.831054688 161.552734375 126.17578125 36.0849609375 c 1
 149.953125 39.66015625 178.671875 44.5947265625 209.427734375 50.798828125 c 1
 186.915039062 151.579101562 221.610351562 337.047851562 268.348632812 404.575195312 c 0
 293.84765625 442.862304688 342.123046875 435.899414062 374.385742188 413.1875 c 0
 441.498046875 365.86328125 488.685546875 296.987304688 520.259765625 222.3125 c 0
 534.209960938 187.674804688 541.185546875 145.837890625 512.34765625 117.538085938 c 0
 464.171875 69.6669921875 397.989257812 48.5673828125 335.587890625 27.6611328125 c 1
 396.916015625 15.666015625 462.47265625 14.529296875 524.1484375 13.8623046875 c 0
 571.9609375 16.1376953125 621.6484375 14.4248046875 663.923828125 34.30078125 c 0
 677.123046875 44.599609375 682.498046875 61.7626953125 686.922851562 80.787109375 c 0
 694.073242188 114.086914062 692.098632812 152.237304688 687.5234375 187.875 c 0
 686.060546875 195.899414062 691.635742188 203.612304688 699.735351562 204.625 c 0
 706.736328125 205.525390625 713.2109375 201.17578125 715.185546875 194.625 c 0
 721.134765625 175.01171875 725.0859375 155.975585938 727.53515625 135.9375 c 0
 736.03515625 66.32421875 727.03515625 -9.76171875 644.623046875 -26.162109375 c 0
 565.635742188 -45.38671875 488.310546875 -45.412109375 408.611328125 -41.9248046875 c 0
 363.24609375 -37.04296875 275.178710938 -36.591796875 235.21484375 -1.3525390625 c 1
 189.4765625 -12.9814453125 143.294921875 -22.7744140625 96.2978515625 -30.94921875 c 0
 70.2080078125 -34.7109375 56.8359375 -12.1181640625 60.6376953125 6.9111328125 c 0
 60.21484375 41.9033203125 62.748046875 75.9013671875 66.1611328125 109.525390625 c 0
 77.0986328125 215.69921875 98.611328125 322.037109375 123.760742188 425.462890625 c 0
 130.720703125 452.810546875 137.733398438 480.17578125 145.172851562 507.421875 c 1
 139.323242188 508.177734375 133.202148438 509.435546875 127.53515625 511.586914062 c 0
 117.422851562 514.024414062 112.110351562 534.799804688 116.748046875 544.512695312 c 0
 119.009765625 549.837890625 120.235351562 551.850585938 121.8984375 556.724609375 c 0
 125.509765625 563.587890625 129.947265625 565.762695312 133.373046875 567.80078125 c 0
 143.674804688 572.104492188 154.401367188 574.823242188 165.319335938 576.614257812 c 1
 176.450195312 612.159179688 188.881835938 647.296875 203.47265625 681.712890625 c 0
 220.0859375 720.575195312 258.022460938 771.01171875 216.873046875 805.94921875 c 0
 207.34765625 812.950195312 216.3359375 828.487304688 227.1484375 823.67578125 c 0
 295.41015625 796.337890625 274.110351562 715.375 254.322265625 662.900390625 c 0
 246.999023438 637.639648438 239.93359375 612.145507812 233.127929688 586.520507812 c 1
 317.899414062 601.4765625 402.954101562 623.073242188 486.8359375 643.711914062 c 0
 531.698242188 653.662109375 577.072265625 666.3125 622.759765625 669.100585938 c 0
 634.672851562 670.262695312 640.672851562 653.637695312 630.91015625 646.899414062 c 0
680.962890625 483.875 m 1
 681.50390625 483.362304688 681.635742188 483.525390625 681.635742188 483.525390625 c 0
 681.412109375 483.642578125 681.1875 483.758789062 680.962890625 483.875 c 1
268.756835938 63.8935546875 m 0
 364.412109375 86.95703125 462.015625 120.755859375 485.135742188 162.9375 c 1
 485.772460938 194.887695312 468.623046875 225.94921875 453.7734375 254.25 c 0
 435.97265625 285.775390625 414.236328125 315.775390625 389.522460938 341.6875 c 0
 371.310546875 360.5 338.41015625 390.8125 314.522460938 386.825195312 c 0
 312.310546875 386.288085938 312.2109375 385.775390625 310.360351562 384.44921875 c 0
 258.384765625 321.650390625 251.03515625 142.637695312 268.634765625 64.36328125 c 0
 268.67578125 64.2060546875 268.715820312 64.0498046875 268.756835938 63.8935546875 c 0
EndSplineSet
EndChar

StartChar: glyph27
Encoding: 283 57627 27
Width: 816
VWidth: 0
Flags: HW
LayerCount: 2
Fore
SplineSet
630.91015625 646.899414062 m 0
 590.884765625 618.086914062 547.59765625 605.30078125 502.84765625 588.650390625 c 0
 493.969726562 585.59765625 484.916015625 582.583984375 475.732421875 579.608398438 c 1
 510.397460938 577.38671875 545.034179688 573.986328125 579.748046875 569.375 c 0
 625.985351562 561.662109375 675.16015625 558.587890625 717.2734375 534.38671875 c 0
 737.823242188 522.400390625 746.53515625 490.162109375 720.073242188 475.262695312 c 0
 706.28515625 467.961914062 689.502929688 472.0234375 680.443359375 484.141601562 c 1
 647.193359375 501.1484375 607.842773438 506.873046875 570.91015625 515.07421875 c 0
 526.635742188 523.575195312 481.635742188 530.462890625 436.573242188 537.25 c 0
 413.08203125 540.641601562 389.536132812 543.94921875 365.943359375 546.859375 c 1
 344.530273438 540.862304688 323.354492188 535.080078125 302.935546875 529.525390625 c 0
 272.565429688 521.653320312 243.79296875 514.208984375 213.635742188 509.952148438 c 1
 205.499023438 476.599609375 197.798828125 443.196289062 190.536132812 409.961914062 c 0
 164.802734375 286.58984375 137.831054688 161.552734375 126.17578125 36.0849609375 c 1
 149.953125 39.66015625 178.671875 44.5947265625 209.427734375 50.798828125 c 1
 186.915039062 151.579101562 221.610351562 337.047851562 268.348632812 404.575195312 c 0
 293.84765625 442.862304688 342.123046875 435.899414062 374.385742188 413.1875 c 0
 441.498046875 365.86328125 488.685546875 296.987304688 520.259765625 222.3125 c 0
 534.209960938 187.674804688 541.185546875 145.837890625 512.34765625 117.538085938 c 0
 464.171875 69.6669921875 397.989257812 48.5673828125 335.587890625 27.6611328125 c 1
 396.916015625 15.666015625 462.47265625 14.529296875 524.1484375 13.8623046875 c 0
 571.9609375 16.1376953125 621.6484375 14.4248046875 663.923828125 34.30078125 c 0
 677.123046875 44.599609375 682.498046875 61.7626953125 686.922851562 80.787109375 c 0
 694.073242188 114.086914062 692.098632812 152.237304688 687.5234375 187.875 c 0
 686.060546875 195.899414062 691.635742188 203.612304688 699.735351562 204.625 c 0
 706.736328125 205.525390625 713.2109375 201.17578125 715.185546875 194.625 c 0
 721.134765625 175.01171875 725.0859375 155.975585938 727.53515625 135.9375 c 0
 736.03515625 66.32421875 727.03515625 -9.76171875 644.623046875 -26.162109375 c 0
 565.635742188 -45.38671875 488.310546875 -45.412109375 408.611328125 -41.9248046875 c 0
 363.24609375 -37.04296875 275.178710938 -36.591796875 235.21484375 -1.3525390625 c 1
 189.4765625 -12.9814453125 143.294921875 -22.7744140625 96.2978515625 -30.94921875 c 0
 70.2080078125 -34.7109375 56.8359375 -12.1181640625 60.6376953125 6.9111328125 c 0
 60.21484375 41.9033203125 62.748046875 75.9013671875 66.1611328125 109.525390625 c 0
 77.0986328125 215.69921875 98.611328125 322.037109375 123.760742188 425.462890625 c 0
 130.720703125 452.810546875 137.733398438 480.17578125 145.172851562 507.421875 c 1
 139.323242188 508.177734375 133.202148438 509.435546875 127.53515625 511.586914062 c 0
 117.422851562 514.024414062 112.110351562 534.799804688 116.748046875 544.512695312 c 0
 119.009765625 549.837890625 120.235351562 551.850585938 121.8984375 556.724609375 c 0
 125.509765625 563.587890625 129.947265625 565.762695312 133.373046875 567.80078125 c 0
 143.674804688 572.104492188 154.401367188 574.823242188 165.319335938 576.614257812 c 1
 176.450195312 612.159179688 188.881835938 647.296875 203.47265625 681.712890625 c 0
 220.0859375 720.575195312 258.022460938 771.01171875 216.873046875 805.94921875 c 0
 207.34765625 812.950195312 216.3359375 828.487304688 227.1484375 823.67578125 c 0
 295.41015625 796.337890625 274.110351562 715.375 254.322265625 662.900390625 c 0
 246.999023438 637.639648438 239.93359375 612.145507812 233.127929688 586.520507812 c 1
 317.899414062 601.4765625 402.954101562 623.073242188 486.8359375 643.711914062 c 0
 531.698242188 653.662109375 577.072265625 666.3125 622.759765625 669.100585938 c 0
 634.672851562 670.262695312 640.672851562 653.637695312 630.91015625 646.899414062 c 0
611.073242188 424.799804688 m 0
 615.209960938 425.450195312 621.759765625 423.950195312 622.361328125 423.487304688 c 0
 637.16015625 417.700195312 648.384765625 407.475585938 660.185546875 397.836914062 c 0
 676.573242188 382.362304688 714.634765625 355.049804688 687.685546875 331.0625 c 0
 675.91015625 321.32421875 657.647460938 324.737304688 650.135742188 338.025390625 c 0
 640.572265625 354.024414062 625.3359375 372.26171875 610.935546875 385.336914062 c 2
 608.84765625 387.125 l 2
 608.801757812 387.163085938 608.764648438 387.193359375 608.736328125 387.21875 c 0
 590.1875 391.465820312 588.743164062 421.638671875 611.073242188 424.799804688 c 0
536.010742188 408.82421875 m 0
 540.147460938 409.462890625 546.698242188 407.974609375 547.298828125 407.51171875 c 0
 562.098632812 401.724609375 573.322265625 391.5 585.123046875 381.850585938 c 0
 601.509765625 366.375 639.572265625 339.0625 612.623046875 315.087890625 c 0
 600.848632812 305.350585938 582.5859375 308.76171875 575.073242188 322.049804688 c 0
 565.509765625 338.05078125 550.2734375 356.288085938 535.873046875 369.36328125 c 2
 533.78515625 371.150390625 l 2
 533.739257812 371.1875 533.702148438 371.217773438 533.674804688 371.243164062 c 0
 515.125 375.490234375 513.680664062 405.6640625 536.010742188 408.82421875 c 0
680.962890625 483.875 m 1
 681.50390625 483.362304688 681.635742188 483.525390625 681.635742188 483.525390625 c 0
 681.412109375 483.642578125 681.1875 483.758789062 680.962890625 483.875 c 1
268.756835938 63.8935546875 m 0
 364.412109375 86.95703125 462.015625 120.755859375 485.135742188 162.9375 c 1
 485.772460938 194.887695312 468.623046875 225.94921875 453.7734375 254.25 c 0
 435.97265625 285.775390625 414.236328125 315.775390625 389.522460938 341.6875 c 0
 371.310546875 360.5 338.41015625 390.8125 314.522460938 386.825195312 c 0
 312.310546875 386.288085938 312.2109375 385.775390625 310.360351562 384.44921875 c 0
 258.384765625 321.650390625 251.03515625 142.637695312 268.634765625 64.36328125 c 0
 268.67578125 64.2060546875 268.715820312 64.0498046875 268.756835938 63.8935546875 c 0
610.055664062 386.96484375 m 1
 611.325195312 386.662109375 613.950195312 386.184570312 615.810546875 386.86328125 c 1
 613.752929688 386.640625 611.83203125 386.688476562 610.055664062 386.96484375 c 1
534.993164062 370.990234375 m 1
 536.26171875 370.686523438 538.887695312 370.208984375 540.748046875 370.887695312 c 1
 538.690429688 370.665039062 536.76953125 370.712890625 534.993164062 370.990234375 c 1
EndSplineSet
EndChar

StartChar: glyph28
Encoding: 284 57628 28
Width: 925
VWidth: 0
Flags: HW
LayerCount: 2
Fore
SplineSet
728.272460938 646.899414062 m 0
 688.247070312 618.086914062 644.959960938 605.30078125 600.209960938 588.650390625 c 0
 591.331054688 585.59765625 582.27734375 582.583984375 573.094726562 579.608398438 c 1
 607.758789062 577.38671875 642.396484375 573.986328125 677.110351562 569.375 c 0
 723.34765625 561.662109375 772.521484375 558.587890625 814.634765625 534.38671875 c 0
 835.185546875 522.400390625 843.897460938 490.162109375 817.435546875 475.262695312 c 0
 803.646484375 467.961914062 786.864257812 472.0234375 777.805664062 484.141601562 c 1
 744.5546875 501.1484375 705.205078125 506.873046875 668.272460938 515.07421875 c 0
 623.998046875 523.575195312 578.998046875 530.462890625 533.935546875 537.25 c 0
 510.444335938 540.641601562 486.8984375 543.94921875 463.305664062 546.859375 c 1
 441.892578125 540.862304688 420.715820312 535.080078125 400.297851562 529.525390625 c 0
 369.927734375 521.653320312 341.155273438 514.208984375 310.997070312 509.952148438 c 1
 302.861328125 476.599609375 295.161132812 443.196289062 287.8984375 409.961914062 c 0
 283.741210938 390.03515625 279.552734375 370.064453125 275.401367188 350.055664062 c 1
 356.624023438 369.983398438 442.942382812 378.459960938 494.022460938 376.462890625 c 0
 502.09765625 374.8125 508.296875 372.924804688 514.510742188 365.649414062 c 0
 527.697265625 350.024414062 518.647460938 327.4375 502.03515625 321.23828125 c 0
 375.822265625 260.038085938 384.59765625 86.4501953125 515.384765625 38.3251953125 c 0
 524.43359375 35.61328125 534.166015625 33.5986328125 544.366210938 32.275390625 c 1
 519.233398438 148.2421875 540.953125 286.685546875 645.22265625 357.875 c 1
 751.3359375 423.287109375 867.22265625 211.474609375 837.259765625 123.788085938 c 0
 811.295898438 33.9775390625 709.219726562 -21.9638671875 608.970703125 -31.37109375 c 1
 618.048828125 -60.0888671875 630.330078125 -86.3984375 645.547851562 -108.275390625 c 0
 654.759765625 -120.049804688 638.497070312 -135.899414062 627.010742188 -126 c 0
 597.606445312 -100.717773438 578.24609375 -67.6337890625 564.204101562 -32.41796875 c 1
 524.733398438 -30.462890625 487.4609375 -20.6416015625 457.485351562 -2.125 c 0
 335.09375 69.482421875 320.651367188 227.669921875 408.282226562 320.504882812 c 1
 363.694335938 316.422851562 312.057617188 308.860351562 264.403320312 296.287109375 c 1
 245.171875 200.459960938 228.21484375 103.8671875 221.124023438 7.0751953125 c 1
 227.4921875 -17.7265625 198.490234375 -45.7705078125 171.172851562 -25.4248046875 c 0
 78.5732421875 43.73828125 18.935546875 142.987304688 86.5224609375 253.73828125 c 0
 106.875976562 283.744140625 148.4921875 307.974609375 198.610351562 326.739257812 c 1
 205.606445312 359.873046875 213.18359375 392.813476562 221.123046875 425.462890625 c 0
 228.083007812 452.810546875 235.095703125 480.17578125 242.53515625 507.421875 c 1
 236.685546875 508.177734375 230.563476562 509.435546875 224.897460938 511.586914062 c 0
 214.78515625 514.024414062 209.47265625 534.799804688 214.110351562 544.512695312 c 0
 216.372070312 549.837890625 217.59765625 551.850585938 219.259765625 556.724609375 c 0
 222.872070312 563.587890625 227.309570312 565.762695312 230.734375 567.80078125 c 0
 241.037109375 572.104492188 251.763671875 574.823242188 262.680664062 576.614257812 c 1
 273.8125 612.159179688 286.243164062 647.296875 300.834960938 681.712890625 c 0
 317.447265625 720.575195312 355.384765625 771.01171875 314.234375 805.94921875 c 0
 304.708984375 812.950195312 313.697265625 828.487304688 324.510742188 823.67578125 c 0
 392.772460938 796.337890625 371.47265625 715.375 351.684570312 662.900390625 c 0
 344.361328125 637.639648438 337.295898438 612.145507812 330.490234375 586.520507812 c 1
 415.260742188 601.4765625 500.31640625 623.073242188 584.198242188 643.711914062 c 0
 629.060546875 653.662109375 674.434570312 666.3125 720.122070312 669.100585938 c 0
 732.03515625 670.262695312 738.03515625 653.637695312 728.272460938 646.899414062 c 0
778.325195312 483.875 m 1
 778.866210938 483.362304688 778.998046875 483.525390625 778.998046875 483.525390625 c 0
 778.7734375 483.642578125 778.549804688 483.758789062 778.325195312 483.875 c 1
159.530273438 62.13671875 m 1
 160.528320312 78.056640625 161.9296875 93.8310546875 163.5234375 109.525390625 c 0
 169 162.688476562 177.127929688 215.892578125 187.036132812 268.751953125 c 1
 162.396484375 256.8359375 141.879882812 242.586914062 128.22265625 225.625 c 0
 90.7412109375 162.198242188 113.634765625 105.848632812 159.530273438 62.13671875 c 1
484.64453125 323.641601562 m 1
 484.848632812 323.595703125 485.045898438 323.560546875 485.235351562 323.537109375 c 1
 485.068359375 323.573242188 484.870117188 323.607421875 484.64453125 323.641601562 c 1
479.4453125 370.131835938 m 1
 479.91015625 370.350585938 l 1
 479.91015625 370.350585938 479.830078125 370.131835938 479.4453125 370.131835938 c 1
594.799804688 31.123046875 m 1
 670.576171875 36.7451171875 752.627929688 73.9765625 773.935546875 141.17578125 c 0
 785.459960938 193.287109375 743.623046875 263.51171875 707.47265625 295.55078125 c 0
 698.672851562 302.4375 691.884765625 306.899414062 683.998046875 306.987304688 c 0
 665.372070312 298.100585938 649.959960938 281.0625 637.084960938 264.4375 c 0
 595.03125 205.6796875 582.657226562 114.76171875 594.799804688 31.123046875 c 1
EndSplineSet
EndChar

StartChar: glyph29
Encoding: 285 57629 29
Width: 863
VWidth: 0
Flags: HW
LayerCount: 2
Fore
SplineSet
630.318359375 646.899414062 m 0
 590.29296875 618.086914062 547.005859375 605.30078125 502.255859375 588.650390625 c 0
 493.376953125 585.59765625 484.323242188 582.583984375 475.140625 579.608398438 c 1
 509.8046875 577.38671875 544.442382812 573.986328125 579.15625 569.375 c 0
 625.392578125 561.662109375 674.568359375 558.587890625 716.680664062 534.38671875 c 0
 737.231445312 522.400390625 745.943359375 490.162109375 719.481445312 475.262695312 c 0
 705.692382812 467.961914062 688.91015625 472.0234375 679.8515625 484.141601562 c 1
 646.600585938 501.1484375 607.250976562 506.873046875 570.318359375 515.07421875 c 0
 526.043945312 523.575195312 481.043945312 530.462890625 435.981445312 537.25 c 0
 412.490234375 540.641601562 388.944335938 543.94921875 365.3515625 546.859375 c 1
 343.938476562 540.862304688 322.76171875 535.080078125 302.34375 529.525390625 c 0
 271.973632812 521.653320312 243.201171875 514.208984375 213.04296875 509.952148438 c 1
 204.907226562 476.599609375 197.20703125 443.196289062 189.943359375 409.961914062 c 0
 181.67578125 370.32421875 173.280273438 330.515625 165.305664062 290.575195312 c 1
 180.962890625 306.536132812 198.607421875 320.823242188 218.393554688 333 c 0
 309.081054688 390.5625 423.65625 407.788085938 527.494140625 382.25 c 0
 639.318359375 355.825195312 733.255859375 262.075195312 722.34375 140.724609375 c 0
 721.962890625 132.258789062 720.916015625 123.64453125 719.23828125 115.022460938 c 1
 753.529296875 87.6865234375 781.458007812 52.4814453125 798.89453125 11.1875 c 0
 815.518554688 -28.8623046875 755.79296875 -52.5 740.681640625 -11.6123046875 c 0
 732.21875 15.7373046875 717.91015625 39.6669921875 699.524414062 59.806640625 c 1
 679.366210938 22.1806640625 646.836914062 -8.791015625 605.493164062 -18.42578125 c 0
 531.581054688 -39.125 410.630859375 -30.4375 357.130859375 31.6005859375 c 0
 338.89453125 52.6875 342.305664062 89.875 358.744140625 111.375 c 0
 401.09375 167.48828125 473.744140625 179.599609375 538.868164062 178.912109375 c 0
 581.762695312 178.725585938 624.41015625 168.594726562 663.005859375 150.161132812 c 1
 664.100585938 217.1171875 621.802734375 274.989257812 561.043945312 303.174804688 c 0
 450.493164062 355.5 297.118164062 336.700195312 208.055664062 251.0625 c 0
 172.69921875 216.970703125 149.797851562 174.401367188 136.633789062 127.993164062 c 1
 130.456054688 85.3935546875 125.583007812 42.708984375 122.66796875 -0.01171875 c 0
 122.662109375 -0.26171875 122.653320312 -0.509765625 122.641601562 -0.7568359375 c 0
 122.111328125 -42.65234375 60.056640625 -42.6904296875 60.14453125 0.01171875 c 0
 60.14453125 0.203125 60.154296875 0.39453125 60.154296875 0.5859375 c 0
 59.3212890625 37.8115234375 61.9501953125 73.87890625 65.568359375 109.525390625 c 0
 76.505859375 215.69921875 98.0185546875 322.037109375 123.168945312 425.462890625 c 0
 130.12890625 452.810546875 137.141601562 480.17578125 144.581054688 507.421875 c 1
 138.731445312 508.177734375 132.609375 509.435546875 126.943359375 511.586914062 c 0
 116.831054688 514.024414062 111.518554688 534.799804688 116.15625 544.512695312 c 0
 118.41796875 549.837890625 119.643554688 551.850585938 121.306640625 556.724609375 c 0
 124.91796875 563.587890625 129.35546875 565.762695312 132.78125 567.80078125 c 0
 143.083007812 572.104492188 153.809570312 574.823242188 164.7265625 576.614257812 c 1
 175.858398438 612.159179688 188.2890625 647.296875 202.880859375 681.712890625 c 0
 219.493164062 720.575195312 257.430664062 771.01171875 216.280273438 805.94921875 c 0
 206.755859375 812.950195312 215.743164062 828.487304688 226.556640625 823.67578125 c 0
 294.818359375 796.337890625 273.517578125 715.375 253.73046875 662.900390625 c 0
 246.407226562 637.639648438 239.341796875 612.145507812 232.536132812 586.520507812 c 1
 317.306640625 601.4765625 402.362304688 623.073242188 486.244140625 643.711914062 c 0
 531.10546875 653.662109375 576.48046875 666.3125 622.16796875 669.100585938 c 0
 634.081054688 670.262695312 640.080078125 653.637695312 630.318359375 646.899414062 c 0
680.37109375 483.875 m 1
 680.912109375 483.362304688 681.043945312 483.525390625 681.043945312 483.525390625 c 0
 680.819335938 483.642578125 680.595703125 483.758789062 680.37109375 483.875 c 1
709.10546875 380.219726562 m 1
 710.196289062 371.811523438 708.774414062 365.1640625 702.217773438 364.462890625 c 0
 699.268554688 364.350585938 696.668945312 365.975585938 695.369140625 368.413085938 c 0
 691.345703125 376.928710938 685.969726562 384.484375 679.63671875 390.817382812 c 0
 654.421875 397.723632812 625.3671875 399.244140625 597.267578125 399.587890625 c 0
 589.994140625 400.663085938 590.380859375 399.150390625 579.793945312 404.61328125 c 0
 571.893554688 409.5 566.53125 419.711914062 568.130859375 429.825195312 c 0
 574.788085938 461.661132812 621.813476562 459.797851562 648.731445312 451.602539062 c 0
 666.673828125 451.05859375 684.872070312 448.606445312 703.143554688 442.8125 c 0
 733.494140625 433.587890625 760.118164062 416.987304688 782.01953125 397.461914062 c 0
 792.35546875 388.237304688 793.26953125 372.375 784.04296875 362.037109375 c 0
 775.818359375 352.8125 762.293945312 351.112304688 752.15625 357.362304688 c 0
 737.607421875 365.86328125 723.434570312 373.83203125 709.10546875 380.219726562 c 1
653.913085938 97.41015625 m 1
 588.82421875 137.715820312 501.998046875 146.51953125 431.680664062 115.825195312 c 0
 410.40625 105.674804688 390.619140625 91.7373046875 386.85546875 69.849609375 c 0
 387.380859375 50.412109375 410.994140625 40.412109375 430.643554688 32.1875 c 0
 480.09375 14.9501953125 539.818359375 13.2373046875 589.767578125 30.099609375 c 0
 623.4921875 40.865234375 643.479492188 66.57421875 653.913085938 97.41015625 c 1
EndSplineSet
EndChar

StartChar: glyph30
Encoding: 286 57630 30
Width: 887
VWidth: 0
Flags: HW
LayerCount: 2
Fore
SplineSet
630.318359375 646.899414062 m 0
 590.29296875 618.086914062 547.005859375 605.30078125 502.255859375 588.650390625 c 0
 493.376953125 585.59765625 484.323242188 582.583984375 475.140625 579.608398438 c 1
 509.8046875 577.38671875 544.442382812 573.986328125 579.15625 569.375 c 0
 625.392578125 561.662109375 674.568359375 558.587890625 716.680664062 534.38671875 c 0
 737.231445312 522.400390625 745.943359375 490.162109375 719.481445312 475.262695312 c 0
 705.692382812 467.961914062 688.91015625 472.0234375 679.8515625 484.141601562 c 1
 646.600585938 501.1484375 607.250976562 506.873046875 570.318359375 515.07421875 c 0
 526.043945312 523.575195312 481.043945312 530.462890625 435.981445312 537.25 c 0
 412.490234375 540.641601562 388.944335938 543.94921875 365.3515625 546.859375 c 1
 343.938476562 540.862304688 322.76171875 535.080078125 302.34375 529.525390625 c 0
 271.973632812 521.653320312 243.201171875 514.208984375 213.04296875 509.952148438 c 1
 204.907226562 476.599609375 197.20703125 443.196289062 189.943359375 409.961914062 c 0
 182.494140625 374.248046875 174.94140625 338.39453125 167.685546875 302.431640625 c 1
 179.744140625 314.28125 193.04296875 325.1640625 207.693359375 334.887695312 c 0
 366.40625 442.8125 625.880859375 406.6875 711.71875 222.599609375 c 0
 760.28125 116.025390625 733.231445312 -1.01171875 603.04296875 -18.7001953125 c 0
 513.53125 -30.1376953125 404.731445312 -2.974609375 343.380859375 66.087890625 c 0
 333.467773438 78.4873046875 351.493164062 94.125 362.35546875 82.650390625 c 0
 399.994140625 44.6494140625 460.356445312 27.875 513.09375 22.4755859375 c 0
 564.255859375 18.1494140625 618.58203125 26.875 655.893554688 63.125 c 0
 684.643554688 96.787109375 675.45703125 156.787109375 655.731445312 196.225585938 c 0
 609.744140625 292.599609375 495.068359375 339.849609375 391.54296875 333.025390625 c 0
 281.39453125 329.9375 182.869140625 268.962890625 145.643554688 163.0625 c 0
 143.095703125 156.047851562 140.774414062 148.932617188 138.670898438 141.73046875 c 0
 131.526367188 94.5712890625 125.896484375 47.3017578125 122.66796875 -0.01171875 c 0
 122.66796875 -0.0693359375 122.6640625 -0.126953125 122.6640625 -0.1845703125 c 0
 122.6640625 -0.2275390625 122.66796875 -0.26953125 122.66796875 -0.3125 c 0
 122.831054688 -43.1875 59.7060546875 -43.1494140625 60.15625 -0.01171875 c 0
 60.15625 0.0654296875 60.1630859375 0.1435546875 60.1630859375 0.22265625 c 0
 59.3046875 37.5771484375 61.9384765625 73.7626953125 65.568359375 109.525390625 c 0
 76.505859375 215.69921875 98.0185546875 322.037109375 123.168945312 425.462890625 c 0
 130.12890625 452.810546875 137.141601562 480.17578125 144.581054688 507.421875 c 1
 138.731445312 508.177734375 132.609375 509.435546875 126.943359375 511.586914062 c 0
 116.831054688 514.024414062 111.518554688 534.799804688 116.15625 544.512695312 c 0
 118.41796875 549.837890625 119.643554688 551.850585938 121.306640625 556.724609375 c 0
 124.91796875 563.587890625 129.35546875 565.762695312 132.78125 567.80078125 c 0
 143.083007812 572.104492188 153.809570312 574.823242188 164.7265625 576.614257812 c 1
 175.858398438 612.159179688 188.2890625 647.296875 202.880859375 681.712890625 c 0
 219.493164062 720.575195312 257.430664062 771.01171875 216.280273438 805.94921875 c 0
 206.755859375 812.950195312 215.743164062 828.487304688 226.556640625 823.67578125 c 0
 294.818359375 796.337890625 273.517578125 715.375 253.73046875 662.900390625 c 0
 246.407226562 637.639648438 239.341796875 612.145507812 232.536132812 586.520507812 c 1
 317.306640625 601.4765625 402.362304688 623.073242188 486.244140625 643.711914062 c 0
 531.10546875 653.662109375 576.48046875 666.3125 622.16796875 669.100585938 c 0
 634.081054688 670.262695312 640.080078125 653.637695312 630.318359375 646.899414062 c 0
680.37109375 483.875 m 1
 680.912109375 483.362304688 681.043945312 483.525390625 681.043945312 483.525390625 c 0
 680.819335938 483.642578125 680.595703125 483.758789062 680.37109375 483.875 c 1
749.880859375 380.219726562 m 1
 750.971679688 371.811523438 749.549804688 365.1640625 742.993164062 364.462890625 c 0
 740.043945312 364.350585938 737.443359375 365.975585938 736.143554688 368.413085938 c 0
 732.120117188 376.928710938 726.744140625 384.484375 720.411132812 390.817382812 c 0
 695.196289062 397.723632812 666.142578125 399.244140625 638.04296875 399.587890625 c 0
 630.76953125 400.663085938 631.15625 399.150390625 620.568359375 404.61328125 c 0
 612.66796875 409.5 607.305664062 419.711914062 608.90625 429.825195312 c 0
 615.563476562 461.661132812 662.587890625 459.797851562 689.506835938 451.602539062 c 0
 707.44921875 451.05859375 725.646484375 448.60546875 743.91796875 442.8125 c 0
 774.268554688 433.587890625 800.893554688 416.987304688 822.79296875 397.461914062 c 0
 833.130859375 388.237304688 834.04296875 372.375 824.818359375 362.037109375 c 0
 816.592773438 352.8125 803.068359375 351.112304688 792.930664062 357.362304688 c 0
 778.381835938 365.864257812 764.209960938 373.83203125 749.880859375 380.219726562 c 1
EndSplineSet
EndChar

StartChar: glyph31
Encoding: 287 57631 31
Width: 1020
VWidth: 0
Flags: HW
LayerCount: 2
Fore
SplineSet
779.224609375 646.899414062 m 0
 739.19921875 618.086914062 695.912109375 605.30078125 651.162109375 588.650390625 c 0
 642.283203125 585.59765625 633.229492188 582.583984375 624.046875 579.608398438 c 1
 658.7109375 577.38671875 693.348632812 573.986328125 728.0625 569.375 c 0
 774.298828125 561.662109375 823.474609375 558.587890625 865.586914062 534.38671875 c 0
 886.137695312 522.400390625 894.849609375 490.162109375 868.387695312 475.262695312 c 0
 854.598632812 467.961914062 837.81640625 472.0234375 828.7578125 484.141601562 c 1
 795.506835938 501.1484375 756.157226562 506.873046875 719.224609375 515.07421875 c 0
 674.950195312 523.575195312 629.950195312 530.462890625 584.887695312 537.25 c 0
 561.396484375 540.641601562 537.850585938 543.94921875 514.2578125 546.859375 c 1
 492.844726562 540.862304688 471.66796875 535.080078125 451.25 529.525390625 c 0
 420.879882812 521.653320312 392.107421875 514.208984375 361.94921875 509.952148438 c 1
 353.813476562 476.599609375 346.11328125 443.196289062 338.849609375 409.961914062 c 0
 333.778320312 385.6484375 328.659179688 361.270507812 323.618164062 336.837890625 c 0
 323.756835938 336.141601562 323.892578125 335.4375 324.024414062 334.725585938 c 0
 342.712890625 250.112304688 342.51171875 114.875 418.237304688 63.44921875 c 1
 442.700195312 55.5751953125 470.69921875 54.900390625 497.224609375 52.8505859375 c 0
 575.861328125 49.599609375 656.450195312 51.0498046875 733.986328125 63.5625 c 0
 751.818359375 66.55078125 771.709960938 72.0205078125 783.044921875 78.265625 c 1
 791.956054688 94.775390625 794.4453125 112.4765625 796.899414062 132.587890625 c 0
 802.8125 192.9375 797.962890625 258.637695312 794.099609375 323.100585938 c 0
 793.673828125 330.25 799.125 336.387695312 806.26171875 336.8125 c 0
 812.137695312 337.163085938 817.337890625 333.525390625 819.237304688 328.25 c 0
 830.674804688 296.412109375 838.76171875 264.1875 844.912109375 231.025390625 c 0
 854.298828125 171.913085938 863.099609375 104.9375 835.25 47.73828125 c 0
 796.26171875 -25.775390625 475.336914062 -23.6376953125 400.200195312 0.61328125 c 1
 336.524414062 28.546875 307.469726562 93.7314453125 290.9765625 163.473632812 c 1
 282.65234375 111.788085938 275.987304688 59.9560546875 272.149414062 8.06640625 c 1
 279.911132812 -17.169921875 249.991210938 -46.7646484375 222.125 -25.4248046875 c 0
 157.899414062 33.19921875 19.2490234375 101.075195312 65.525390625 207.48828125 c 0
 85.3037109375 252.243164062 192.448242188 376.9375 263.458007812 389.26171875 c 1
 266.274414062 401.365234375 269.150390625 413.43359375 272.075195312 425.462890625 c 0
 279.03515625 452.810546875 286.047851562 480.17578125 293.487304688 507.421875 c 1
 287.637695312 508.177734375 281.515625 509.435546875 275.849609375 511.586914062 c 0
 265.737304688 514.024414062 260.424804688 534.799804688 265.0625 544.512695312 c 0
 267.32421875 549.837890625 268.549804688 551.850585938 270.212890625 556.724609375 c 0
 273.82421875 563.587890625 278.26171875 565.762695312 281.6875 567.80078125 c 0
 291.989257812 572.104492188 302.715820312 574.823242188 313.6328125 576.614257812 c 1
 324.764648438 612.159179688 337.1953125 647.296875 351.787109375 681.712890625 c 0
 368.399414062 720.575195312 406.336914062 771.01171875 365.186523438 805.94921875 c 0
 355.662109375 812.950195312 364.649414062 828.487304688 375.462890625 823.67578125 c 0
 443.724609375 796.337890625 422.423828125 715.375 402.63671875 662.900390625 c 0
 395.313476562 637.639648438 388.248046875 612.145507812 381.442382812 586.520507812 c 1
 466.212890625 601.4765625 551.268554688 623.073242188 635.150390625 643.711914062 c 0
 680.01171875 653.662109375 725.38671875 666.3125 771.07421875 669.100585938 c 0
 782.987304688 670.262695312 788.986328125 653.637695312 779.224609375 646.899414062 c 0
829.27734375 483.875 m 1
 829.818359375 483.362304688 829.950195312 483.525390625 829.950195312 483.525390625 c 0
 829.725585938 483.642578125 829.501953125 483.758789062 829.27734375 483.875 c 1
882.787109375 380.219726562 m 1
 883.877929688 371.811523438 882.456054688 365.1640625 875.899414062 364.462890625 c 0
 872.94921875 364.350585938 870.349609375 365.975585938 869.05078125 368.413085938 c 0
 865.02734375 376.928710938 859.651367188 384.484375 853.318359375 390.817382812 c 0
 828.103515625 397.723632812 799.047851562 399.244140625 770.94921875 399.587890625 c 0
 763.673828125 400.663085938 764.0625 399.150390625 753.474609375 404.61328125 c 0
 745.575195312 409.5 740.212890625 419.711914062 741.8125 429.825195312 c 0
 748.469726562 461.661132812 795.494140625 459.797851562 822.413085938 451.602539062 c 0
 840.35546875 451.05859375 858.553710938 448.606445312 876.825195312 442.8125 c 0
 907.17578125 433.587890625 933.799804688 416.987304688 955.69921875 397.461914062 c 0
 966.037109375 388.237304688 966.94921875 372.375 957.724609375 362.037109375 c 0
 949.5 352.8125 935.974609375 351.112304688 925.837890625 357.362304688 c 0
 911.288085938 365.86328125 897.116210938 373.83203125 882.787109375 380.219726562 c 1
210.135742188 56.31640625 m 1
 211.142578125 74.2138671875 212.688476562 91.9208984375 214.474609375 109.525390625 c 0
 221.692382812 179.583984375 233.513671875 249.71484375 247.946289062 319.032226562 c 1
 225.41796875 306.606445312 204.02734375 288.78125 183.51171875 271.662109375 c 0
 160.287109375 251.075195312 137.586914062 228.637695312 120.775390625 204.424804688 c 0
 78.1875 153.0625 133.974609375 110.262695312 177.3125 78.974609375 c 0
 187.965820312 71.2509765625 198.944335938 63.724609375 210.135742188 56.31640625 c 1
782.940429688 78.072265625 m 1
 782.725585938 77.7626953125 782.536132812 77.337890625 782.537109375 77.337890625 c 0
 782.672851562 77.58203125 782.807617188 77.8271484375 782.940429688 78.072265625 c 1
EndSplineSet
EndChar

StartChar: glyph32
Encoding: 288 57632 32
Width: 800
VWidth: 0
Flags: HW
LayerCount: 2
Fore
SplineSet
630.25390625 646.899414062 m 0
 590.228515625 618.086914062 546.94140625 605.30078125 502.19140625 588.650390625 c 0
 493.3125 585.59765625 484.258789062 582.583984375 475.076171875 579.608398438 c 1
 509.740234375 577.38671875 544.377929688 573.986328125 579.091796875 569.375 c 0
 625.328125 561.662109375 674.502929688 558.587890625 716.616210938 534.38671875 c 0
 737.166992188 522.400390625 745.87890625 490.162109375 719.416015625 475.262695312 c 0
 705.627929688 467.961914062 688.845703125 472.0234375 679.787109375 484.141601562 c 1
 646.536132812 501.1484375 607.185546875 506.873046875 570.25390625 515.07421875 c 0
 525.978515625 523.575195312 480.978515625 530.462890625 435.916992188 537.25 c 0
 412.42578125 540.641601562 388.879882812 543.94921875 365.287109375 546.859375 c 1
 343.874023438 540.862304688 322.697265625 535.080078125 302.279296875 529.525390625 c 0
 271.909179688 521.653320312 243.13671875 514.208984375 212.978515625 509.952148438 c 1
 204.842773438 476.599609375 197.141601562 443.196289062 189.87890625 409.961914062 c 0
 163.926757812 285.541992188 136.715820312 159.428710938 125.225585938 32.888671875 c 1
 134.834960938 33.150390625 144.360351562 33.2490234375 153.822265625 33.216796875 c 0
 153.88671875 34.0283203125 153.951171875 34.8388671875 154.015625 35.6494140625 c 0
 162.627929688 125.913085938 176.203125 215.724609375 203.140625 303.012695312 c 0
 232.954101562 403.05078125 283.3671875 448.1875 370.590820312 364.663085938 c 0
 436.103515625 297.225585938 479.454101562 215.975585938 519.666992188 132.3125 c 0
 535.590820312 94.212890625 566.215820312 33.1630859375 523.653320312 2.037109375 c 0
 501.016601562 -14.212890625 474.00390625 -17.80078125 448.9921875 -21.025390625 c 0
 386.728515625 -26.88671875 327.315429688 -24.67578125 267.978515625 -23.8125 c 0
 242.8984375 -23.5107421875 217.209960938 -23.0419921875 191.60546875 -23.4091796875 c 1
 190.09375 -34.544921875 188.68359375 -45.681640625 187.37890625 -56.8125 c 0
 185.091796875 -84.0625 180.840820312 -113.950195312 186.153320312 -140.375 c 0
 190.416015625 -157.163085938 165.94140625 -165.412109375 159.266601562 -149.287109375 c 0
 155.353515625 -139.775390625 154.00390625 -131.825195312 152.704101562 -123.82421875 c 0
 148.645507812 -90.95703125 148.498046875 -57.8876953125 149.977539062 -24.9140625 c 1
 131.4453125 -26.06640625 113.159179688 -27.9599609375 95.3916015625 -30.9873046875 c 0
 67.90234375 -35.1806640625 54.4736328125 -10.3427734375 59.9580078125 9.205078125 c 1
 59.6689453125 43.3896484375 62.166015625 76.63671875 65.50390625 109.525390625 c 0
 76.44140625 215.69921875 97.9541015625 322.037109375 123.104492188 425.462890625 c 0
 130.064453125 452.810546875 137.076171875 480.17578125 144.516601562 507.421875 c 1
 138.666992188 508.177734375 132.544921875 509.435546875 126.87890625 511.586914062 c 0
 116.766601562 514.024414062 111.454101562 534.799804688 116.091796875 544.512695312 c 0
 118.353515625 549.837890625 119.579101562 551.850585938 121.241210938 556.724609375 c 0
 124.853515625 563.587890625 129.291015625 565.762695312 132.715820312 567.80078125 c 0
 143.017578125 572.104492188 153.745117188 574.823242188 164.662109375 576.614257812 c 1
 175.793945312 612.159179688 188.224609375 647.296875 202.81640625 681.712890625 c 0
 219.428710938 720.575195312 257.365234375 771.01171875 216.215820312 805.94921875 c 0
 206.690429688 812.950195312 215.678710938 828.487304688 226.4921875 823.67578125 c 0
 294.75390625 796.337890625 273.453125 715.375 253.666015625 662.900390625 c 0
 246.342773438 637.639648438 239.27734375 612.145507812 232.471679688 586.520507812 c 1
 317.2421875 601.4765625 402.297851562 623.073242188 486.1796875 643.711914062 c 0
 531.041015625 653.662109375 576.416015625 666.3125 622.103515625 669.100585938 c 0
 634.015625 670.262695312 640.015625 653.637695312 630.25390625 646.899414062 c 0
680.305664062 483.875 m 1
 680.84765625 483.362304688 680.979492188 483.525390625 680.978515625 483.525390625 c 0
 680.754882812 483.642578125 680.530273438 483.758789062 680.305664062 483.875 c 1
566.428710938 380.219726562 m 1
 567.51953125 371.811523438 566.09765625 365.1640625 559.541015625 364.462890625 c 0
 556.591796875 364.350585938 553.9921875 365.975585938 552.69140625 368.413085938 c 0
 548.66796875 376.928710938 543.291992188 384.484375 536.958984375 390.817382812 c 0
 511.744140625 397.723632812 482.690429688 399.244140625 454.590820312 399.587890625 c 0
 447.315429688 400.663085938 447.704101562 399.150390625 437.1171875 404.61328125 c 0
 429.216796875 409.5 423.853515625 419.711914062 425.454101562 429.825195312 c 0
 432.111328125 461.661132812 479.134765625 459.797851562 506.0546875 451.602539062 c 0
 523.997070312 451.05859375 542.194335938 448.606445312 560.466796875 442.8125 c 0
 590.81640625 433.587890625 617.44140625 416.987304688 639.340820312 397.461914062 c 0
 649.678710938 388.237304688 650.590820312 372.375 641.366210938 362.037109375 c 0
 633.140625 352.8125 619.6171875 351.112304688 609.478515625 357.362304688 c 0
 594.928710938 365.864257812 580.756835938 373.83203125 566.428710938 380.219726562 c 1
291.540039062 346.5390625 m 1
 291.588867188 346.569335938 291.616210938 346.586914062 291.616210938 346.586914062 c 1
 291.592773438 346.573242188 291.567382812 346.557617188 291.540039062 346.5390625 c 1
290.1484375 345.2734375 m 0
 288.640625 343.719726562 286.3515625 340.989257812 284.354492188 337.836914062 c 0
 259.94140625 296.48828125 248.291015625 248.125 235.303710938 201.400390625 c 0
 221.361328125 145.825195312 209.416015625 89.130859375 199.98046875 32.142578125 c 1
 252.657226562 30.013671875 304.254882812 25.37109375 358.204101562 24.0380859375 c 0
 404.204101562 24.1875 455.50390625 18.3125 496.515625 38.3994140625 c 0
 501.3671875 42.58984375 500.186523438 41.724609375 500.127929688 47.6376953125 c 0
 485.31640625 126.6875 435.116210938 196.512695312 386.241210938 258.974609375 c 0
 358.3359375 290.739257812 326.819335938 330.703125 290.1484375 345.2734375 c 0
EndSplineSet
EndChar

StartChar: glyph33
Encoding: 289 57633 33
Width: 836
VWidth: 0
Flags: HW
LayerCount: 2
Fore
SplineSet
630.318359375 646.899414062 m 0
 590.29296875 618.086914062 547.005859375 605.30078125 502.255859375 588.650390625 c 0
 493.376953125 585.59765625 484.323242188 582.583984375 475.140625 579.608398438 c 1
 509.8046875 577.38671875 544.442382812 573.986328125 579.15625 569.375 c 0
 625.392578125 561.662109375 674.568359375 558.587890625 716.680664062 534.38671875 c 0
 737.231445312 522.400390625 745.943359375 490.162109375 719.481445312 475.262695312 c 0
 705.692382812 467.961914062 688.91015625 472.0234375 679.8515625 484.141601562 c 1
 646.600585938 501.1484375 607.250976562 506.873046875 570.318359375 515.07421875 c 0
 526.043945312 523.575195312 481.043945312 530.462890625 435.981445312 537.25 c 0
 412.490234375 540.641601562 388.944335938 543.94921875 365.3515625 546.859375 c 1
 343.938476562 540.862304688 322.76171875 535.080078125 302.34375 529.525390625 c 0
 271.973632812 521.653320312 243.201171875 514.208984375 213.04296875 509.952148438 c 1
 204.907226562 476.599609375 197.20703125 443.196289062 189.943359375 409.961914062 c 0
 163.62109375 283.764648438 136.002929688 155.825195312 124.807617188 27.46484375 c 1
 247.29296875 12.0556640625 467.79296875 -20.8310546875 534.994140625 74.98828125 c 1
 591.16796875 144.92578125 576.443359375 211.63671875 556.943359375 292.26171875 c 0
 556.16796875 298.650390625 555.243164062 304.162109375 556.630859375 311.913085938 c 0
 559.15625 330.575195312 581.21875 344.174804688 599.168945312 336.712890625 c 0
 613.29296875 331.836914062 622.193359375 315.94921875 628.568359375 305.775390625 c 0
 679.693359375 217.875 747.40625 19.4375 638.53125 -47.73828125 c 0
 629.142578125 -52.875 618.630859375 -41.4248046875 624.255859375 -32.5244140625 c 0
 653.137695312 24.7919921875 643.8046875 100.12890625 620.330078125 170.20703125 c 1
 610.850585938 40.3466796875 552.67578125 -43.087890625 373.643554688 -52.974609375 c 0
 275.430664062 -58.73828125 179.60546875 -45.9873046875 87.01953125 -30.94921875 c 0
 75.560546875 -29.1884765625 66.5185546875 -21.40625 62.6103515625 -11.3232421875 c 0
 61.130859375 -7.8134765625 60.2734375 -3.9931640625 60.16796875 -0.01171875 c 0
 59.29296875 37.42578125 61.931640625 73.6875 65.568359375 109.525390625 c 0
 76.505859375 215.69921875 98.0185546875 322.037109375 123.168945312 425.462890625 c 0
 130.12890625 452.810546875 137.141601562 480.17578125 144.581054688 507.421875 c 1
 138.731445312 508.177734375 132.609375 509.435546875 126.943359375 511.586914062 c 0
 116.831054688 514.024414062 111.518554688 534.799804688 116.15625 544.512695312 c 0
 118.41796875 549.837890625 119.643554688 551.850585938 121.306640625 556.724609375 c 0
 124.91796875 563.587890625 129.35546875 565.762695312 132.78125 567.80078125 c 0
 143.083007812 572.104492188 153.809570312 574.823242188 164.7265625 576.614257812 c 1
 175.858398438 612.159179688 188.2890625 647.296875 202.880859375 681.712890625 c 0
 219.493164062 720.575195312 257.430664062 771.01171875 216.280273438 805.94921875 c 0
 206.755859375 812.950195312 215.743164062 828.487304688 226.556640625 823.67578125 c 0
 294.818359375 796.337890625 273.517578125 715.375 253.73046875 662.900390625 c 0
 246.407226562 637.639648438 239.341796875 612.145507812 232.536132812 586.520507812 c 1
 317.306640625 601.4765625 402.362304688 623.073242188 486.244140625 643.711914062 c 0
 531.10546875 653.662109375 576.48046875 666.3125 622.16796875 669.100585938 c 0
 634.081054688 670.262695312 640.080078125 653.637695312 630.318359375 646.899414062 c 0
680.37109375 483.875 m 1
 680.912109375 483.362304688 681.043945312 483.525390625 681.043945312 483.525390625 c 0
 680.819335938 483.642578125 680.595703125 483.758789062 680.37109375 483.875 c 1
698.393554688 380.2109375 m 1
 699.485351562 371.80078125 698.063476562 365.151367188 691.505859375 364.44921875 c 0
 688.555664062 364.336914062 685.956054688 365.961914062 684.65625 368.399414062 c 0
 680.630859375 376.922851562 675.252929688 384.483398438 668.916015625 390.819335938 c 0
 643.703125 397.723632812 614.651367188 399.244140625 586.556640625 399.587890625 c 0
 579.28125 400.663085938 579.66796875 399.150390625 569.081054688 404.61328125 c 0
 561.180664062 409.5 555.818359375 419.711914062 557.41796875 429.8125 c 0
 564.072265625 461.633789062 611.046875 459.787109375 637.979492188 451.6015625 c 0
 655.9453125 451.0546875 674.138671875 448.58984375 692.430664062 442.8125 c 0
 722.78125 433.587890625 749.405273438 416.987304688 771.306640625 397.461914062 c 0
 781.642578125 388.237304688 782.556640625 372.375 773.331054688 362.025390625 c 0
 765.106445312 352.80078125 751.581054688 351.099609375 741.443359375 357.349609375 c 0
 726.89453125 365.8515625 712.721679688 373.819335938 698.393554688 380.2109375 c 1
EndSplineSet
EndChar

StartChar: glyph34
Encoding: 290 57634 34
Width: 922
VWidth: 0
Flags: HW
LayerCount: 2
Fore
SplineSet
714.306640625 665.05078125 m 0
 714.306640625 621.91015625 749.291015625 586.92578125 792.431640625 586.92578125 c 0
 835.572265625 586.92578125 870.556640625 621.91015625 870.556640625 665.05078125 c 0
 870.556640625 708.192382812 835.572265625 743.17578125 792.431640625 743.17578125 c 0
 749.291015625 743.17578125 714.306640625 708.192382812 714.306640625 665.05078125 c 0
745.556640625 665.05078125 m 0
 745.556640625 690.953125 766.529296875 711.92578125 792.431640625 711.92578125 c 0
 818.333984375 711.92578125 839.306640625 690.953125 839.306640625 665.05078125 c 0
 839.306640625 639.149414062 818.333984375 618.17578125 792.431640625 618.17578125 c 0
 766.529296875 618.17578125 745.556640625 639.149414062 745.556640625 665.05078125 c 0
630.29296875 646.88671875 m 0
 590.369140625 617.88671875 546.981445312 605.450195312 502.217773438 588.774414062 c 0
 493.171875 585.602539062 484.08984375 582.556640625 474.979492188 579.60546875 c 1
 509.693359375 577.384765625 544.379882812 573.98046875 579.142578125 569.36328125 c 0
 625.380859375 561.650390625 674.555664062 558.575195312 716.668945312 534.375 c 0
 737.217773438 522.387695312 745.931640625 490.137695312 719.46875 475.25 c 0
 705.4765625 467.841796875 688.40234375 472.133789062 679.443359375 484.669921875 c 0
 678.991210938 484.94921875 678.439453125 485.250976562 677.78125 485.55078125 c 0
 644.455078125 500.724609375 606.70703125 507.400390625 570.29296875 515.0625 c 0
 502.290039062 527.4296875 433.362304688 538.697265625 364.310546875 546.918945312 c 1
 336.819335938 539.33984375 270.430664062 519.165039062 213.080078125 510.102539062 c 1
 204.930664062 476.700195312 197.217773438 443.247070312 189.943359375 409.961914062 c 0
 181.67578125 370.32421875 173.280273438 330.514648438 165.305664062 290.575195312 c 1
 180.962890625 306.536132812 198.607421875 320.823242188 218.393554688 333 c 0
 309.081054688 390.5625 423.65625 407.788085938 527.494140625 382.25 c 0
 639.318359375 355.825195312 733.255859375 262.075195312 722.34375 140.724609375 c 0
 721.962890625 132.258789062 720.916015625 123.64453125 719.23828125 115.022460938 c 1
 753.529296875 87.6865234375 781.458007812 52.4814453125 798.89453125 11.1875 c 0
 815.518554688 -28.8623046875 755.79296875 -52.5 740.681640625 -11.6123046875 c 0
 732.21875 15.7373046875 717.91015625 39.6669921875 699.524414062 59.806640625 c 1
 679.366210938 22.1806640625 646.836914062 -8.791015625 605.493164062 -18.42578125 c 0
 531.581054688 -39.125 410.630859375 -30.4375 357.130859375 31.6005859375 c 0
 338.89453125 52.6875 342.305664062 89.875 358.744140625 111.375 c 0
 401.09375 167.48828125 473.744140625 179.599609375 538.868164062 178.912109375 c 0
 581.762695312 178.725585938 624.411132812 168.594726562 663.005859375 150.161132812 c 1
 664.095703125 217.112304688 621.798828125 274.978515625 561.043945312 303.163085938 c 0
 450.493164062 355.487304688 297.118164062 336.6875 208.055664062 251.049804688 c 0
 172.696289062 216.955078125 149.79296875 174.381835938 136.629882812 127.96875 c 1
 130.454101562 85.376953125 125.583007812 42.7001953125 122.66796875 -0.01171875 c 0
 122.662109375 -0.259765625 122.653320312 -0.5068359375 122.641601562 -0.7529296875 c 0
 122.127929688 -42.6640625 60.056640625 -42.7080078125 60.14453125 0 c 0
 60.14453125 0.193359375 60.1552734375 0.38671875 60.1552734375 0.580078125 c 0
 59.3212890625 37.80859375 61.9501953125 73.876953125 65.568359375 109.525390625 c 0
 76.505859375 215.69921875 98.0185546875 322.037109375 123.168945312 425.462890625 c 0
 130.087890625 452.649414062 137.05859375 479.853515625 144.450195312 506.94140625 c 1
 130.776367188 509.095703125 120.928710938 513.959960938 116.981445312 522.5625 c 0
 113.018554688 531.6875 114.255859375 543.537109375 119.28125 551.450195312 c 0
 122.831054688 563.82421875 132.95703125 568.912109375 142.78125 571.8125 c 0
 150.030273438 573.522460938 157.295898438 574.94140625 164.573242188 576.123046875 c 1
 175.744140625 611.8359375 188.22265625 647.137695312 202.880859375 681.712890625 c 0
 219.493164062 720.575195312 257.430664062 771.01171875 216.280273438 805.94921875 c 0
 206.755859375 812.950195312 215.743164062 828.487304688 226.556640625 823.67578125 c 0
 294.818359375 796.337890625 273.517578125 715.375 253.73046875 662.900390625 c 0
 246.368164062 637.505859375 239.267578125 611.875976562 232.428710938 586.114257812 c 1
 272.91015625 593.563476562 313.708984375 602.374023438 353.34375 611 c 0
 417.35546875 626.274414062 488.29296875 644.737304688 553.068359375 658.950195312 c 0
 575.71875 663.82421875 599.54296875 667.73828125 622.130859375 669.086914062 c 0
 634.018554688 670.224609375 640.030273438 653.650390625 630.29296875 646.88671875 c 0
680.204101562 484.158203125 m 1
 681.25390625 482.981445312 681.3203125 483.331054688 680.204101562 484.158203125 c 1
653.9140625 97.4091796875 m 1
 588.825195312 137.715820312 501.999023438 146.51953125 431.680664062 115.825195312 c 0
 410.40625 105.674804688 390.619140625 91.7373046875 386.85546875 69.849609375 c 0
 387.380859375 50.412109375 410.994140625 40.412109375 430.643554688 32.1875 c 0
 480.09375 14.9501953125 539.818359375 13.2373046875 589.767578125 30.099609375 c 0
 623.493164062 40.8662109375 643.48046875 66.576171875 653.9140625 97.4091796875 c 1
EndSplineSet
EndChar

StartChar: glyph35
Encoding: 291 57635 35
Width: 922
VWidth: 0
Flags: HW
LayerCount: 2
Fore
SplineSet
714.306640625 665.05078125 m 0
 714.306640625 621.91015625 749.291015625 586.92578125 792.431640625 586.92578125 c 0
 835.572265625 586.92578125 870.556640625 621.91015625 870.556640625 665.05078125 c 0
 870.556640625 708.192382812 835.572265625 743.17578125 792.431640625 743.17578125 c 0
 749.291015625 743.17578125 714.306640625 708.192382812 714.306640625 665.05078125 c 0
745.556640625 665.05078125 m 0
 745.556640625 690.953125 766.529296875 711.92578125 792.431640625 711.92578125 c 0
 818.333984375 711.92578125 839.306640625 690.953125 839.306640625 665.05078125 c 0
 839.306640625 639.149414062 818.333984375 618.17578125 792.431640625 618.17578125 c 0
 766.529296875 618.17578125 745.556640625 639.149414062 745.556640625 665.05078125 c 0
630.29296875 646.88671875 m 0
 590.369140625 617.88671875 546.981445312 605.450195312 502.217773438 588.774414062 c 0
 493.171875 585.602539062 484.08984375 582.556640625 474.979492188 579.60546875 c 1
 509.693359375 577.384765625 544.379882812 573.98046875 579.142578125 569.36328125 c 0
 625.380859375 561.650390625 674.555664062 558.575195312 716.668945312 534.375 c 0
 737.217773438 522.387695312 745.931640625 490.137695312 719.46875 475.25 c 0
 705.4765625 467.841796875 688.40234375 472.133789062 679.443359375 484.669921875 c 0
 678.991210938 484.94921875 678.439453125 485.250976562 677.78125 485.55078125 c 0
 644.455078125 500.724609375 606.70703125 507.400390625 570.29296875 515.0625 c 0
 502.290039062 527.4296875 433.362304688 538.697265625 364.310546875 546.918945312 c 1
 336.819335938 539.33984375 270.430664062 519.165039062 213.080078125 510.102539062 c 1
 204.930664062 476.700195312 197.217773438 443.247070312 189.943359375 409.961914062 c 0
 182.494140625 374.248046875 174.94140625 338.39453125 167.685546875 302.431640625 c 1
 179.744140625 314.28125 193.04296875 325.1640625 207.693359375 334.887695312 c 0
 366.40625 442.8125 625.880859375 406.6875 711.71875 222.599609375 c 0
 760.28125 116.025390625 733.231445312 -1.01171875 603.04296875 -18.6875 c 0
 513.53125 -30.125 404.731445312 -2.962890625 343.380859375 66.099609375 c 0
 333.467773438 78.5 351.493164062 94.13671875 362.35546875 82.662109375 c 0
 399.994140625 44.6630859375 460.356445312 27.900390625 513.09375 22.48828125 c 0
 564.255859375 18.1630859375 618.58203125 26.8994140625 655.893554688 63.13671875 c 0
 684.643554688 96.80078125 675.45703125 156.80078125 655.731445312 196.23828125 c 0
 609.744140625 292.612304688 495.068359375 339.862304688 391.54296875 333.037109375 c 0
 281.39453125 329.950195312 182.869140625 268.974609375 145.643554688 163.075195312 c 0
 143.096679688 156.065429688 140.77734375 148.954101562 138.674804688 141.756835938 c 0
 131.528320312 94.5888671875 125.897460938 47.310546875 122.66796875 -0.01171875 c 0
 122.66796875 -0.0673828125 122.6640625 -0.123046875 122.6640625 -0.177734375 c 0
 122.6640625 -0.21875 122.66796875 -0.259765625 122.66796875 -0.30078125 c 0
 122.831054688 -43.1748046875 59.7060546875 -43.13671875 60.15625 0 c 0
 60.15625 0.076171875 60.1630859375 0.15234375 60.1630859375 0.228515625 c 0
 59.3046875 37.5810546875 61.9384765625 73.7646484375 65.568359375 109.525390625 c 0
 76.505859375 215.69921875 98.0185546875 322.037109375 123.168945312 425.462890625 c 0
 130.087890625 452.649414062 137.05859375 479.853515625 144.450195312 506.94140625 c 1
 130.776367188 509.095703125 120.928710938 513.959960938 116.981445312 522.5625 c 0
 113.018554688 531.6875 114.255859375 543.537109375 119.28125 551.450195312 c 0
 122.831054688 563.82421875 132.95703125 568.912109375 142.78125 571.8125 c 0
 150.030273438 573.522460938 157.295898438 574.94140625 164.573242188 576.123046875 c 1
 175.744140625 611.8359375 188.22265625 647.137695312 202.880859375 681.712890625 c 0
 219.493164062 720.575195312 257.430664062 771.01171875 216.280273438 805.94921875 c 0
 206.755859375 812.950195312 215.743164062 828.487304688 226.556640625 823.67578125 c 0
 294.818359375 796.337890625 273.517578125 715.375 253.73046875 662.900390625 c 0
 246.368164062 637.505859375 239.267578125 611.875976562 232.428710938 586.114257812 c 1
 272.91015625 593.563476562 313.708984375 602.374023438 353.34375 611 c 0
 417.35546875 626.274414062 488.29296875 644.737304688 553.068359375 658.950195312 c 0
 575.71875 663.82421875 599.54296875 667.73828125 622.130859375 669.086914062 c 0
 634.018554688 670.224609375 640.030273438 653.650390625 630.29296875 646.88671875 c 0
680.204101562 484.158203125 m 1
 681.25390625 482.981445312 681.3203125 483.331054688 680.204101562 484.158203125 c 1
EndSplineSet
EndChar

StartChar: glyph36
Encoding: 292 57636 36
Width: 1072
VWidth: 0
Flags: HW
LayerCount: 2
Fore
SplineSet
863.212890625 665.05078125 m 0
 863.212890625 621.91015625 898.197265625 586.92578125 941.337890625 586.92578125 c 0
 984.478515625 586.92578125 1019.46289062 621.91015625 1019.46289062 665.05078125 c 0
 1019.46289062 708.192382812 984.478515625 743.17578125 941.337890625 743.17578125 c 0
 898.197265625 743.17578125 863.212890625 708.192382812 863.212890625 665.05078125 c 0
894.462890625 665.05078125 m 0
 894.462890625 690.953125 915.435546875 711.92578125 941.337890625 711.92578125 c 0
 967.240234375 711.92578125 988.212890625 690.953125 988.212890625 665.05078125 c 0
 988.212890625 639.149414062 967.240234375 618.17578125 941.337890625 618.17578125 c 0
 915.435546875 618.17578125 894.462890625 639.149414062 894.462890625 665.05078125 c 0
779.19921875 646.88671875 m 0
 739.275390625 617.88671875 695.887695312 605.450195312 651.124023438 588.774414062 c 0
 642.078125 585.602539062 632.99609375 582.556640625 623.885742188 579.60546875 c 1
 658.599609375 577.384765625 693.286132812 573.98046875 728.048828125 569.36328125 c 0
 774.287109375 561.650390625 823.461914062 558.575195312 865.575195312 534.375 c 0
 886.124023438 522.387695312 894.837890625 490.137695312 868.375 475.25 c 0
 854.3828125 467.841796875 837.30859375 472.133789062 828.349609375 484.669921875 c 0
 827.897460938 484.94921875 827.345703125 485.250976562 826.6875 485.55078125 c 0
 793.361328125 500.724609375 755.61328125 507.400390625 719.19921875 515.0625 c 0
 651.196289062 527.4296875 582.268554688 538.697265625 513.216796875 546.918945312 c 1
 485.725585938 539.33984375 419.336914062 519.165039062 361.986328125 510.102539062 c 1
 353.836914062 476.700195312 346.124023438 443.247070312 338.849609375 409.961914062 c 0
 333.778320312 385.6484375 328.659179688 361.270507812 323.618164062 336.837890625 c 0
 323.756835938 336.141601562 323.892578125 335.4375 324.024414062 334.725585938 c 0
 342.712890625 250.112304688 342.51171875 114.875 418.237304688 63.44921875 c 1
 442.700195312 55.5751953125 470.69921875 54.900390625 497.224609375 52.8505859375 c 0
 575.861328125 49.599609375 656.450195312 51.0498046875 733.986328125 63.5625 c 0
 751.818359375 66.55078125 771.709960938 72.0205078125 783.044921875 78.265625 c 1
 791.956054688 94.775390625 794.4453125 112.4765625 796.899414062 132.587890625 c 0
 802.8125 192.9375 797.962890625 258.637695312 794.099609375 323.100585938 c 0
 793.673828125 330.25 799.125 336.387695312 806.26171875 336.8125 c 0
 812.137695312 337.163085938 817.337890625 333.525390625 819.237304688 328.25 c 0
 830.674804688 296.412109375 838.76171875 264.1875 844.912109375 231.025390625 c 0
 854.298828125 171.913085938 863.099609375 104.9375 835.25 47.73828125 c 0
 796.26171875 -25.775390625 475.336914062 -23.6376953125 400.200195312 0.61328125 c 1
 336.524414062 28.546875 307.469726562 93.7314453125 290.9765625 163.473632812 c 1
 282.653320312 111.791015625 275.987304688 59.962890625 272.150390625 8.0771484375 c 1
 279.909179688 -17.1591796875 249.990234375 -46.7509765625 222.125 -25.412109375 c 0
 157.899414062 33.19921875 19.2490234375 101.075195312 65.525390625 207.48828125 c 0
 85.3037109375 252.243164062 192.448242188 376.9375 263.458007812 389.26171875 c 1
 266.274414062 401.365234375 269.150390625 413.43359375 272.075195312 425.462890625 c 0
 278.994140625 452.649414062 285.96484375 479.853515625 293.356445312 506.94140625 c 1
 279.682617188 509.095703125 269.834960938 513.959960938 265.887695312 522.5625 c 0
 261.924804688 531.6875 263.162109375 543.537109375 268.1875 551.450195312 c 0
 271.737304688 563.82421875 281.86328125 568.912109375 291.6875 571.8125 c 0
 298.936523438 573.522460938 306.202148438 574.94140625 313.479492188 576.123046875 c 1
 324.650390625 611.8359375 337.12890625 647.137695312 351.787109375 681.712890625 c 0
 368.399414062 720.575195312 406.336914062 771.01171875 365.186523438 805.94921875 c 0
 355.662109375 812.950195312 364.649414062 828.487304688 375.462890625 823.67578125 c 0
 443.724609375 796.337890625 422.423828125 715.375 402.63671875 662.900390625 c 0
 395.274414062 637.505859375 388.173828125 611.875976562 381.334960938 586.114257812 c 1
 421.81640625 593.563476562 462.615234375 602.374023438 502.25 611 c 0
 566.26171875 626.274414062 637.19921875 644.737304688 701.974609375 658.950195312 c 0
 724.625 663.82421875 748.44921875 667.73828125 771.037109375 669.086914062 c 0
 782.924804688 670.224609375 788.936523438 653.650390625 779.19921875 646.88671875 c 0
829.110351562 484.158203125 m 1
 830.16015625 482.981445312 830.2265625 483.331054688 829.110351562 484.158203125 c 1
210.13671875 56.328125 m 1
 211.143554688 74.22265625 212.688476562 91.9248046875 214.474609375 109.525390625 c 0
 221.692382812 179.583984375 233.513671875 249.71484375 247.946289062 319.032226562 c 1
 225.41796875 306.606445312 204.02734375 288.78125 183.51171875 271.662109375 c 0
 160.287109375 251.075195312 137.586914062 228.637695312 120.775390625 204.424804688 c 0
 78.1875 153.0625 133.974609375 110.262695312 177.3125 78.98828125 c 0
 187.965820312 71.263671875 198.9453125 63.7373046875 210.13671875 56.328125 c 1
782.940429688 78.072265625 m 1
 782.725585938 77.7626953125 782.536132812 77.337890625 782.537109375 77.337890625 c 0
 782.672851562 77.58203125 782.807617188 77.8271484375 782.940429688 78.072265625 c 1
EndSplineSet
EndChar

StartChar: glyph37
Encoding: 293 57637 37
Width: 922
VWidth: 0
Flags: HW
LayerCount: 2
Fore
SplineSet
714.237304688 665.05078125 m 0
 714.237304688 621.91015625 749.220703125 586.92578125 792.362304688 586.92578125 c 0
 835.502929688 586.92578125 870.487304688 621.91015625 870.487304688 665.05078125 c 0
 870.487304688 708.192382812 835.502929688 743.17578125 792.362304688 743.17578125 c 0
 749.220703125 743.17578125 714.237304688 708.192382812 714.237304688 665.05078125 c 0
745.487304688 665.05078125 m 0
 745.487304688 690.953125 766.459960938 711.92578125 792.362304688 711.92578125 c 0
 818.263671875 711.92578125 839.237304688 690.953125 839.237304688 665.05078125 c 0
 839.237304688 639.149414062 818.263671875 618.17578125 792.362304688 618.17578125 c 0
 766.459960938 618.17578125 745.487304688 639.149414062 745.487304688 665.05078125 c 0
630.223632812 646.88671875 m 0
 590.298828125 617.88671875 546.912109375 605.450195312 502.1484375 588.774414062 c 0
 493.102539062 585.602539062 484.020507812 582.556640625 474.91015625 579.60546875 c 1
 509.624023438 577.384765625 544.310546875 573.98046875 579.073242188 569.36328125 c 0
 625.311523438 561.650390625 674.486328125 558.575195312 716.599609375 534.375 c 0
 737.1484375 522.387695312 745.861328125 490.137695312 719.399414062 475.25 c 0
 705.407226562 467.841796875 688.33203125 472.133789062 679.374023438 484.669921875 c 0
 678.921875 484.94921875 678.369140625 485.250976562 677.7109375 485.55078125 c 0
 644.385742188 500.724609375 606.63671875 507.400390625 570.223632812 515.0625 c 0
 502.220703125 527.4296875 433.29296875 538.697265625 364.241210938 546.918945312 c 1
 336.749023438 539.33984375 270.360351562 519.165039062 213.010742188 510.102539062 c 1
 204.861328125 476.700195312 197.1484375 443.247070312 189.874023438 409.961914062 c 0
 163.921875 285.541992188 136.7109375 159.428710938 125.220703125 32.888671875 c 1
 134.830078125 33.150390625 144.35546875 33.2490234375 153.817382812 33.216796875 c 0
 153.881835938 34.0283203125 153.946289062 34.8388671875 154.01171875 35.6494140625 c 0
 162.623046875 125.92578125 176.19921875 215.724609375 203.135742188 303.012695312 c 0
 232.94921875 403.05078125 283.361328125 448.1875 370.5859375 364.663085938 c 0
 436.098632812 297.225585938 479.44921875 215.987304688 519.662109375 132.3125 c 0
 535.5859375 94.212890625 566.2109375 33.1630859375 523.6484375 2.037109375 c 0
 501.01171875 -14.212890625 473.999023438 -17.8125 448.986328125 -21.025390625 c 0
 386.723632812 -26.88671875 327.310546875 -24.67578125 267.973632812 -23.8125 c 0
 242.893554688 -23.5107421875 217.205078125 -23.0419921875 191.600585938 -23.4091796875 c 1
 190.088867188 -34.544921875 188.678710938 -45.681640625 187.374023438 -56.8125 c 0
 185.086914062 -84.0625 180.8359375 -113.950195312 186.1484375 -140.375 c 0
 190.411132812 -157.149414062 165.923828125 -165.412109375 159.26171875 -149.287109375 c 0
 155.349609375 -139.775390625 153.999023438 -131.825195312 152.69921875 -123.82421875 c 0
 148.640625 -90.955078125 148.493164062 -57.888671875 149.973632812 -24.9140625 c 1
 131.440429688 -26.06640625 113.154296875 -27.9599609375 95.38671875 -30.9873046875 c 0
 67.9111328125 -35.1796875 54.48046875 -10.3525390625 59.953125 9.193359375 c 1
 59.6640625 43.3818359375 62.16015625 76.6328125 65.4990234375 109.525390625 c 0
 76.4365234375 215.69921875 97.94921875 322.037109375 123.099609375 425.462890625 c 0
 130.018554688 452.649414062 136.989257812 479.853515625 144.379882812 506.94140625 c 1
 130.706054688 509.095703125 120.859375 513.959960938 116.912109375 522.5625 c 0
 112.94921875 531.6875 114.185546875 543.537109375 119.2109375 551.450195312 c 0
 122.76171875 563.82421875 132.88671875 568.912109375 142.7109375 571.8125 c 0
 149.9609375 573.522460938 157.225585938 574.94140625 164.502929688 576.123046875 c 1
 175.674804688 611.8359375 188.15234375 647.137695312 202.811523438 681.712890625 c 0
 219.423828125 720.575195312 257.361328125 771.01171875 216.2109375 805.94921875 c 0
 206.685546875 812.950195312 215.673828125 828.487304688 226.486328125 823.67578125 c 0
 294.748046875 796.337890625 273.448242188 715.375 253.661132812 662.900390625 c 0
 246.298828125 637.505859375 239.197265625 611.875976562 232.358398438 586.114257812 c 1
 272.840820312 593.563476562 313.639648438 602.374023438 353.2734375 611 c 0
 417.286132812 626.274414062 488.223632812 644.737304688 552.999023438 658.950195312 c 0
 575.649414062 663.82421875 599.473632812 667.73828125 622.061523438 669.086914062 c 0
 633.94921875 670.224609375 639.9609375 653.650390625 630.223632812 646.88671875 c 0
680.133789062 484.158203125 m 1
 681.18359375 482.981445312 681.250976562 483.331054688 680.133789062 484.158203125 c 1
291.53515625 346.5390625 m 1
 291.583984375 346.569335938 291.611328125 346.586914062 291.611328125 346.586914062 c 1
 291.587890625 346.573242188 291.5625 346.557617188 291.53515625 346.5390625 c 1
290.143554688 345.2734375 m 0
 288.635742188 343.719726562 286.346679688 340.989257812 284.349609375 337.836914062 c 0
 259.936523438 296.48828125 248.286132812 248.125 235.298828125 201.387695312 c 0
 221.356445312 145.81640625 209.412109375 89.1240234375 199.977539062 32.142578125 c 1
 252.653320312 30.013671875 304.25 25.37109375 358.19921875 24.0380859375 c 0
 404.19921875 24.1875 455.499023438 18.3125 496.51171875 38.3994140625 c 0
 501.362304688 42.58984375 500.181640625 41.724609375 500.123046875 47.6376953125 c 0
 485.311523438 126.674804688 435.111328125 196.512695312 386.236328125 258.974609375 c 0
 358.331054688 290.739257812 326.814453125 330.703125 290.143554688 345.2734375 c 0
EndSplineSet
EndChar

StartChar: glyph38
Encoding: 294 57638 38
Width: 922
VWidth: 0
Flags: HW
LayerCount: 2
Fore
SplineSet
714.306640625 665.05078125 m 0
 714.306640625 621.91015625 749.291015625 586.92578125 792.431640625 586.92578125 c 0
 835.572265625 586.92578125 870.556640625 621.91015625 870.556640625 665.05078125 c 0
 870.556640625 708.192382812 835.572265625 743.17578125 792.431640625 743.17578125 c 0
 749.291015625 743.17578125 714.306640625 708.192382812 714.306640625 665.05078125 c 0
745.556640625 665.05078125 m 0
 745.556640625 690.953125 766.529296875 711.92578125 792.431640625 711.92578125 c 0
 818.333984375 711.92578125 839.306640625 690.953125 839.306640625 665.05078125 c 0
 839.306640625 639.149414062 818.333984375 618.17578125 792.431640625 618.17578125 c 0
 766.529296875 618.17578125 745.556640625 639.149414062 745.556640625 665.05078125 c 0
630.29296875 646.88671875 m 0
 590.369140625 617.88671875 546.981445312 605.450195312 502.217773438 588.774414062 c 0
 493.171875 585.602539062 484.08984375 582.556640625 474.979492188 579.60546875 c 1
 509.693359375 577.384765625 544.379882812 573.98046875 579.142578125 569.36328125 c 0
 625.380859375 561.650390625 674.555664062 558.575195312 716.668945312 534.375 c 0
 737.217773438 522.387695312 745.931640625 490.137695312 719.46875 475.25 c 0
 705.4765625 467.841796875 688.40234375 472.133789062 679.443359375 484.669921875 c 0
 678.991210938 484.94921875 678.439453125 485.250976562 677.78125 485.55078125 c 0
 644.455078125 500.724609375 606.70703125 507.400390625 570.29296875 515.0625 c 0
 502.290039062 527.4296875 433.362304688 538.697265625 364.310546875 546.918945312 c 1
 336.819335938 539.33984375 270.430664062 519.165039062 213.080078125 510.102539062 c 1
 204.930664062 476.700195312 197.217773438 443.247070312 189.943359375 409.961914062 c 0
 163.650390625 283.907226562 136.065429688 156.114257812 124.845703125 27.900390625 c 1
 216.400390625 18.7578125 311.336914062 15.5673828125 391.630859375 59.212890625 c 0
 463.793945312 98.9375 489.081054688 188 456.70703125 263.75 c 0
 448.331054688 290.262695312 431.568359375 313.5625 430.106445312 343.25 c 0
 430.418945312 348.774414062 432.35546875 356.26171875 436.70703125 361.625 c 0
 438.89453125 364.038085938 439.142578125 365.6875 446.943359375 370.450195312 c 0
 454.930664062 374.275390625 457.181640625 373.8125 461.10546875 374.212890625 c 0
 466.568359375 374.174804688 467.930664062 373.76171875 471.443359375 372.850585938 c 0
 478.155273438 370.63671875 479.193359375 369.537109375 481.40625 368.42578125 c 0
 507.118164062 351.6875 526.993164062 331.474609375 548.706054688 311.162109375 c 0
 584.442382812 274.944335938 632.250976562 225.408203125 670.510742188 171.118164062 c 1
 715.813476562 188.744140625 763.579101562 200.725585938 806.255859375 210.737304688 c 0
 818.806640625 213.487304688 824.130859375 194.474609375 811.606445312 190.575195312 c 0
 781.384765625 180.454101562 734.736328125 164.495117188 689.07421875 143.084960938 c 1
 719.34765625 94.09375 739.377929688 42.5478515625 734.418945312 -5.712890625 c 0
 719.943359375 -88.1875 604.868164062 -123.837890625 540.71875 -71.8994140625 c 0
 502.33203125 -44.9501953125 492.15625 14.30078125 515.193359375 53.3994140625 c 0
 537.895507812 92.69921875 572.77734375 121.931640625 613.038085938 144.403320312 c 1
 600.959960938 160.151367188 588.48828125 175.310546875 576.642578125 189.737304688 c 0
 554.954101562 214.421875 532.559570312 239.481445312 508.909179688 263.051757812 c 1
 511.16796875 248.822265625 513.022460938 234.419921875 514.443359375 219.92578125 c 0
 549.53125 -33.900390625 273.505859375 -65.0498046875 87.005859375 -30.9130859375 c 0
 75.42578125 -28.78515625 67.9013671875 -22.30859375 64.0498046875 -14.2958984375 c 0
 61.69140625 -10.0166015625 60.3046875 -5.1474609375 60.16796875 -0.01171875 c 0
 59.29296875 37.42578125 61.931640625 73.6875 65.568359375 109.525390625 c 0
 76.505859375 215.69921875 98.0185546875 322.037109375 123.168945312 425.462890625 c 0
 130.087890625 452.649414062 137.05859375 479.853515625 144.450195312 506.94140625 c 1
 130.776367188 509.095703125 120.928710938 513.959960938 116.981445312 522.5625 c 0
 113.018554688 531.6875 114.255859375 543.537109375 119.28125 551.450195312 c 0
 122.831054688 563.82421875 132.95703125 568.912109375 142.78125 571.8125 c 0
 150.030273438 573.522460938 157.295898438 574.94140625 164.573242188 576.123046875 c 1
 175.744140625 611.8359375 188.22265625 647.137695312 202.880859375 681.712890625 c 0
 219.493164062 720.575195312 257.430664062 771.01171875 216.280273438 805.94921875 c 0
 206.755859375 812.950195312 215.743164062 828.487304688 226.556640625 823.67578125 c 0
 294.818359375 796.337890625 273.517578125 715.375 253.73046875 662.900390625 c 0
 246.368164062 637.505859375 239.267578125 611.875976562 232.428710938 586.114257812 c 1
 272.91015625 593.563476562 313.708984375 602.374023438 353.34375 611 c 0
 417.35546875 626.274414062 488.29296875 644.737304688 553.068359375 658.950195312 c 0
 575.71875 663.82421875 599.54296875 667.73828125 622.130859375 669.086914062 c 0
 634.018554688 670.224609375 640.030273438 653.650390625 630.29296875 646.88671875 c 0
680.204101562 484.158203125 m 1
 681.25390625 482.981445312 681.3203125 483.331054688 680.204101562 484.158203125 c 1
634.955078125 114.2421875 m 1
 583.40234375 82.568359375 544.040039062 42.9072265625 549.142578125 -4.0244140625 c 1
 558.943359375 -44.150390625 611.78125 -56.8369140625 646.619140625 -38.275390625 c 0
 670.180664062 -26.57421875 686.493164062 -8.8125 679.505859375 20.8251953125 c 0
 672.109375 53.0400390625 655.23046875 84.462890625 634.955078125 114.2421875 c 1
EndSplineSet
EndChar

StartChar: glyph39
Encoding: 295 57639 39
Width: 923
VWidth: 0
Flags: HW
LayerCount: 2
Fore
SplineSet
715.331054688 665.05078125 m 0
 715.331054688 621.91015625 750.314453125 586.92578125 793.456054688 586.92578125 c 0
 836.596679688 586.92578125 871.581054688 621.91015625 871.581054688 665.05078125 c 0
 871.581054688 708.192382812 836.596679688 743.17578125 793.456054688 743.17578125 c 0
 750.314453125 743.17578125 715.331054688 708.192382812 715.331054688 665.05078125 c 0
746.581054688 665.05078125 m 0
 746.581054688 690.953125 767.553710938 711.92578125 793.456054688 711.92578125 c 0
 819.357421875 711.92578125 840.331054688 690.953125 840.331054688 665.05078125 c 0
 840.331054688 639.149414062 819.357421875 618.17578125 793.456054688 618.17578125 c 0
 767.553710938 618.17578125 746.581054688 639.149414062 746.581054688 665.05078125 c 0
631.317382812 646.88671875 m 0
 591.392578125 617.88671875 548.005859375 605.450195312 503.2421875 588.774414062 c 0
 494.196289062 585.602539062 485.114257812 582.556640625 476.00390625 579.60546875 c 1
 510.717773438 577.384765625 545.404296875 573.98046875 580.166992188 569.36328125 c 0
 626.405273438 561.650390625 675.580078125 558.575195312 717.693359375 534.375 c 0
 738.2421875 522.387695312 746.955078125 490.137695312 720.493164062 475.25 c 0
 706.500976562 467.841796875 689.42578125 472.133789062 680.467773438 484.669921875 c 0
 680.015625 484.94921875 679.462890625 485.250976562 678.8046875 485.55078125 c 0
 645.479492188 500.724609375 607.73046875 507.400390625 571.317382812 515.0625 c 0
 503.314453125 527.4296875 434.38671875 538.697265625 365.334960938 546.918945312 c 1
 337.842773438 539.33984375 271.454101562 519.165039062 214.104492188 510.102539062 c 1
 205.955078125 476.700195312 198.2421875 443.247070312 190.967773438 409.961914062 c 0
 164.654296875 283.80859375 137.045898438 155.913085938 125.842773438 27.59765625 c 1
 153.137695312 25.611328125 181.6484375 26.3388671875 208.98828125 26.85546875 c 1
 197.6796875 33.0166015625 186.791015625 40.7060546875 176.48046875 50.86328125 c 0
 144.442382812 88.4873046875 161.317382812 142.17578125 181.35546875 180.038085938 c 0
 218.305664062 245.55078125 281.192382812 298.51171875 360.35546875 303.275390625 c 0
 468.2421875 305.01171875 552.055664062 191.94921875 581.85546875 98.9248046875 c 0
 585.04296875 89.587890625 586.443359375 78.7001953125 583.091796875 69.13671875 c 0
 581.80859375 64.654296875 579.5078125 60.3623046875 576.29296875 56.2529296875 c 1
 587.432617188 61.505859375 590.21875 65.42578125 597.2421875 80.712890625 c 0
 610.592773438 115.594726562 620.22265625 156.159179688 624.43359375 195.73828125 c 0
 623.216796875 203.22265625 622.033203125 210.729492188 620.879882812 218.262695312 c 0
 617.979492188 242.475585938 612.205078125 266.899414062 615.904296875 291.80078125 c 0
 619.379882812 313.76171875 645.23046875 327.57421875 665.3046875 315.424804688 c 0
 696.536132812 295.924804688 696.134765625 228.45703125 685.813476562 165.368164062 c 1
 693.171875 99.01171875 703.401367188 32.603515625 709.530273438 -34.25 c 0
 710.642578125 -44.162109375 703.467773438 -53.11328125 693.54296875 -54.1748046875 c 0
 684.517578125 -55.150390625 676.330078125 -49.2626953125 674.155273438 -40.69921875 c 0
 666.616210938 -11.0654296875 659.61328125 18.611328125 653.071289062 48.4013671875 c 1
 613.734375 -33.626953125 491.498046875 -24.8359375 415.892578125 -21.7373046875 c 0
 394.732421875 -20.1044921875 373.7109375 -17.732421875 352.778320312 -14.458984375 c 1
 258.216796875 -27.0498046875 162.213867188 -31.5751953125 124.3671875 -32.5 c 0
 112.5546875 -32.4755859375 101.5546875 -32.6748046875 86.9052734375 -30.75 c 0
 64.546875 -27.1103515625 56.97265625 -7.927734375 61.0556640625 8.1953125 c 0
 60.708984375 42.7353515625 63.2216796875 76.3125 66.5927734375 109.525390625 c 0
 77.5302734375 215.69921875 99.04296875 322.037109375 124.193359375 425.462890625 c 0
 131.112304688 452.649414062 138.083007812 479.853515625 145.473632812 506.94140625 c 1
 131.799804688 509.095703125 121.953125 513.959960938 118.005859375 522.5625 c 0
 114.04296875 531.6875 115.279296875 543.537109375 120.3046875 551.450195312 c 0
 123.85546875 563.82421875 133.98046875 568.912109375 143.8046875 571.8125 c 0
 151.0546875 573.522460938 158.319335938 574.94140625 165.596679688 576.123046875 c 1
 176.768554688 611.8359375 189.24609375 647.137695312 203.905273438 681.712890625 c 0
 220.517578125 720.575195312 258.455078125 771.01171875 217.3046875 805.94921875 c 0
 207.779296875 812.950195312 216.767578125 828.487304688 227.580078125 823.67578125 c 0
 295.841796875 796.337890625 274.541992188 715.375 254.754882812 662.900390625 c 0
 247.392578125 637.505859375 240.291015625 611.875976562 233.452148438 586.114257812 c 1
 273.934570312 593.563476562 314.733398438 602.374023438 354.3671875 611 c 0
 418.379882812 626.274414062 489.317382812 644.737304688 554.092773438 658.950195312 c 0
 576.743164062 663.82421875 600.567382812 667.73828125 623.155273438 669.086914062 c 0
 635.04296875 670.224609375 641.0546875 653.650390625 631.317382812 646.88671875 c 0
681.227539062 484.158203125 m 1
 682.27734375 482.981445312 682.344726562 483.331054688 681.227539062 484.158203125 c 1
538.466796875 81.1181640625 m 1
 538.471679688 81.0322265625 538.4765625 80.951171875 538.48046875 80.875 c 2
 538.580078125 80.69921875 l 1
 538.54296875 80.8388671875 538.504882812 80.978515625 538.466796875 81.1181640625 c 1
538.811523438 84.142578125 m 1
 538.852539062 84.2021484375 538.83984375 84.142578125 538.811523438 84.142578125 c 1
537.881835938 83.234375 m 1
 516.6328125 158.529296875 446.184570312 252.552734375 364.35546875 249.413085938 c 0
 298.155273438 243.299804688 220.6171875 162.42578125 223.455078125 95.2626953125 c 0
 224.842773438 91.3125 232.955078125 87.125 241.466796875 82.7001953125 c 0
 292.576171875 59.8076171875 351.829101562 50.0322265625 408.609375 44.01171875 c 1
 431.8359375 47.77734375 454.813476562 52.3662109375 477.368164062 58.0126953125 c 0
 499.803710938 64.4970703125 522.885742188 70.130859375 537.881835938 83.234375 c 1
EndSplineSet
EndChar

StartChar: glyph40
Encoding: 296 57640 40
Width: 922
VWidth: 0
Flags: HW
LayerCount: 2
Fore
SplineSet
714.306640625 665.05078125 m 0
 714.306640625 621.91015625 749.291015625 586.92578125 792.431640625 586.92578125 c 0
 835.572265625 586.92578125 870.556640625 621.91015625 870.556640625 665.05078125 c 0
 870.556640625 708.192382812 835.572265625 743.17578125 792.431640625 743.17578125 c 0
 749.291015625 743.17578125 714.306640625 708.192382812 714.306640625 665.05078125 c 0
745.556640625 665.05078125 m 0
 745.556640625 690.953125 766.529296875 711.92578125 792.431640625 711.92578125 c 0
 818.333984375 711.92578125 839.306640625 690.953125 839.306640625 665.05078125 c 0
 839.306640625 639.149414062 818.333984375 618.17578125 792.431640625 618.17578125 c 0
 766.529296875 618.17578125 745.556640625 639.149414062 745.556640625 665.05078125 c 0
630.29296875 646.88671875 m 0
 590.369140625 617.88671875 546.981445312 605.450195312 502.217773438 588.774414062 c 0
 493.171875 585.602539062 484.08984375 582.556640625 474.979492188 579.60546875 c 1
 509.693359375 577.384765625 544.379882812 573.98046875 579.142578125 569.36328125 c 0
 625.380859375 561.650390625 674.555664062 558.575195312 716.668945312 534.375 c 0
 737.217773438 522.387695312 745.931640625 490.137695312 719.46875 475.25 c 0
 705.4765625 467.841796875 688.40234375 472.133789062 679.443359375 484.669921875 c 0
 678.991210938 484.94921875 678.439453125 485.250976562 677.78125 485.55078125 c 0
 644.455078125 500.724609375 606.70703125 507.400390625 570.29296875 515.0625 c 0
 502.290039062 527.4296875 433.362304688 538.697265625 364.310546875 546.918945312 c 1
 336.819335938 539.33984375 270.430664062 519.165039062 213.080078125 510.102539062 c 1
 204.930664062 476.700195312 197.217773438 443.247070312 189.943359375 409.961914062 c 0
 163.622070312 283.767578125 136.00390625 155.831054688 124.807617188 27.4736328125 c 1
 247.288085938 12.0556640625 467.8046875 -20.830078125 534.994140625 74.98828125 c 1
 591.16796875 144.912109375 576.443359375 211.63671875 556.943359375 292.26171875 c 0
 556.16796875 298.650390625 555.23046875 304.162109375 556.630859375 311.913085938 c 0
 559.15625 330.575195312 581.21875 344.174804688 599.168945312 336.712890625 c 0
 613.29296875 331.836914062 622.193359375 315.94921875 628.568359375 305.787109375 c 0
 679.693359375 217.88671875 747.40625 19.44921875 638.53125 -47.724609375 c 0
 629.142578125 -52.8623046875 618.630859375 -41.400390625 624.255859375 -32.51171875 c 0
 653.135742188 24.80078125 643.806640625 100.131835938 620.333984375 170.20703125 c 1
 610.853515625 40.359375 552.666992188 -43.0751953125 373.643554688 -52.962890625 c 0
 275.430664062 -58.7255859375 179.60546875 -45.9755859375 87.01953125 -30.9375 c 0
 75.6474609375 -29.1884765625 66.65625 -21.5048828125 62.69921875 -11.5341796875 c 0
 61.166015625 -7.966796875 60.2763671875 -4.072265625 60.16796875 -0.01171875 c 0
 59.29296875 37.42578125 61.931640625 73.6875 65.568359375 109.525390625 c 0
 76.505859375 215.69921875 98.0185546875 322.037109375 123.168945312 425.462890625 c 0
 130.087890625 452.649414062 137.05859375 479.853515625 144.450195312 506.94140625 c 1
 130.776367188 509.095703125 120.928710938 513.959960938 116.981445312 522.5625 c 0
 113.018554688 531.6875 114.255859375 543.537109375 119.28125 551.450195312 c 0
 122.831054688 563.82421875 132.95703125 568.912109375 142.78125 571.8125 c 0
 150.030273438 573.522460938 157.295898438 574.94140625 164.573242188 576.123046875 c 1
 175.744140625 611.8359375 188.22265625 647.137695312 202.880859375 681.712890625 c 0
 219.493164062 720.575195312 257.430664062 771.01171875 216.280273438 805.94921875 c 0
 206.755859375 812.950195312 215.743164062 828.487304688 226.556640625 823.67578125 c 0
 294.818359375 796.337890625 273.517578125 715.375 253.73046875 662.900390625 c 0
 246.368164062 637.505859375 239.267578125 611.875976562 232.428710938 586.114257812 c 1
 272.91015625 593.563476562 313.708984375 602.374023438 353.34375 611 c 0
 417.35546875 626.274414062 488.29296875 644.737304688 553.068359375 658.950195312 c 0
 575.71875 663.82421875 599.54296875 667.73828125 622.130859375 669.086914062 c 0
 634.018554688 670.224609375 640.030273438 653.650390625 630.29296875 646.88671875 c 0
680.204101562 484.158203125 m 1
 681.25390625 482.981445312 681.3203125 483.331054688 680.204101562 484.158203125 c 1
EndSplineSet
EndChar

StartChar: glyph41
Encoding: 297 57641 41
Width: 922
VWidth: 0
Flags: HW
LayerCount: 2
Fore
SplineSet
714.306640625 665.05078125 m 0
 714.306640625 621.91015625 749.291015625 586.92578125 792.431640625 586.92578125 c 0
 835.572265625 586.92578125 870.556640625 621.91015625 870.556640625 665.05078125 c 0
 870.556640625 708.192382812 835.572265625 743.17578125 792.431640625 743.17578125 c 0
 749.291015625 743.17578125 714.306640625 708.192382812 714.306640625 665.05078125 c 0
745.556640625 665.05078125 m 0
 745.556640625 690.953125 766.529296875 711.92578125 792.431640625 711.92578125 c 0
 818.333984375 711.92578125 839.306640625 690.953125 839.306640625 665.05078125 c 0
 839.306640625 639.149414062 818.333984375 618.17578125 792.431640625 618.17578125 c 0
 766.529296875 618.17578125 745.556640625 639.149414062 745.556640625 665.05078125 c 0
630.29296875 646.88671875 m 0
 590.369140625 617.88671875 546.981445312 605.450195312 502.217773438 588.774414062 c 0
 493.171875 585.602539062 484.08984375 582.556640625 474.979492188 579.60546875 c 1
 509.693359375 577.384765625 544.379882812 573.98046875 579.142578125 569.36328125 c 0
 625.380859375 561.650390625 674.555664062 558.575195312 716.668945312 534.375 c 0
 737.217773438 522.387695312 745.931640625 490.137695312 719.46875 475.25 c 0
 705.4765625 467.841796875 688.40234375 472.133789062 679.443359375 484.669921875 c 0
 678.991210938 484.94921875 678.439453125 485.250976562 677.78125 485.55078125 c 0
 644.455078125 500.724609375 606.70703125 507.400390625 570.29296875 515.0625 c 0
 502.290039062 527.4296875 433.362304688 538.697265625 364.310546875 546.918945312 c 1
 336.819335938 539.33984375 270.430664062 519.165039062 213.080078125 510.102539062 c 1
 204.930664062 476.700195312 197.217773438 443.247070312 189.943359375 409.961914062 c 0
 163.366210938 282.544921875 135.46875 153.3515625 124.487304688 23.7421875 c 1
 185.572265625 9.6259765625 253.3828125 4.4287109375 316.005859375 1.0498046875 c 0
 389.331054688 -1.625 463.71875 -1.0498046875 533.73046875 11.662109375 c 0
 540.450195312 12.9697265625 547.176757812 14.36328125 553.854492188 15.916015625 c 1
 536.438476562 25.265625 519.0078125 35.6689453125 501.981445312 48.0751953125 c 0
 440.54296875 90.3369140625 410.255859375 163.299804688 445.681640625 232.400390625 c 0
 477.606445312 302.875 562.606445312 382.075195312 643.443359375 332.337890625 c 0
 709.643554688 286.225585938 710.118164062 194.912109375 707.368164062 123.711914062 c 0
 704.504882812 87.6025390625 697.352539062 48.7705078125 676.462890625 17.876953125 c 1
 688.659179688 10.337890625 699.75 2.4228515625 709.018554688 -6.1875 c 0
 771.668945312 -59.587890625 712.65625 -128.73828125 655.581054688 -154.38671875 c 0
 584.20703125 -190.575195312 460.14453125 -183.0625 443.29296875 -88.0126953125 c 0
 440.967773438 -75.6748046875 458.84375 -70.787109375 463.26953125 -82.287109375 c 0
 469.092773438 -97.9248046875 478.943359375 -111.17578125 492.73046875 -120.07421875 c 0
 535.15625 -145.525390625 592.34375 -134.625 634.03125 -112.037109375 c 0
 654.193359375 -100.6875 672.831054688 -85.07421875 682.318359375 -65.2001953125 c 0
 683.91796875 -60.537109375 683.494140625 -60.0625 682.73046875 -58.1875 c 0
 670.661132812 -41.8037109375 650.551757812 -31.498046875 630.421875 -21.9560546875 c 1
 603.724609375 -35.498046875 574.290039062 -42.8515625 545.693359375 -49.1123046875 c 0
 467.543945312 -64.5625 390.193359375 -66.474609375 313.255859375 -63.42578125 c 0
 233.96875 -59.150390625 159.405273438 -53.525390625 81.505859375 -29.6376953125 c 0
 67.4912109375 -25.0302734375 58.935546875 -11.455078125 60.1123046875 2.6298828125 c 0
 59.41796875 39.1328125 62.0166015625 74.53125 65.568359375 109.525390625 c 0
 76.505859375 215.69921875 98.0185546875 322.037109375 123.168945312 425.462890625 c 0
 130.087890625 452.649414062 137.05859375 479.853515625 144.450195312 506.94140625 c 1
 130.776367188 509.095703125 120.928710938 513.959960938 116.981445312 522.5625 c 0
 113.018554688 531.6875 114.255859375 543.537109375 119.28125 551.450195312 c 0
 122.831054688 563.82421875 132.95703125 568.912109375 142.78125 571.8125 c 0
 150.030273438 573.522460938 157.295898438 574.94140625 164.573242188 576.123046875 c 1
 175.744140625 611.8359375 188.22265625 647.137695312 202.880859375 681.712890625 c 0
 219.493164062 720.575195312 257.430664062 771.01171875 216.280273438 805.94921875 c 0
 206.755859375 812.950195312 215.743164062 828.487304688 226.556640625 823.67578125 c 0
 294.818359375 796.337890625 273.517578125 715.375 253.73046875 662.900390625 c 0
 246.368164062 637.505859375 239.267578125 611.875976562 232.428710938 586.114257812 c 1
 272.91015625 593.563476562 313.708984375 602.374023438 353.34375 611 c 0
 417.35546875 626.274414062 488.29296875 644.737304688 553.068359375 658.950195312 c 0
 575.71875 663.82421875 599.54296875 667.73828125 622.130859375 669.086914062 c 0
 634.018554688 670.224609375 640.030273438 653.650390625 630.29296875 646.88671875 c 0
680.204101562 484.158203125 m 1
 681.25390625 482.981445312 681.3203125 483.331054688 680.204101562 484.158203125 c 1
624.124023438 46.4658203125 m 1
 644.470703125 67.41015625 655.364257812 99.873046875 660.568359375 129.07421875 c 0
 666.017578125 163.037109375 662.993164062 199.725585938 649.65625 230.112304688 c 0
 628.60546875 274.537109375 602.193359375 300.849609375 562.59375 276.913085938 c 0
 527.95703125 255.5625 493.780273438 207.48828125 492.880859375 166.987304688 c 1
 501.458007812 108.703125 564.315429688 77.126953125 624.124023438 46.4658203125 c 1
EndSplineSet
EndChar

StartChar: glyph42
Encoding: 298 57642 42
Width: 922
VWidth: 0
Flags: HW
LayerCount: 2
Fore
SplineSet
714.306640625 665.05078125 m 0
 714.306640625 621.91015625 749.291015625 586.92578125 792.431640625 586.92578125 c 0
 835.572265625 586.92578125 870.556640625 621.91015625 870.556640625 665.05078125 c 0
 870.556640625 708.192382812 835.572265625 743.17578125 792.431640625 743.17578125 c 0
 749.291015625 743.17578125 714.306640625 708.192382812 714.306640625 665.05078125 c 0
745.556640625 665.05078125 m 0
 745.556640625 690.953125 766.529296875 711.92578125 792.431640625 711.92578125 c 0
 818.333984375 711.92578125 839.306640625 690.953125 839.306640625 665.05078125 c 0
 839.306640625 639.149414062 818.333984375 618.17578125 792.431640625 618.17578125 c 0
 766.529296875 618.17578125 745.556640625 639.149414062 745.556640625 665.05078125 c 0
630.29296875 646.88671875 m 0
 590.369140625 617.88671875 546.981445312 605.450195312 502.217773438 588.774414062 c 0
 493.171875 585.602539062 484.08984375 582.556640625 474.979492188 579.60546875 c 1
 509.693359375 577.384765625 544.379882812 573.98046875 579.142578125 569.36328125 c 0
 625.380859375 561.650390625 674.555664062 558.575195312 716.668945312 534.375 c 0
 737.217773438 522.387695312 745.931640625 490.137695312 719.46875 475.25 c 0
 705.4765625 467.841796875 688.40234375 472.133789062 679.443359375 484.669921875 c 0
 678.991210938 484.94921875 678.439453125 485.250976562 677.78125 485.55078125 c 0
 644.455078125 500.724609375 606.70703125 507.400390625 570.29296875 515.0625 c 0
 502.290039062 527.4296875 433.362304688 538.697265625 364.310546875 546.918945312 c 1
 336.819335938 539.33984375 270.430664062 519.165039062 213.080078125 510.102539062 c 1
 204.930664062 476.700195312 197.217773438 443.247070312 189.943359375 409.961914062 c 0
 182.494140625 374.248046875 174.94140625 338.39453125 167.685546875 302.431640625 c 1
 179.744140625 314.28125 193.04296875 325.1640625 207.693359375 334.887695312 c 0
 366.40625 442.8125 625.880859375 406.6875 711.71875 222.599609375 c 0
 760.28125 116.025390625 733.231445312 -1.01171875 603.04296875 -18.7001953125 c 0
 513.53125 -30.1376953125 404.731445312 -2.974609375 343.380859375 66.087890625 c 0
 333.467773438 78.4873046875 351.493164062 94.125 362.35546875 82.650390625 c 0
 399.994140625 44.6494140625 460.356445312 27.875 513.09375 22.4755859375 c 0
 564.255859375 18.1494140625 618.58203125 26.875 655.893554688 63.125 c 0
 684.643554688 96.787109375 675.45703125 156.787109375 655.731445312 196.225585938 c 0
 609.744140625 292.599609375 495.068359375 339.849609375 391.54296875 333.025390625 c 0
 281.39453125 329.9375 182.869140625 268.962890625 145.643554688 163.0625 c 0
 143.095703125 156.047851562 140.774414062 148.932617188 138.670898438 141.73046875 c 0
 131.526367188 94.5712890625 125.896484375 47.3017578125 122.66796875 -0.01171875 c 0
 122.66796875 -0.0693359375 122.6640625 -0.126953125 122.6640625 -0.1845703125 c 0
 122.6640625 -0.2275390625 122.66796875 -0.26953125 122.66796875 -0.3125 c 0
 122.831054688 -43.1875 59.7060546875 -43.1494140625 60.15625 -0.01171875 c 0
 60.15625 0.0654296875 60.1630859375 0.1435546875 60.1630859375 0.22265625 c 0
 59.3046875 37.5771484375 61.9384765625 73.7626953125 65.568359375 109.525390625 c 0
 76.505859375 215.69921875 98.0185546875 322.037109375 123.168945312 425.462890625 c 0
 130.087890625 452.649414062 137.05859375 479.853515625 144.450195312 506.94140625 c 1
 130.776367188 509.095703125 120.928710938 513.959960938 116.981445312 522.5625 c 0
 113.018554688 531.6875 114.255859375 543.537109375 119.28125 551.450195312 c 0
 122.831054688 563.82421875 132.95703125 568.912109375 142.78125 571.8125 c 0
 150.030273438 573.522460938 157.295898438 574.94140625 164.573242188 576.123046875 c 1
 175.744140625 611.8359375 188.22265625 647.137695312 202.880859375 681.712890625 c 0
 219.493164062 720.575195312 257.430664062 771.01171875 216.280273438 805.94921875 c 0
 206.755859375 812.950195312 215.743164062 828.487304688 226.556640625 823.67578125 c 0
 294.818359375 796.337890625 273.517578125 715.375 253.73046875 662.900390625 c 0
 246.368164062 637.505859375 239.267578125 611.875976562 232.428710938 586.114257812 c 1
 272.91015625 593.563476562 313.708984375 602.374023438 353.34375 611 c 0
 417.35546875 626.274414062 488.29296875 644.737304688 553.068359375 658.950195312 c 0
 575.71875 663.82421875 599.54296875 667.73828125 622.130859375 669.086914062 c 0
 634.018554688 670.224609375 640.030273438 653.650390625 630.29296875 646.88671875 c 0
715.018554688 424.799804688 m 0
 719.15625 425.450195312 725.705078125 423.950195312 726.306640625 423.487304688 c 0
 741.10546875 417.700195312 752.33203125 407.475585938 764.130859375 397.836914062 c 0
 780.518554688 382.362304688 818.58203125 355.049804688 791.630859375 331.0625 c 0
 779.85546875 321.32421875 761.592773438 324.737304688 754.081054688 338.025390625 c 0
 744.51953125 354.024414062 729.28125 372.26171875 714.880859375 385.336914062 c 2
 712.79296875 387.125 l 2
 712.747070312 387.163085938 712.709960938 387.193359375 712.681640625 387.21875 c 0
 694.133789062 391.465820312 692.688476562 421.638671875 715.018554688 424.799804688 c 0
639.956054688 408.82421875 m 0
 644.092773438 409.462890625 650.643554688 407.974609375 651.244140625 407.51171875 c 0
 666.043945312 401.724609375 677.267578125 391.5 689.068359375 381.850585938 c 0
 705.45703125 366.375 743.517578125 339.0625 716.568359375 315.087890625 c 0
 704.793945312 305.350585938 686.53125 308.76171875 679.018554688 322.049804688 c 0
 669.455078125 338.05078125 654.21875 356.288085938 639.818359375 369.36328125 c 2
 637.73046875 371.150390625 l 2
 637.684570312 371.1875 637.647460938 371.217773438 637.620117188 371.243164062 c 0
 619.0703125 375.490234375 617.625976562 405.6640625 639.956054688 408.82421875 c 0
680.204101562 484.158203125 m 1
 681.25390625 482.981445312 681.3203125 483.331054688 680.204101562 484.158203125 c 1
714 386.965820312 m 1
 715.26953125 386.662109375 717.895507812 386.184570312 719.755859375 386.86328125 c 1
 717.697265625 386.640625 715.77734375 386.688476562 714 386.965820312 c 1
638.938476562 370.990234375 m 1
 640.20703125 370.686523438 642.833007812 370.208984375 644.693359375 370.887695312 c 1
 642.635742188 370.665039062 640.71484375 370.712890625 638.938476562 370.990234375 c 1
EndSplineSet
EndChar

